<svg width="1318" height="657" viewBox="0 0 1318 657" fill="none" xmlns="http://www.w3.org/2000/svg">
<path d="M2.7084 414.8C2.63607 414.752 2.56659 414.706 2.5 414.661V221.505C2.50304 221.503 2.50609 221.501 2.50914 221.5C3.38887 221.031 4.68509 220.338 6.35504 219.435C9.69488 217.629 14.53 214.986 20.5184 211.632C32.4942 204.926 49.0876 195.376 67.561 183.998C104.463 161.272 149.035 131.154 179.242 101.793C197.564 83.9845 218.398 58.8756 234.612 38.2814C242.728 27.972 249.704 18.7709 254.652 12.1466C257.126 8.83421 259.093 6.1654 260.443 4.32365C260.991 3.57506 261.438 2.96307 261.775 2.5H1056.22C1056.56 2.96307 1057.01 3.57506 1057.56 4.32366C1058.91 6.1654 1060.87 8.83421 1063.35 12.1466C1068.3 18.7709 1075.27 27.972 1083.39 38.2814C1099.6 58.8756 1120.44 83.9845 1138.76 101.793C1168.96 131.154 1213.54 161.272 1250.44 183.998C1268.91 195.376 1285.51 204.926 1297.48 211.632C1303.47 214.986 1308.3 217.629 1311.64 219.435C1313.31 220.338 1314.61 221.031 1315.49 221.5C1315.49 221.501 1315.5 221.503 1315.5 221.505V414.661C1315.43 414.706 1315.36 414.752 1315.29 414.8C1314.42 415.381 1313.14 416.24 1311.49 417.355C1308.19 419.586 1303.4 422.843 1297.47 426.949C1285.61 435.161 1269.15 446.773 1250.78 460.378C1214.05 487.563 1169.54 522.79 1138.7 554.764C1120.95 573.174 1100.13 598.377 1083.79 618.934C1075.61 629.221 1068.54 638.361 1063.51 644.93C1061 648.214 1059 650.856 1057.62 652.678C1057.05 653.429 1056.59 654.04 1056.25 654.5H261.75C261.405 654.04 260.945 653.429 260.378 652.678C259.003 650.856 256.999 648.214 254.485 644.93C249.458 638.361 242.386 629.221 234.208 618.934C217.865 598.377 197.054 573.174 179.299 554.764C148.463 522.79 103.948 487.563 67.2238 460.378C48.846 446.773 32.3897 435.161 20.5272 426.949C14.5956 422.843 9.81164 419.586 6.50927 417.355C4.85807 416.24 3.5772 415.381 2.7084 414.8Z" fill="#FFFDF4" stroke="#B65E5E" stroke-width="5"/>
</svg>
