<svg width="1318" height="657" viewBox="0 0 1318 657" fill="none" xmlns="http://www.w3.org/2000/svg">
<path d="M2.7084 414.8C2.63607 414.752 2.56659 414.706 2.5 414.661V221.505C2.50304 221.503 2.50609 221.501 2.50914 221.5C3.38887 221.031 4.68509 220.338 6.35504 219.435C9.69488 217.629 14.53 214.986 20.5184 211.632C32.4942 204.926 49.0876 195.376 67.561 183.998C104.463 161.272 149.035 131.154 179.242 101.793C197.564 83.9845 218.398 58.8756 234.612 38.2814C242.728 27.972 249.704 18.7709 254.652 12.1466C257.126 8.83421 259.093 6.1654 260.443 4.32365C260.991 3.57506 261.438 2.96307 261.775 2.5H1056.22C1056.56 2.96307 1057.01 3.57506 1057.56 4.32366C1058.91 6.1654 1060.87 8.83421 1063.35 12.1466C1068.3 18.7709 1075.27 27.972 1083.39 38.2814C1099.6 58.8756 1120.44 83.9845 1138.76 101.793C1168.96 131.154 1213.54 161.272 1250.44 183.998C1268.91 195.376 1285.51 204.926 1297.48 211.632C1303.47 214.986 1308.3 217.629 1311.64 219.435C1313.31 220.338 1314.61 221.031 1315.49 221.5C1315.49 221.501 1315.5 221.503 1315.5 221.505V414.661C1315.43 414.706 1315.36 414.752 1315.29 414.8C1314.42 415.381 1313.14 416.24 1311.49 417.355C1308.19 419.586 1303.4 422.843 1297.47 426.949C1285.61 435.161 1269.15 446.773 1250.78 460.378C1214.05 487.563 1169.54 522.79 1138.7 554.764C1120.95 573.174 1100.13 598.377 1083.79 618.934C1075.61 629.221 1068.54 638.361 1063.51 644.93C1061 648.214 1059 650.856 1057.62 652.678C1057.05 653.429 1056.59 654.04 1056.25 654.5H261.75C261.405 654.04 260.945 653.429 260.378 652.678C259.003 650.856 256.999 648.214 254.485 644.93C249.458 638.361 242.386 629.221 234.208 618.934C217.865 598.377 197.054 573.174 179.299 554.764C148.463 522.79 103.948 487.563 67.2238 460.378C48.846 446.773 32.3897 435.161 20.5272 426.949C14.5956 422.843 9.81164 419.586 6.50927 417.355C4.85807 416.24 3.5772 415.381 2.7084 414.8Z" fill="#FFFDF4" stroke="#B65E5E" stroke-width="5"/>
<g filter="url(#filter0_d_64_10)">
<path d="M434.328 117.592C435.16 117.592 435.8 117.976 436.248 118.744C436.76 119.512 437.016 120.568 437.016 121.912C437.016 124.408 436.408 126.392 435.192 127.864C431.928 131.896 428.664 134.84 425.4 136.696C422.2 138.552 418.776 139.48 415.128 139.48C409.688 139.48 405.464 137.88 402.456 134.68C399.448 131.416 397.944 127.064 397.944 121.624C397.944 118.232 398.712 112.76 400.248 105.208L403.8 87.64C405.592 78.808 406.616 72.76 406.872 69.496C402.648 69.304 397.656 69.208 391.896 69.208C388.44 69.208 385.944 69.24 384.408 69.304C382.104 80.952 379.928 92.76 377.88 104.728C377.176 109.08 376.44 114.136 375.672 119.896C374.904 125.592 374.392 130.2 374.136 133.72C374.008 135.576 373.24 137.016 371.832 138.04C370.424 139 368.728 139.48 366.744 139.48C364.632 139.48 363 138.968 361.848 137.944C360.696 136.92 360.12 135.576 360.12 133.912C360.12 132.376 360.344 129.848 360.792 126.328C361.304 122.744 361.88 119 362.52 115.096C363.224 111.192 363.768 107.8 364.152 104.92C364.984 99.608 365.88 94.424 366.84 89.368C367.8 84.312 368.76 79.448 369.72 74.776L370.68 70.168C364.728 70.872 360.408 72.024 357.72 73.624C355.096 75.224 353.784 77.4 353.784 80.152C353.784 82.392 354.328 84.344 355.416 86.008C355.736 86.456 355.896 87.032 355.896 87.736C355.896 89.016 355.192 90.2 353.784 91.288C352.44 92.312 351 92.824 349.464 92.824C348.376 92.824 347.48 92.504 346.776 91.864C345.496 90.776 344.44 89.24 343.608 87.256C342.776 85.208 342.36 82.904 342.36 80.344C342.36 74.904 344.248 70.552 348.024 67.288C351.8 63.96 357.496 61.528 365.112 59.992C372.792 58.456 382.68 57.688 394.776 57.688C407.32 57.688 419.608 58.648 431.64 60.568C433.624 60.888 435.032 61.56 435.864 62.584C436.76 63.544 437.208 64.664 437.208 65.944C437.208 67.864 436.728 69.336 435.768 70.36C434.808 71.32 433.368 71.8 431.448 71.8C430.744 71.8 430.2 71.768 429.816 71.704L420.12 70.456C419.864 74.936 419.192 79.544 418.104 84.28L412.248 111.736C411.608 114.936 411.288 117.688 411.288 119.992C411.288 122.68 411.896 124.696 413.112 126.04C414.392 127.384 416.152 128.056 418.392 128.056C420.504 128.056 422.552 127.352 424.536 125.944C426.584 124.536 428.984 122.2 431.736 118.936C432.504 118.04 433.368 117.592 434.328 117.592ZM480.466 117.592C481.298 117.592 481.938 117.976 482.386 118.744C482.898 119.512 483.154 120.568 483.154 121.912C483.154 124.472 482.546 126.456 481.33 127.864C478.578 131.256 475.602 134.04 472.402 136.216C469.266 138.392 465.682 139.48 461.65 139.48C458.258 139.48 455.506 138.264 453.394 135.832C449.746 138.2 445.938 139.416 441.97 139.48C441.138 151.832 439.25 162.136 436.306 170.392C433.362 178.712 429.042 182.872 423.346 182.872C419.89 182.872 417.33 181.624 415.666 179.128C414.002 176.632 413.17 173.176 413.17 168.76C413.17 162.488 414.61 155.16 417.49 146.776C420.37 138.456 424.818 129.272 430.834 119.224C430.834 109.88 430.77 103.384 430.642 99.736C430.578 97.88 431.314 96.408 432.85 95.32C434.386 94.232 436.306 93.688 438.61 93.688C439.954 93.688 440.914 93.976 441.49 94.552C442.13 95.064 442.482 96.12 442.546 97.72C442.546 99.32 442.578 100.504 442.642 101.272C444.69 98.712 446.706 96.888 448.69 95.8C450.674 94.648 452.786 94.072 455.026 94.072C458.61 94.072 461.522 95.512 463.762 98.392C466.066 101.272 467.218 105.048 467.218 109.72C467.218 113.112 466.674 116.408 465.586 119.608C464.498 122.808 462.994 125.72 461.074 128.344C462.418 128.728 463.538 128.92 464.434 128.92C466.546 128.92 468.562 128.152 470.482 126.616C472.402 125.08 474.866 122.52 477.874 118.936C478.642 118.04 479.506 117.592 480.466 117.592ZM442.45 130.264C444.754 129.752 446.866 128.504 448.786 126.52C450.77 124.472 452.338 121.976 453.49 119.032C454.642 116.024 455.218 112.888 455.218 109.624C455.218 107.704 454.834 106.264 454.066 105.304C453.298 104.28 452.274 103.768 450.994 103.768C448.69 103.768 445.906 106.2 442.642 111.064C442.578 113.88 442.546 118.008 442.546 123.448C442.546 126.392 442.514 128.664 442.45 130.264ZM424.114 173.464C425.842 173.464 427.282 169.688 428.434 162.136C429.586 154.648 430.322 145.304 430.642 134.104C427.89 140.504 425.714 146.616 424.114 152.44C422.514 158.264 421.714 163.16 421.714 167.128C421.714 169.176 421.97 170.744 422.482 171.832C422.93 172.92 423.474 173.464 424.114 173.464ZM485.213 139.48C482.333 139.48 479.965 138.168 478.109 135.544C476.317 132.856 475.421 129.528 475.421 125.56C475.421 120.76 475.741 116.376 476.381 112.408C477.021 108.376 478.077 104.12 479.549 99.64C480.189 97.72 481.085 96.344 482.237 95.512C483.389 94.68 485.213 94.264 487.709 94.264C489.117 94.264 490.077 94.488 490.589 94.936C491.165 95.384 491.453 96.056 491.453 96.952C491.453 97.464 491.101 99.192 490.397 102.136C489.757 104.504 489.245 106.648 488.861 108.568C487.581 115.288 486.941 119.768 486.941 122.008C486.941 123.352 487.101 124.312 487.421 124.888C487.741 125.4 488.253 125.656 488.957 125.656C489.917 125.656 491.101 124.696 492.509 122.776C493.981 120.856 495.517 117.944 497.117 114.04C498.781 110.136 500.381 105.336 501.917 99.64C502.429 97.72 503.197 96.344 504.221 95.512C505.309 94.68 506.909 94.264 509.021 94.264C510.493 94.264 511.517 94.456 512.093 94.84C512.669 95.16 512.957 95.8 512.957 96.76C512.957 98.36 512.157 102.744 510.557 109.912C508.765 118.104 507.869 123.16 507.869 125.08C507.869 126.296 508.125 127.256 508.637 127.96C509.149 128.6 509.821 128.92 510.653 128.92C511.933 128.92 513.437 128.152 515.165 126.616C516.957 125.016 519.325 122.456 522.269 118.936C523.037 118.04 523.901 117.592 524.861 117.592C525.693 117.592 526.333 117.976 526.781 118.744C527.293 119.512 527.549 120.568 527.549 121.912C527.549 124.472 526.941 126.456 525.725 127.864C522.973 131.256 519.997 134.04 516.797 136.216C513.661 138.392 510.077 139.48 506.045 139.48C502.973 139.48 500.701 138.296 499.229 135.928C497.821 133.56 497.117 130.232 497.117 125.944C496.029 130.296 494.397 133.656 492.221 136.024C490.045 138.328 487.709 139.48 485.213 139.48ZM534.305 93.4C539.105 93.4 542.721 94.264 545.153 95.992C547.649 97.656 548.897 100.088 548.897 103.288C548.897 106.04 548.321 108.344 547.169 110.2C546.017 112.056 544.641 113.528 543.041 114.616C541.441 115.704 539.361 116.888 536.801 118.168C534.049 119.576 532.033 120.792 530.753 121.816C529.473 122.84 528.833 124.216 528.833 125.944C528.833 127.352 529.345 128.344 530.369 128.92C531.393 129.496 533.185 129.784 535.745 129.784C539.521 129.784 543.265 128.856 546.977 127C550.753 125.08 554.081 122.392 556.961 118.936C557.665 118.04 558.529 117.592 559.553 117.592C560.385 117.592 561.025 117.976 561.473 118.744C561.985 119.512 562.241 120.568 562.241 121.912C562.241 124.28 561.633 126.264 560.417 127.864C557.345 131.96 553.601 135.096 549.185 137.272C544.769 139.384 539.873 140.44 534.497 140.44C528.865 140.44 524.513 139.48 521.441 137.56C518.369 135.576 516.833 132.408 516.833 128.056C516.833 125.304 517.409 122.968 518.561 121.048C519.777 119.064 521.217 117.464 522.881 116.248C524.609 114.968 526.753 113.656 529.313 112.312C531.937 110.904 533.857 109.688 535.073 108.664C536.289 107.576 536.897 106.296 536.897 104.824C536.897 103.992 536.545 103.352 535.841 102.904C535.137 102.392 534.113 102.136 532.769 102.136C531.553 102.136 530.465 102.328 529.505 102.712C528.545 103.032 527.489 103.512 526.337 104.152C525.697 104.472 525.025 104.792 524.321 105.112C523.681 105.368 523.073 105.496 522.497 105.496C521.281 105.496 520.321 105.112 519.617 104.344C518.977 103.512 518.657 102.456 518.657 101.176C518.657 99.448 519.457 97.976 521.057 96.76C522.337 95.8 524.225 95 526.721 94.36C529.217 93.72 531.745 93.4 534.305 93.4ZM610.998 117.592C611.83 117.592 612.47 117.976 612.918 118.744C613.43 119.512 613.686 120.568 613.686 121.912C613.686 124.472 613.078 126.456 611.862 127.864C609.75 130.36 607.894 132.376 606.294 133.912C604.758 135.384 602.838 136.696 600.534 137.848C598.294 138.936 595.734 139.48 592.854 139.48C589.078 139.48 586.39 138.008 584.79 135.064C583.19 132.056 582.39 127.544 582.39 121.528C582.39 118.52 582.518 115.608 582.774 112.792H582.582C580.022 121.304 576.854 127.864 573.078 132.472C569.366 137.08 565.11 139.384 560.31 139.384C557.046 139.384 554.486 138.2 552.63 135.832C550.774 133.464 549.846 130.488 549.846 126.904C549.846 123.704 550.582 121.112 552.054 119.128C553.526 117.144 555.606 116.152 558.294 116.152C559.51 116.152 560.406 116.408 560.982 116.92C561.622 117.432 561.878 118.136 561.75 119.032C561.238 122.104 560.982 124.216 560.982 125.368C560.982 127.672 561.558 128.824 562.71 128.824C563.35 128.824 564.054 128.344 564.822 127.384C565.654 126.424 567.03 124.088 568.95 120.376C570.422 117.56 571.926 114.392 573.462 110.872C575.062 107.352 576.374 104.216 577.398 101.464C578.422 98.776 579.606 96.952 580.95 95.992C582.294 94.968 584.214 94.456 586.71 94.456C589.142 94.456 590.934 94.936 592.086 95.896C593.238 96.856 593.814 98.424 593.814 100.6L593.622 107.704C593.366 113.08 593.238 116.952 593.238 119.32C593.238 126.04 594.614 129.4 597.366 129.4C598.518 129.4 599.638 128.856 600.726 127.768C601.878 126.68 603.638 124.696 606.006 121.816L608.406 118.936C609.174 118.04 610.038 117.592 610.998 117.592ZM617.916 139.48C613.948 139.48 610.78 138.04 608.412 135.16C606.044 132.28 604.86 128.504 604.86 123.832C604.86 118.712 606.044 113.88 608.412 109.336C610.78 104.728 613.916 101.048 617.82 98.296C621.788 95.48 625.98 94.072 630.396 94.072C631.804 94.072 632.732 94.36 633.18 94.936C633.692 95.448 634.108 96.408 634.428 97.816C635.772 97.56 637.18 97.432 638.652 97.432C641.788 97.432 643.356 98.552 643.356 100.792C643.356 102.136 642.876 105.336 641.916 110.392C640.444 117.752 639.708 122.872 639.708 125.752C639.708 126.712 639.932 127.48 640.38 128.056C640.892 128.632 641.532 128.92 642.3 128.92C643.516 128.92 644.988 128.152 646.716 126.616C648.444 125.016 650.78 122.456 653.724 118.936C654.492 118.04 655.356 117.592 656.316 117.592C657.148 117.592 657.788 117.976 658.236 118.744C658.748 119.512 659.004 120.568 659.004 121.912C659.004 124.472 658.396 126.456 657.18 127.864C654.556 131.128 651.772 133.88 648.828 136.12C645.884 138.36 643.036 139.48 640.284 139.48C638.172 139.48 636.22 138.776 634.428 137.368C632.7 135.896 631.388 133.912 630.492 131.416C627.164 136.792 622.972 139.48 617.916 139.48ZM621.372 129.784C622.78 129.784 624.124 128.952 625.404 127.288C626.684 125.624 627.612 123.416 628.188 120.664L631.74 103C629.052 103.064 626.556 104.088 624.252 106.072C622.012 107.992 620.22 110.552 618.876 113.752C617.532 116.952 616.86 120.344 616.86 123.928C616.86 125.912 617.244 127.384 618.012 128.344C618.844 129.304 619.964 129.784 621.372 129.784ZM722.818 117.592C723.65 117.592 724.29 117.976 724.738 118.744C725.25 119.512 725.506 120.568 725.506 121.912C725.506 124.472 724.898 126.456 723.682 127.864C720.738 131.256 717.698 134.04 714.562 136.216C711.49 138.392 707.97 139.48 704.002 139.48C700.93 139.48 698.658 138.296 697.186 135.928C695.714 133.496 695.01 130.168 695.074 125.944C693.986 130.296 692.354 133.656 690.178 136.024C688.002 138.328 685.666 139.48 683.17 139.48C677.346 139.48 674.434 136.024 674.434 129.112C674.434 127.896 674.53 126.616 674.722 125.272C672.802 129.88 670.754 133.4 668.578 135.832C666.402 138.264 663.874 139.48 660.994 139.48C658.114 139.48 655.746 138.168 653.89 135.544C652.098 132.856 651.202 129.528 651.202 125.56C651.202 120.76 651.522 116.376 652.162 112.408C652.802 108.376 653.858 104.12 655.33 99.64C655.97 97.72 656.866 96.344 658.018 95.512C659.17 94.68 660.994 94.264 663.49 94.264C664.898 94.264 665.858 94.488 666.37 94.936C666.946 95.384 667.234 96.056 667.234 96.952C667.234 97.464 666.882 99.192 666.178 102.136C665.538 104.504 665.026 106.648 664.642 108.568C663.362 115.288 662.722 119.768 662.722 122.008C662.722 123.352 662.882 124.312 663.202 124.888C663.522 125.4 664.034 125.656 664.738 125.656C666.85 125.656 668.898 123.288 670.882 118.552C672.93 113.752 675.138 107.448 677.506 99.64C678.082 97.72 678.754 96.44 679.522 95.8C680.29 95.096 681.698 94.744 683.746 94.744C685.41 94.744 686.562 95.032 687.202 95.608C687.842 96.12 688.162 97.048 688.162 98.392C688.162 99.672 687.714 102.776 686.818 107.704C685.538 115.128 684.898 119.896 684.898 122.008C684.898 123.352 685.058 124.312 685.378 124.888C685.698 125.4 686.21 125.656 686.914 125.656C687.874 125.656 689.058 124.696 690.466 122.776C691.938 120.856 693.474 117.944 695.074 114.04C696.738 110.136 698.338 105.336 699.874 99.64C700.386 97.72 701.154 96.344 702.178 95.512C703.266 94.68 704.866 94.264 706.978 94.264C708.45 94.264 709.474 94.456 710.05 94.84C710.626 95.16 710.914 95.8 710.914 96.76C710.914 98.36 710.114 102.744 708.514 109.912C706.722 118.104 705.826 123.16 705.826 125.08C705.826 126.296 706.082 127.256 706.594 127.96C707.106 128.6 707.778 128.92 708.61 128.92C709.89 128.92 711.394 128.152 713.122 126.616C714.914 125.016 717.282 122.456 720.226 118.936C720.994 118.04 721.858 117.592 722.818 117.592ZM760.58 117.592C761.412 117.592 762.052 117.976 762.5 118.744C763.012 119.512 763.268 120.568 763.268 121.912C763.268 124.472 762.66 126.456 761.444 127.864C759.076 130.744 755.716 133.4 751.364 135.832C747.076 138.264 742.468 139.48 737.54 139.48C730.82 139.48 725.604 137.656 721.892 134.008C718.18 130.36 716.324 125.368 716.324 119.032C716.324 114.616 717.252 110.52 719.108 106.744C720.964 102.904 723.524 99.864 726.788 97.624C730.116 95.384 733.86 94.264 738.02 94.264C741.732 94.264 744.708 95.384 746.948 97.624C749.188 99.8 750.308 102.776 750.308 106.552C750.308 110.968 748.708 114.776 745.508 117.976C742.372 121.112 737.028 123.608 729.476 125.464C731.076 128.408 734.116 129.88 738.596 129.88C741.476 129.88 744.74 128.888 748.388 126.904C752.1 124.856 755.3 122.2 757.988 118.936C758.756 118.04 759.62 117.592 760.58 117.592ZM736.388 103.672C734.02 103.672 732.004 105.048 730.34 107.8C728.74 110.552 727.94 113.88 727.94 117.784V117.976C731.716 117.08 734.692 115.736 736.868 113.944C739.044 112.152 740.132 110.072 740.132 107.704C740.132 106.488 739.78 105.528 739.076 104.824C738.436 104.056 737.54 103.672 736.388 103.672ZM806.14 117.592C806.972 117.592 807.612 117.976 808.06 118.744C808.572 119.512 808.828 120.568 808.828 121.912C808.828 124.472 808.22 126.456 807.004 127.864C804.06 131.256 801.02 134.04 797.884 136.216C794.812 138.392 791.292 139.48 787.324 139.48C783.996 139.48 781.66 138.456 780.316 136.408C778.972 134.36 778.3 131.288 778.3 127.192C778.3 125.464 778.46 123.384 778.78 120.952C773.148 120.952 769.244 120.888 767.068 120.76C766.94 122.552 766.876 123.8 766.876 124.504V126.52C766.812 130.488 766.716 133.272 766.588 134.872C766.46 136.472 766.076 137.656 765.436 138.424C764.796 139.128 763.74 139.48 762.268 139.48C759.836 139.48 758.108 138.2 757.084 135.64C756.124 133.08 755.644 128.984 755.644 123.352C755.644 115.032 756.828 107.128 759.196 99.64C759.772 97.784 760.7 96.44 761.98 95.608C763.26 94.712 765.116 94.264 767.548 94.264C768.828 94.264 769.724 94.424 770.236 94.744C770.748 95.064 771.004 95.672 771.004 96.568C771.004 97.592 770.524 99.896 769.564 103.48C769.052 105.592 768.572 108.152 768.124 111.16H780.412C781.052 108.152 781.98 104.312 783.196 99.64C783.708 97.72 784.476 96.344 785.5 95.512C786.588 94.68 788.188 94.264 790.3 94.264C791.772 94.264 792.796 94.456 793.372 94.84C793.948 95.16 794.236 95.8 794.236 96.76C794.236 98.36 793.436 102.744 791.836 109.912C790.044 118.104 789.148 123.16 789.148 125.08C789.148 126.296 789.404 127.256 789.916 127.96C790.428 128.6 791.1 128.92 791.932 128.92C793.212 128.92 794.716 128.152 796.444 126.616C798.236 125.016 800.604 122.456 803.548 118.936C804.316 118.04 805.18 117.592 806.14 117.592ZM810.806 139.48C807.926 139.48 805.558 138.168 803.702 135.544C801.91 132.856 801.014 129.528 801.014 125.56C801.014 120.76 801.334 116.376 801.974 112.408C802.614 108.376 803.67 104.12 805.142 99.64C805.782 97.72 806.678 96.344 807.83 95.512C808.982 94.68 810.806 94.264 813.302 94.264C814.71 94.264 815.67 94.488 816.182 94.936C816.758 95.384 817.046 96.056 817.046 96.952C817.046 97.464 816.694 99.192 815.99 102.136C815.35 104.504 814.838 106.648 814.454 108.568C813.174 115.288 812.534 119.768 812.534 122.008C812.534 123.352 812.694 124.312 813.014 124.888C813.334 125.4 813.846 125.656 814.55 125.656C815.51 125.656 816.694 124.696 818.102 122.776C819.574 120.856 821.11 117.944 822.71 114.04C824.374 110.136 825.974 105.336 827.51 99.64C828.022 97.72 828.79 96.344 829.814 95.512C830.902 94.68 832.502 94.264 834.614 94.264C836.086 94.264 837.11 94.456 837.686 94.84C838.262 95.16 838.55 95.8 838.55 96.76C838.55 98.36 837.75 102.744 836.15 109.912C834.358 118.104 833.462 123.16 833.462 125.08C833.462 126.296 833.718 127.256 834.23 127.96C834.742 128.6 835.414 128.92 836.246 128.92C837.526 128.92 839.03 128.152 840.758 126.616C842.55 125.016 844.918 122.456 847.862 118.936C848.63 118.04 849.494 117.592 850.454 117.592C851.286 117.592 851.926 117.976 852.374 118.744C852.886 119.512 853.142 120.568 853.142 121.912C853.142 124.472 852.534 126.456 851.318 127.864C848.566 131.256 845.59 134.04 842.39 136.216C839.254 138.392 835.67 139.48 831.638 139.48C828.566 139.48 826.294 138.296 824.822 135.928C823.414 133.56 822.71 130.232 822.71 125.944C821.622 130.296 819.99 133.656 817.814 136.024C815.638 138.328 813.302 139.48 810.806 139.48ZM888.174 117.592C889.006 117.592 889.646 117.976 890.094 118.744C890.606 119.512 890.862 120.568 890.862 121.912C890.862 124.472 890.254 126.456 889.038 127.864C886.67 130.744 883.31 133.4 878.958 135.832C874.67 138.264 870.062 139.48 865.134 139.48C858.414 139.48 853.198 137.656 849.486 134.008C845.774 130.36 843.918 125.368 843.918 119.032C843.918 114.616 844.846 110.52 846.702 106.744C848.558 102.904 851.118 99.864 854.382 97.624C857.71 95.384 861.454 94.264 865.614 94.264C869.326 94.264 872.302 95.384 874.542 97.624C876.782 99.8 877.902 102.776 877.902 106.552C877.902 110.968 876.302 114.776 873.102 117.976C869.966 121.112 864.622 123.608 857.07 125.464C858.67 128.408 861.71 129.88 866.19 129.88C869.07 129.88 872.334 128.888 875.982 126.904C879.694 124.856 882.894 122.2 885.582 118.936C886.35 118.04 887.214 117.592 888.174 117.592ZM863.982 103.672C861.614 103.672 859.598 105.048 857.934 107.8C856.334 110.552 855.534 113.88 855.534 117.784V117.976C859.31 117.08 862.286 115.736 864.462 113.944C866.638 112.152 867.726 110.072 867.726 107.704C867.726 106.488 867.374 105.528 866.67 104.824C866.03 104.056 865.134 103.672 863.982 103.672ZM959.14 117.592C959.972 117.592 960.612 117.976 961.06 118.744C961.572 119.512 961.828 120.568 961.828 121.912C961.828 124.472 961.22 126.456 960.004 127.864C957.06 131.256 954.02 134.04 950.884 136.216C947.812 138.392 944.292 139.48 940.324 139.48C936.996 139.48 934.66 138.456 933.316 136.408C931.972 134.36 931.3 131.288 931.3 127.192C931.3 125.464 931.46 123.384 931.78 120.952C926.148 120.952 922.244 120.888 920.068 120.76C919.94 122.552 919.876 123.8 919.876 124.504V126.52C919.812 130.488 919.716 133.272 919.588 134.872C919.46 136.472 919.076 137.656 918.436 138.424C917.796 139.128 916.74 139.48 915.268 139.48C912.836 139.48 911.108 138.2 910.084 135.64C909.124 133.08 908.644 128.984 908.644 123.352C908.644 115.032 909.828 107.128 912.196 99.64C912.772 97.784 913.7 96.44 914.98 95.608C916.26 94.712 918.116 94.264 920.548 94.264C921.828 94.264 922.724 94.424 923.236 94.744C923.748 95.064 924.004 95.672 924.004 96.568C924.004 97.592 923.524 99.896 922.564 103.48C922.052 105.592 921.572 108.152 921.124 111.16H933.412C934.052 108.152 934.98 104.312 936.196 99.64C936.708 97.72 937.476 96.344 938.5 95.512C939.588 94.68 941.188 94.264 943.3 94.264C944.772 94.264 945.796 94.456 946.372 94.84C946.948 95.16 947.236 95.8 947.236 96.76C947.236 98.36 946.436 102.744 944.836 109.912C943.044 118.104 942.148 123.16 942.148 125.08C942.148 126.296 942.404 127.256 942.916 127.96C943.428 128.6 944.1 128.92 944.932 128.92C946.212 128.92 947.716 128.152 949.444 126.616C951.236 125.016 953.604 122.456 956.548 118.936C957.316 118.04 958.18 117.592 959.14 117.592ZM965.822 139.48C961.854 139.48 958.686 138.04 956.318 135.16C953.95 132.28 952.766 128.504 952.766 123.832C952.766 118.712 953.95 113.88 956.318 109.336C958.686 104.728 961.822 101.048 965.726 98.296C969.694 95.48 973.886 94.072 978.302 94.072C979.71 94.072 980.638 94.36 981.086 94.936C981.598 95.448 982.014 96.408 982.334 97.816C983.678 97.56 985.086 97.432 986.558 97.432C989.694 97.432 991.262 98.552 991.262 100.792C991.262 102.136 990.782 105.336 989.822 110.392C988.35 117.752 987.614 122.872 987.614 125.752C987.614 126.712 987.838 127.48 988.286 128.056C988.798 128.632 989.438 128.92 990.206 128.92C991.422 128.92 992.894 128.152 994.622 126.616C996.35 125.016 998.686 122.456 1001.63 118.936C1002.4 118.04 1003.26 117.592 1004.22 117.592C1005.05 117.592 1005.69 117.976 1006.14 118.744C1006.65 119.512 1006.91 120.568 1006.91 121.912C1006.91 124.472 1006.3 126.456 1005.09 127.864C1002.46 131.128 999.678 133.88 996.734 136.12C993.79 138.36 990.942 139.48 988.19 139.48C986.078 139.48 984.126 138.776 982.334 137.368C980.606 135.896 979.294 133.912 978.398 131.416C975.07 136.792 970.878 139.48 965.822 139.48ZM969.278 129.784C970.686 129.784 972.03 128.952 973.31 127.288C974.59 125.624 975.518 123.416 976.094 120.664L979.646 103C976.958 103.064 974.462 104.088 972.158 106.072C969.918 107.992 968.126 110.552 966.782 113.752C965.438 116.952 964.766 120.344 964.766 123.928C964.766 125.912 965.15 127.384 965.918 128.344C966.75 129.304 967.87 129.784 969.278 129.784Z" fill="#B65E5E"/>
</g>
<g filter="url(#filter1_d_64_10)">
<mask id="path-3-outside-1_64_10" maskUnits="userSpaceOnUse" x="101" y="162" width="228" height="299" fill="black">
<rect fill="white" x="101" y="162" width="228" height="299"/>
<path d="M272 307.5C304.667 324.167 321 346.5 321 374.5C321 391.167 316.167 405.833 306.5 418.5C297.167 431.167 283.833 441 266.5 448C249.167 455 229 458.5 206 458.5C173.667 458.5 148.333 452.167 130 439.5C112 426.833 103 409.167 103 386.5C103 372.167 107.333 359 116 347C124.667 335 138.667 323.833 158 313.5C146 305.5 136.833 296 130.5 285C124.5 273.667 121.5 261.833 121.5 249.5C121.5 222.833 131.5 202 151.5 187C171.5 171.667 198.667 164 233 164C261.333 164 284 170.167 301 182.5C318.333 194.833 327 211.5 327 232.5C327 247.833 322.667 261.667 314 274C305.333 286 291.333 297.167 272 307.5ZM229 212.5C215 212.5 203.833 215.5 195.5 221.5C187.167 227.167 183 235.5 183 246.5C183 261.5 195.667 274.833 221 286.5C238 278.167 249.833 270.333 256.5 263C263.5 255.667 267 248 267 240C267 221.667 254.333 212.5 229 212.5ZM208.5 410C224.167 410 236.5 407.333 245.5 402C254.5 396.667 259 389.333 259 380C259 372.667 255 365.667 247 359C239.333 352.333 225 344.333 204 335C188.667 342 178 349.167 172 356.5C166 363.833 163 371.833 163 380.5C163 389.833 167 397.167 175 402.5C183.333 407.5 194.5 410 208.5 410Z"/>
</mask>
<path d="M272 307.5C304.667 324.167 321 346.5 321 374.5C321 391.167 316.167 405.833 306.5 418.5C297.167 431.167 283.833 441 266.5 448C249.167 455 229 458.5 206 458.5C173.667 458.5 148.333 452.167 130 439.5C112 426.833 103 409.167 103 386.5C103 372.167 107.333 359 116 347C124.667 335 138.667 323.833 158 313.5C146 305.5 136.833 296 130.5 285C124.5 273.667 121.5 261.833 121.5 249.5C121.5 222.833 131.5 202 151.5 187C171.5 171.667 198.667 164 233 164C261.333 164 284 170.167 301 182.5C318.333 194.833 327 211.5 327 232.5C327 247.833 322.667 261.667 314 274C305.333 286 291.333 297.167 272 307.5ZM229 212.5C215 212.5 203.833 215.5 195.5 221.5C187.167 227.167 183 235.5 183 246.5C183 261.5 195.667 274.833 221 286.5C238 278.167 249.833 270.333 256.5 263C263.5 255.667 267 248 267 240C267 221.667 254.333 212.5 229 212.5ZM208.5 410C224.167 410 236.5 407.333 245.5 402C254.5 396.667 259 389.333 259 380C259 372.667 255 365.667 247 359C239.333 352.333 225 344.333 204 335C188.667 342 178 349.167 172 356.5C166 363.833 163 371.833 163 380.5C163 389.833 167 397.167 175 402.5C183.333 407.5 194.5 410 208.5 410Z" fill="#FFFDF4"/>
<path d="M272 307.5L271.057 305.736L267.68 307.541L271.091 309.282L272 307.5ZM306.5 418.5L304.91 417.287L304.9 417.3L304.89 417.314L306.5 418.5ZM266.5 448L265.751 446.146L265.751 446.146L266.5 448ZM130 439.5L128.849 441.136L128.856 441.141L128.863 441.145L130 439.5ZM116 347L114.379 345.829L114.379 345.829L116 347ZM158 313.5L158.943 315.264L161.889 313.689L159.109 311.836L158 313.5ZM130.5 285L128.732 285.936L128.749 285.967L128.767 285.998L130.5 285ZM151.5 187L152.7 188.6L152.708 188.594L152.717 188.587L151.5 187ZM301 182.5L299.826 184.119L299.833 184.124L299.84 184.13L301 182.5ZM314 274L315.621 275.171L315.629 275.16L315.636 275.15L314 274ZM195.5 221.5L196.625 223.154L196.647 223.139L196.669 223.123L195.5 221.5ZM221 286.5L220.163 288.317L221.027 288.714L221.88 288.296L221 286.5ZM256.5 263L255.053 261.619L255.036 261.637L255.02 261.655L256.5 263ZM245.5 402L246.52 403.721L246.52 403.721L245.5 402ZM247 359L245.688 360.509L245.703 360.523L245.72 360.536L247 359ZM204 335L204.812 333.172L203.989 332.806L203.169 333.181L204 335ZM172 356.5L170.452 355.234L170.452 355.234L172 356.5ZM175 402.5L173.891 404.164L173.93 404.19L173.971 404.215L175 402.5ZM271.091 309.282C303.331 325.731 319 347.491 319 374.5H323C323 345.509 306.002 322.603 272.909 305.718L271.091 309.282ZM319 374.5C319 390.75 314.298 404.985 304.91 417.287L308.09 419.713C318.035 406.681 323 391.584 323 374.5H319ZM304.89 417.314C295.815 429.63 282.806 439.258 265.751 446.146L267.249 449.854C284.86 442.742 298.519 432.703 308.11 419.686L304.89 417.314ZM265.751 446.146C248.704 453.03 228.801 456.5 206 456.5V460.5C229.199 460.5 249.63 456.97 267.249 449.854L265.751 446.146ZM206 456.5C173.898 456.5 149.016 450.208 131.137 437.855L128.863 441.145C147.65 454.126 173.435 460.5 206 460.5V456.5ZM131.151 437.864C113.702 425.585 105 408.539 105 386.5H101C101 409.794 110.298 428.081 128.849 441.136L131.151 437.864ZM105 386.5C105 372.602 109.192 359.842 117.621 348.171L114.379 345.829C105.474 358.158 101 371.732 101 386.5H105ZM117.621 348.171C126.045 336.507 139.759 325.517 158.943 315.264L157.057 311.736C137.574 322.15 123.288 333.493 114.379 345.829L117.621 348.171ZM159.109 311.836C147.331 303.983 138.393 294.701 132.233 284.002L128.767 285.998C135.274 297.299 144.669 307.017 156.891 315.164L159.109 311.836ZM132.268 284.064C126.414 273.007 123.5 261.494 123.5 249.5H119.5C119.5 262.173 122.586 274.326 128.732 285.936L132.268 284.064ZM123.5 249.5C123.5 223.414 133.241 203.194 152.7 188.6L150.3 185.4C129.759 200.806 119.5 222.253 119.5 249.5H123.5ZM152.717 188.587C172.26 173.604 198.949 166 233 166V162C198.384 162 170.74 169.73 150.283 185.413L152.717 188.587ZM233 166C261.057 166 283.268 172.107 299.826 184.119L302.174 180.881C284.732 168.227 261.61 162 233 162V166ZM299.84 184.13C316.655 196.093 325 212.157 325 232.5H329C329 210.843 320.012 193.573 302.16 180.87L299.84 184.13ZM325 232.5C325 247.429 320.789 260.86 312.364 272.85L315.636 275.15C324.544 262.474 329 248.237 329 232.5H325ZM312.379 272.829C303.955 284.493 290.241 295.483 271.057 305.736L272.943 309.264C292.426 298.85 306.712 287.507 315.621 275.171L312.379 272.829ZM229 210.5C214.73 210.5 203.109 213.557 194.331 219.877L196.669 223.123C204.558 217.443 215.27 214.5 229 214.5V210.5ZM194.375 219.846C185.438 225.924 181 234.909 181 246.5H185C185 236.091 188.895 228.41 196.625 223.154L194.375 219.846ZM181 246.5C181 262.79 194.746 276.611 220.163 288.317L221.837 284.683C196.588 273.056 185 260.21 185 246.5H181ZM221.88 288.296C238.939 279.934 251.052 271.966 257.98 264.345L255.02 261.655C248.615 268.7 237.061 276.399 220.12 284.704L221.88 288.296ZM257.947 264.381C265.203 256.779 269 248.642 269 240H265C265 247.358 261.797 254.554 255.053 261.619L257.947 264.381ZM269 240C269 230.318 265.62 222.783 258.673 217.755C251.845 212.814 241.848 210.5 229 210.5V214.5C241.485 214.5 250.488 216.77 256.327 220.995C262.047 225.134 265 231.349 265 240H269ZM208.5 412C224.36 412 237.094 409.306 246.52 403.721L244.48 400.279C235.906 405.361 223.974 408 208.5 408V412ZM246.52 403.721C256.039 398.079 261 390.137 261 380H257C257 388.53 252.961 395.254 244.48 400.279L246.52 403.721ZM261 380C261 371.855 256.537 364.344 248.28 357.464L245.72 360.536C253.463 366.989 257 373.478 257 380H261ZM248.312 357.491C240.401 350.611 225.824 342.511 204.812 333.172L203.188 336.828C224.176 346.156 238.266 354.056 245.688 360.509L248.312 357.491ZM203.169 333.181C187.742 340.223 176.743 347.545 170.452 355.234L173.548 357.766C179.257 350.788 189.591 343.777 204.831 336.819L203.169 333.181ZM170.452 355.234C164.189 362.889 161 371.328 161 380.5H165C165 372.339 167.811 364.778 173.548 357.766L170.452 355.234ZM161 380.5C161 390.526 165.354 398.473 173.891 404.164L176.109 400.836C168.646 395.86 165 389.141 165 380.5H161ZM173.971 404.215C182.723 409.466 194.288 412 208.5 412V408C194.712 408 183.944 405.534 176.029 400.785L173.971 404.215Z" fill="#B65E5E" mask="url(#path-3-outside-1_64_10)"/>
</g>
<g filter="url(#filter2_d_64_10)">
<mask id="path-5-outside-2_64_10" maskUnits="userSpaceOnUse" x="334" y="242" width="859" height="331" fill="black">
<rect fill="white" x="334" y="242" width="859" height="331"/>
<path d="M642.5 400.25C644.667 400.25 646.333 401.25 647.5 403.25C648.833 405.25 649.5 408 649.5 411.5C649.5 418 647.917 423.167 644.75 427C636.083 437.667 627.583 445.417 619.25 450.25C610.917 454.917 601.917 457.25 592.25 457.25C577.583 457.25 566.417 450 558.75 435.5C551.25 420.833 547.5 399.667 547.5 372C547.5 353 549.417 330.333 553.25 304H552.75C536.083 349.833 520.083 397 504.75 445.5C503.083 450.667 501 454.25 498.5 456.25C496 458.25 492.417 459.25 487.75 459.25C479.75 459.25 474.583 455.25 472.25 447.25C468.083 433.917 464.833 418 462.5 399.5C460.167 380.833 459 362 459 343C459 332 459.333 322.417 460 314.25H459.5C453 347.583 447.083 373.667 441.75 392.5C436.583 411.167 429.083 426.75 419.25 439.25C409.417 451.75 396.5 458 380.5 458C371.833 458 364.083 456.167 357.25 452.5C350.583 448.667 345.417 443.583 341.75 437.25C338.083 430.917 336.25 424.083 336.25 416.75C336.25 411.583 337.583 407.5 340.25 404.5C342.917 401.333 346.667 399.75 351.5 399.75C358 399.75 362 402.917 363.5 409.25C365 415.417 367.417 420.167 370.75 423.5C374.25 426.667 378.5 428.25 383.5 428.25C389.833 428.25 395.917 422.833 401.75 412C407.75 401.167 413.917 383.75 420.25 359.75C426.75 335.75 433.75 303.917 441.25 264.25C442.583 256.917 445.333 251.75 449.5 248.75C453.667 245.583 459.833 244 468 244C481.667 244 488 251.25 487 265.75C486.167 279.917 485.75 292.75 485.75 304.25C485.75 331.25 487.75 362.917 491.75 399.25H492.25C496.583 380.75 503.333 359.083 512.5 334.25C521.667 309.417 531.417 286 541.75 264C544.417 258.167 546.75 253.917 548.75 251.25C550.75 248.583 553 246.75 555.5 245.75C558 244.583 561.5 244 566 244C573 244 578.333 245.75 582 249.25C585.833 252.583 587.417 257.417 586.75 263.75C582.583 305.75 580.5 338.5 580.5 362C580.5 382.5 582.083 398.583 585.25 410.25C588.417 421.75 593.667 427.5 601 427.5C606.5 427.5 611.75 425.833 616.75 422.5C621.917 419 628.25 412.75 635.75 403.75C637.583 401.417 639.833 400.25 642.5 400.25ZM659.953 457.25C649.62 457.25 641.37 453.5 635.203 446C629.036 438.5 625.953 428.667 625.953 416.5C625.953 403.167 629.036 390.583 635.203 378.75C641.37 366.75 649.536 357.167 659.703 350C670.036 342.667 680.953 339 692.453 339C696.12 339 698.536 339.75 699.703 341.25C701.036 342.583 702.12 345.083 702.953 348.75C706.453 348.083 710.12 347.75 713.953 347.75C722.12 347.75 726.203 350.667 726.203 356.5C726.203 360 724.953 368.333 722.453 381.5C718.62 400.667 716.703 414 716.703 421.5C716.703 424 717.286 426 718.453 427.5C719.786 429 721.453 429.75 723.453 429.75C726.62 429.75 730.453 427.75 734.953 423.75C739.453 419.583 745.536 412.917 753.203 403.75C755.203 401.417 757.453 400.25 759.953 400.25C762.12 400.25 763.786 401.25 764.953 403.25C766.286 405.25 766.953 408 766.953 411.5C766.953 418.167 765.37 423.333 762.203 427C755.37 435.5 748.12 442.667 740.453 448.5C732.786 454.333 725.37 457.25 718.203 457.25C712.703 457.25 707.62 455.417 702.953 451.75C698.453 447.917 695.036 442.75 692.703 436.25C684.036 450.25 673.12 457.25 659.953 457.25ZM668.953 432C672.62 432 676.12 429.833 679.453 425.5C682.786 421.167 685.203 415.417 686.703 408.25L695.953 362.25C688.953 362.417 682.453 365.083 676.453 370.25C670.62 375.25 665.953 381.917 662.453 390.25C658.953 398.583 657.203 407.417 657.203 416.75C657.203 421.917 658.203 425.75 660.203 428.25C662.37 430.75 665.286 432 668.953 432ZM880.135 400.25C882.301 400.25 883.968 401.25 885.135 403.25C886.468 405.25 887.135 408 887.135 411.5C887.135 418.167 885.551 423.333 882.385 427C875.218 435.833 867.468 443.083 859.135 448.75C850.968 454.417 841.635 457.25 831.135 457.25C822.301 457.25 815.135 454.083 809.635 447.75C800.135 453.917 790.218 457.083 779.885 457.25C777.718 489.417 772.801 516.25 765.135 537.75C757.468 559.417 746.218 570.25 731.385 570.25C722.385 570.25 715.718 567 711.385 560.5C707.051 554 704.885 545 704.885 533.5C704.885 517.167 708.635 498.083 716.135 476.25C723.635 454.583 735.218 430.667 750.885 404.5C750.885 380.167 750.718 363.25 750.385 353.75C750.218 348.917 752.135 345.083 756.135 342.25C760.135 339.417 765.135 338 771.135 338C774.635 338 777.135 338.75 778.635 340.25C780.301 341.583 781.218 344.333 781.385 348.5C781.385 352.667 781.468 355.75 781.635 357.75C786.968 351.083 792.218 346.333 797.385 343.5C802.551 340.5 808.051 339 813.885 339C823.218 339 830.801 342.75 836.635 350.25C842.635 357.75 845.635 367.583 845.635 379.75C845.635 388.583 844.218 397.167 841.385 405.5C838.551 413.833 834.635 421.417 829.635 428.25C833.135 429.25 836.051 429.75 838.385 429.75C843.885 429.75 849.135 427.75 854.135 423.75C859.135 419.75 865.551 413.083 873.385 403.75C875.385 401.417 877.635 400.25 880.135 400.25ZM781.135 433.25C787.135 431.917 792.635 428.667 797.635 423.5C802.801 418.167 806.885 411.667 809.885 404C812.885 396.167 814.385 388 814.385 379.5C814.385 374.5 813.385 370.75 811.385 368.25C809.385 365.583 806.718 364.25 803.385 364.25C797.385 364.25 790.135 370.583 781.635 383.25C781.468 390.583 781.385 401.333 781.385 415.5C781.385 423.167 781.301 429.083 781.135 433.25ZM733.385 545.75C737.885 545.75 741.635 535.917 744.635 516.25C747.635 496.75 749.551 472.417 750.385 443.25C743.218 459.917 737.551 475.833 733.385 491C729.218 506.167 727.135 518.917 727.135 529.25C727.135 534.583 727.801 538.667 729.135 541.5C730.301 544.333 731.718 545.75 733.385 545.75ZM884.746 457.25C878.413 457.25 873.913 453.917 871.246 447.25C868.746 440.583 867.496 429.917 867.496 415.25C867.496 393.583 870.579 373 876.746 353.5C878.246 348.667 880.663 345.167 883.996 343C887.496 340.667 892.329 339.5 898.496 339.5C901.829 339.5 904.163 339.917 905.496 340.75C906.829 341.583 907.496 343.167 907.496 345.5C907.496 348.167 906.246 354.167 903.746 363.5C902.079 370.167 900.746 376 899.746 381C898.746 385.833 897.913 391.917 897.246 399.25C901.746 386.25 907.079 375.25 913.246 366.25C919.579 357.25 925.996 350.583 932.496 346.25C939.163 341.75 945.413 339.5 951.246 339.5C957.079 339.5 961.163 340.833 963.496 343.5C965.996 346.167 967.246 350.25 967.246 355.75C967.246 361.083 965.663 370.75 962.496 384.75C961.163 390.75 960.246 395.25 959.746 398.25C968.079 377.75 977.329 362.833 987.496 353.5C997.663 344.167 1007.16 339.5 1016 339.5C1026.83 339.5 1032.25 344.917 1032.25 355.75C1032.25 362.25 1030.41 374 1026.75 391C1023.58 405.5 1022 415.083 1022 419.75C1022 426.417 1024.41 429.75 1029.25 429.75C1032.58 429.75 1036.5 427.75 1041 423.75C1045.66 419.583 1051.83 412.917 1059.5 403.75C1061.5 401.417 1063.75 400.25 1066.25 400.25C1068.41 400.25 1070.08 401.25 1071.25 403.25C1072.58 405.25 1073.25 408 1073.25 411.5C1073.25 418.167 1071.66 423.333 1068.5 427C1061.33 435.833 1053.58 443.083 1045.25 448.75C1037.08 454.417 1027.75 457.25 1017.25 457.25C1008.75 457.25 1002.33 454.833 997.996 450C993.663 445 991.496 437.833 991.496 428.5C991.496 423.833 992.663 415.5 994.996 403.5C997.163 393 998.246 385.75 998.246 381.75C998.246 379.083 997.329 377.75 995.496 377.75C993.329 377.75 990.246 380.583 986.246 386.25C982.246 391.75 978.246 399.083 974.246 408.25C970.246 417.417 966.996 427.083 964.496 437.25C962.663 445.25 960.496 450.583 957.996 453.25C955.663 455.917 951.829 457.25 946.496 457.25C940.996 457.25 936.829 454.667 933.996 449.5C931.329 444.167 929.996 437.75 929.996 430.25C929.996 423.917 930.829 414.75 932.496 402.75C933.829 392.083 934.496 385.083 934.496 381.75C934.496 379.083 933.579 377.75 931.746 377.75C929.246 377.75 926.079 380.75 922.246 386.75C918.413 392.75 914.663 400.417 910.996 409.75C907.496 419.083 904.663 428.25 902.496 437.25C900.663 445.083 898.496 450.417 895.996 453.25C893.663 455.917 889.913 457.25 884.746 457.25ZM1083.78 457.25C1073.45 457.25 1065.2 453.5 1059.03 446C1052.86 438.5 1049.78 428.667 1049.78 416.5C1049.78 403.167 1052.86 390.583 1059.03 378.75C1065.2 366.75 1073.36 357.167 1083.53 350C1093.86 342.667 1104.78 339 1116.28 339C1119.95 339 1122.36 339.75 1123.53 341.25C1124.86 342.583 1125.95 345.083 1126.78 348.75C1130.28 348.083 1133.95 347.75 1137.78 347.75C1145.95 347.75 1150.03 350.667 1150.03 356.5C1150.03 360 1148.78 368.333 1146.28 381.5C1142.45 400.667 1140.53 414 1140.53 421.5C1140.53 424 1141.11 426 1142.28 427.5C1143.61 429 1145.28 429.75 1147.28 429.75C1150.45 429.75 1154.28 427.75 1158.78 423.75C1163.28 419.583 1169.36 412.917 1177.03 403.75C1179.03 401.417 1181.28 400.25 1183.78 400.25C1185.95 400.25 1187.61 401.25 1188.78 403.25C1190.11 405.25 1190.78 408 1190.78 411.5C1190.78 418.167 1189.2 423.333 1186.03 427C1179.2 435.5 1171.95 442.667 1164.28 448.5C1156.61 454.333 1149.2 457.25 1142.03 457.25C1136.53 457.25 1131.45 455.417 1126.78 451.75C1122.28 447.917 1118.86 442.75 1116.53 436.25C1107.86 450.25 1096.95 457.25 1083.78 457.25ZM1092.78 432C1096.45 432 1099.95 429.833 1103.28 425.5C1106.61 421.167 1109.03 415.417 1110.53 408.25L1119.78 362.25C1112.78 362.417 1106.28 365.083 1100.28 370.25C1094.45 375.25 1089.78 381.917 1086.28 390.25C1082.78 398.583 1081.03 407.417 1081.03 416.75C1081.03 421.917 1082.03 425.75 1084.03 428.25C1086.2 430.75 1089.11 432 1092.78 432Z"/>
</mask>
<path d="M642.5 400.25C644.667 400.25 646.333 401.25 647.5 403.25C648.833 405.25 649.5 408 649.5 411.5C649.5 418 647.917 423.167 644.75 427C636.083 437.667 627.583 445.417 619.25 450.25C610.917 454.917 601.917 457.25 592.25 457.25C577.583 457.25 566.417 450 558.75 435.5C551.25 420.833 547.5 399.667 547.5 372C547.5 353 549.417 330.333 553.25 304H552.75C536.083 349.833 520.083 397 504.75 445.5C503.083 450.667 501 454.25 498.5 456.25C496 458.25 492.417 459.25 487.75 459.25C479.75 459.25 474.583 455.25 472.25 447.25C468.083 433.917 464.833 418 462.5 399.5C460.167 380.833 459 362 459 343C459 332 459.333 322.417 460 314.25H459.5C453 347.583 447.083 373.667 441.75 392.5C436.583 411.167 429.083 426.75 419.25 439.25C409.417 451.75 396.5 458 380.5 458C371.833 458 364.083 456.167 357.25 452.5C350.583 448.667 345.417 443.583 341.75 437.25C338.083 430.917 336.25 424.083 336.25 416.75C336.25 411.583 337.583 407.5 340.25 404.5C342.917 401.333 346.667 399.75 351.5 399.75C358 399.75 362 402.917 363.5 409.25C365 415.417 367.417 420.167 370.75 423.5C374.25 426.667 378.5 428.25 383.5 428.25C389.833 428.25 395.917 422.833 401.75 412C407.75 401.167 413.917 383.75 420.25 359.75C426.75 335.75 433.75 303.917 441.25 264.25C442.583 256.917 445.333 251.75 449.5 248.75C453.667 245.583 459.833 244 468 244C481.667 244 488 251.25 487 265.75C486.167 279.917 485.75 292.75 485.75 304.25C485.75 331.25 487.75 362.917 491.75 399.25H492.25C496.583 380.75 503.333 359.083 512.5 334.25C521.667 309.417 531.417 286 541.75 264C544.417 258.167 546.75 253.917 548.75 251.25C550.75 248.583 553 246.75 555.5 245.75C558 244.583 561.5 244 566 244C573 244 578.333 245.75 582 249.25C585.833 252.583 587.417 257.417 586.75 263.75C582.583 305.75 580.5 338.5 580.5 362C580.5 382.5 582.083 398.583 585.25 410.25C588.417 421.75 593.667 427.5 601 427.5C606.5 427.5 611.75 425.833 616.75 422.5C621.917 419 628.25 412.75 635.75 403.75C637.583 401.417 639.833 400.25 642.5 400.25ZM659.953 457.25C649.62 457.25 641.37 453.5 635.203 446C629.036 438.5 625.953 428.667 625.953 416.5C625.953 403.167 629.036 390.583 635.203 378.75C641.37 366.75 649.536 357.167 659.703 350C670.036 342.667 680.953 339 692.453 339C696.12 339 698.536 339.75 699.703 341.25C701.036 342.583 702.12 345.083 702.953 348.75C706.453 348.083 710.12 347.75 713.953 347.75C722.12 347.75 726.203 350.667 726.203 356.5C726.203 360 724.953 368.333 722.453 381.5C718.62 400.667 716.703 414 716.703 421.5C716.703 424 717.286 426 718.453 427.5C719.786 429 721.453 429.75 723.453 429.75C726.62 429.75 730.453 427.75 734.953 423.75C739.453 419.583 745.536 412.917 753.203 403.75C755.203 401.417 757.453 400.25 759.953 400.25C762.12 400.25 763.786 401.25 764.953 403.25C766.286 405.25 766.953 408 766.953 411.5C766.953 418.167 765.37 423.333 762.203 427C755.37 435.5 748.12 442.667 740.453 448.5C732.786 454.333 725.37 457.25 718.203 457.25C712.703 457.25 707.62 455.417 702.953 451.75C698.453 447.917 695.036 442.75 692.703 436.25C684.036 450.25 673.12 457.25 659.953 457.25ZM668.953 432C672.62 432 676.12 429.833 679.453 425.5C682.786 421.167 685.203 415.417 686.703 408.25L695.953 362.25C688.953 362.417 682.453 365.083 676.453 370.25C670.62 375.25 665.953 381.917 662.453 390.25C658.953 398.583 657.203 407.417 657.203 416.75C657.203 421.917 658.203 425.75 660.203 428.25C662.37 430.75 665.286 432 668.953 432ZM880.135 400.25C882.301 400.25 883.968 401.25 885.135 403.25C886.468 405.25 887.135 408 887.135 411.5C887.135 418.167 885.551 423.333 882.385 427C875.218 435.833 867.468 443.083 859.135 448.75C850.968 454.417 841.635 457.25 831.135 457.25C822.301 457.25 815.135 454.083 809.635 447.75C800.135 453.917 790.218 457.083 779.885 457.25C777.718 489.417 772.801 516.25 765.135 537.75C757.468 559.417 746.218 570.25 731.385 570.25C722.385 570.25 715.718 567 711.385 560.5C707.051 554 704.885 545 704.885 533.5C704.885 517.167 708.635 498.083 716.135 476.25C723.635 454.583 735.218 430.667 750.885 404.5C750.885 380.167 750.718 363.25 750.385 353.75C750.218 348.917 752.135 345.083 756.135 342.25C760.135 339.417 765.135 338 771.135 338C774.635 338 777.135 338.75 778.635 340.25C780.301 341.583 781.218 344.333 781.385 348.5C781.385 352.667 781.468 355.75 781.635 357.75C786.968 351.083 792.218 346.333 797.385 343.5C802.551 340.5 808.051 339 813.885 339C823.218 339 830.801 342.75 836.635 350.25C842.635 357.75 845.635 367.583 845.635 379.75C845.635 388.583 844.218 397.167 841.385 405.5C838.551 413.833 834.635 421.417 829.635 428.25C833.135 429.25 836.051 429.75 838.385 429.75C843.885 429.75 849.135 427.75 854.135 423.75C859.135 419.75 865.551 413.083 873.385 403.75C875.385 401.417 877.635 400.25 880.135 400.25ZM781.135 433.25C787.135 431.917 792.635 428.667 797.635 423.5C802.801 418.167 806.885 411.667 809.885 404C812.885 396.167 814.385 388 814.385 379.5C814.385 374.5 813.385 370.75 811.385 368.25C809.385 365.583 806.718 364.25 803.385 364.25C797.385 364.25 790.135 370.583 781.635 383.25C781.468 390.583 781.385 401.333 781.385 415.5C781.385 423.167 781.301 429.083 781.135 433.25ZM733.385 545.75C737.885 545.75 741.635 535.917 744.635 516.25C747.635 496.75 749.551 472.417 750.385 443.25C743.218 459.917 737.551 475.833 733.385 491C729.218 506.167 727.135 518.917 727.135 529.25C727.135 534.583 727.801 538.667 729.135 541.5C730.301 544.333 731.718 545.75 733.385 545.75ZM884.746 457.25C878.413 457.25 873.913 453.917 871.246 447.25C868.746 440.583 867.496 429.917 867.496 415.25C867.496 393.583 870.579 373 876.746 353.5C878.246 348.667 880.663 345.167 883.996 343C887.496 340.667 892.329 339.5 898.496 339.5C901.829 339.5 904.163 339.917 905.496 340.75C906.829 341.583 907.496 343.167 907.496 345.5C907.496 348.167 906.246 354.167 903.746 363.5C902.079 370.167 900.746 376 899.746 381C898.746 385.833 897.913 391.917 897.246 399.25C901.746 386.25 907.079 375.25 913.246 366.25C919.579 357.25 925.996 350.583 932.496 346.25C939.163 341.75 945.413 339.5 951.246 339.5C957.079 339.5 961.163 340.833 963.496 343.5C965.996 346.167 967.246 350.25 967.246 355.75C967.246 361.083 965.663 370.75 962.496 384.75C961.163 390.75 960.246 395.25 959.746 398.25C968.079 377.75 977.329 362.833 987.496 353.5C997.663 344.167 1007.16 339.5 1016 339.5C1026.83 339.5 1032.25 344.917 1032.25 355.75C1032.25 362.25 1030.41 374 1026.75 391C1023.58 405.5 1022 415.083 1022 419.75C1022 426.417 1024.41 429.75 1029.25 429.75C1032.58 429.75 1036.5 427.75 1041 423.75C1045.66 419.583 1051.83 412.917 1059.5 403.75C1061.5 401.417 1063.75 400.25 1066.25 400.25C1068.41 400.25 1070.08 401.25 1071.25 403.25C1072.58 405.25 1073.25 408 1073.25 411.5C1073.25 418.167 1071.66 423.333 1068.5 427C1061.33 435.833 1053.58 443.083 1045.25 448.75C1037.08 454.417 1027.75 457.25 1017.25 457.25C1008.75 457.25 1002.33 454.833 997.996 450C993.663 445 991.496 437.833 991.496 428.5C991.496 423.833 992.663 415.5 994.996 403.5C997.163 393 998.246 385.75 998.246 381.75C998.246 379.083 997.329 377.75 995.496 377.75C993.329 377.75 990.246 380.583 986.246 386.25C982.246 391.75 978.246 399.083 974.246 408.25C970.246 417.417 966.996 427.083 964.496 437.25C962.663 445.25 960.496 450.583 957.996 453.25C955.663 455.917 951.829 457.25 946.496 457.25C940.996 457.25 936.829 454.667 933.996 449.5C931.329 444.167 929.996 437.75 929.996 430.25C929.996 423.917 930.829 414.75 932.496 402.75C933.829 392.083 934.496 385.083 934.496 381.75C934.496 379.083 933.579 377.75 931.746 377.75C929.246 377.75 926.079 380.75 922.246 386.75C918.413 392.75 914.663 400.417 910.996 409.75C907.496 419.083 904.663 428.25 902.496 437.25C900.663 445.083 898.496 450.417 895.996 453.25C893.663 455.917 889.913 457.25 884.746 457.25ZM1083.78 457.25C1073.45 457.25 1065.2 453.5 1059.03 446C1052.86 438.5 1049.78 428.667 1049.78 416.5C1049.78 403.167 1052.86 390.583 1059.03 378.75C1065.2 366.75 1073.36 357.167 1083.53 350C1093.86 342.667 1104.78 339 1116.28 339C1119.95 339 1122.36 339.75 1123.53 341.25C1124.86 342.583 1125.95 345.083 1126.78 348.75C1130.28 348.083 1133.95 347.75 1137.78 347.75C1145.95 347.75 1150.03 350.667 1150.03 356.5C1150.03 360 1148.78 368.333 1146.28 381.5C1142.45 400.667 1140.53 414 1140.53 421.5C1140.53 424 1141.11 426 1142.28 427.5C1143.61 429 1145.28 429.75 1147.28 429.75C1150.45 429.75 1154.28 427.75 1158.78 423.75C1163.28 419.583 1169.36 412.917 1177.03 403.75C1179.03 401.417 1181.28 400.25 1183.78 400.25C1185.95 400.25 1187.61 401.25 1188.78 403.25C1190.11 405.25 1190.78 408 1190.78 411.5C1190.78 418.167 1189.2 423.333 1186.03 427C1179.2 435.5 1171.95 442.667 1164.28 448.5C1156.61 454.333 1149.2 457.25 1142.03 457.25C1136.53 457.25 1131.45 455.417 1126.78 451.75C1122.28 447.917 1118.86 442.75 1116.53 436.25C1107.86 450.25 1096.95 457.25 1083.78 457.25ZM1092.78 432C1096.45 432 1099.95 429.833 1103.28 425.5C1106.61 421.167 1109.03 415.417 1110.53 408.25L1119.78 362.25C1112.78 362.417 1106.28 365.083 1100.28 370.25C1094.45 375.25 1089.78 381.917 1086.28 390.25C1082.78 398.583 1081.03 407.417 1081.03 416.75C1081.03 421.917 1082.03 425.75 1084.03 428.25C1086.2 430.75 1089.11 432 1092.78 432Z" fill="#FFFDF4"/>
<path d="M647.5 403.25L645.772 404.258L645.803 404.31L645.836 404.359L647.5 403.25ZM644.75 427L643.208 425.726L643.203 425.733L643.198 425.739L644.75 427ZM619.25 450.25L620.227 451.995L620.24 451.988L620.253 451.98L619.25 450.25ZM558.75 435.5L556.969 436.411L556.976 436.423L556.982 436.435L558.75 435.5ZM553.25 304L555.229 304.288L555.562 302H553.25V304ZM552.75 304V302H551.349L550.87 303.317L552.75 304ZM504.75 445.5L506.653 446.114L506.657 446.103L504.75 445.5ZM498.5 456.25L499.749 457.812L499.749 457.812L498.5 456.25ZM472.25 447.25L474.17 446.69L474.165 446.672L474.159 446.653L472.25 447.25ZM462.5 399.5L460.515 399.748L460.516 399.75L462.5 399.5ZM460 314.25L461.993 314.413L462.17 312.25H460V314.25ZM459.5 314.25V312.25H457.852L457.537 313.867L459.5 314.25ZM441.75 392.5L439.826 391.955L439.822 391.966L441.75 392.5ZM419.25 439.25L420.822 440.487L420.822 440.487L419.25 439.25ZM357.25 452.5L356.253 454.234L356.279 454.248L356.304 454.262L357.25 452.5ZM341.75 437.25L340.019 438.252L340.019 438.252L341.75 437.25ZM340.25 404.5L341.745 405.829L341.763 405.809L341.78 405.788L340.25 404.5ZM363.5 409.25L361.554 409.711L361.557 409.723L363.5 409.25ZM370.75 423.5L369.336 424.914L369.371 424.95L369.408 424.983L370.75 423.5ZM401.75 412L400 411.031L399.995 411.041L399.989 411.052L401.75 412ZM420.25 359.75L418.32 359.227L418.316 359.24L420.25 359.75ZM441.25 264.25L443.215 264.622L443.218 264.608L441.25 264.25ZM449.5 248.75L450.669 250.373L450.69 250.358L450.71 250.342L449.5 248.75ZM487 265.75L485.005 265.612L485.004 265.622L485.003 265.633L487 265.75ZM491.75 399.25L489.762 399.469L489.958 401.25H491.75V399.25ZM492.25 399.25V401.25H493.836L494.197 399.706L492.25 399.25ZM512.5 334.25L514.376 334.943L514.376 334.943L512.5 334.25ZM541.75 264L543.56 264.85L543.565 264.841L543.569 264.832L541.75 264ZM548.75 251.25L547.15 250.05L547.15 250.05L548.75 251.25ZM555.5 245.75L556.243 247.607L556.295 247.586L556.346 247.562L555.5 245.75ZM582 249.25L580.619 250.697L580.653 250.729L580.688 250.759L582 249.25ZM586.75 263.75L584.761 263.541L584.76 263.553L586.75 263.75ZM585.25 410.25L583.32 410.774L583.322 410.781L585.25 410.25ZM616.75 422.5L617.859 424.164L617.866 424.16L617.872 424.156L616.75 422.5ZM635.75 403.75L637.286 405.03L637.305 405.008L637.323 404.986L635.75 403.75ZM642.5 402.25C643.898 402.25 644.934 402.821 645.772 404.258L649.228 402.242C647.733 399.679 645.436 398.25 642.5 398.25V402.25ZM645.836 404.359C646.872 405.913 647.5 408.224 647.5 411.5H651.5C651.5 407.776 650.795 404.587 649.164 402.141L645.836 404.359ZM647.5 411.5C647.5 417.68 645.998 422.349 643.208 425.726L646.292 428.274C649.835 423.984 651.5 418.32 651.5 411.5H647.5ZM643.198 425.739C634.624 436.291 626.301 443.848 618.247 448.52L620.253 451.98C628.866 446.985 637.543 439.042 646.302 428.261L643.198 425.739ZM618.273 448.505C610.242 453.002 601.579 455.25 592.25 455.25V459.25C602.255 459.25 611.592 456.831 620.227 451.995L618.273 448.505ZM592.25 455.25C585.262 455.25 579.191 453.528 573.964 450.135C568.726 446.734 564.229 441.583 560.518 434.565L556.982 436.435C560.938 443.917 565.858 449.641 571.786 453.49C577.726 457.347 584.571 459.25 592.25 459.25V455.25ZM560.531 434.589C553.241 420.335 549.5 399.538 549.5 372H545.5C545.5 399.795 549.259 421.332 556.969 436.411L560.531 434.589ZM549.5 372C549.5 353.126 551.405 330.561 555.229 304.288L551.271 303.712C547.429 330.106 545.5 352.874 545.5 372H549.5ZM553.25 302H552.75V306H553.25V302ZM550.87 303.317C534.194 349.178 518.185 396.371 502.843 444.897L506.657 446.103C521.982 397.629 537.973 350.489 554.63 304.683L550.87 303.317ZM502.847 444.886C501.226 449.911 499.298 453.05 497.251 454.688L499.749 457.812C502.702 455.45 504.941 451.422 506.653 446.114L502.847 444.886ZM497.251 454.688C495.236 456.3 492.164 457.25 487.75 457.25V461.25C492.669 461.25 496.764 460.2 499.749 457.812L497.251 454.688ZM487.75 457.25C484.091 457.25 481.259 456.341 479.099 454.669C476.932 452.99 475.251 450.397 474.17 446.69L470.33 447.81C471.582 452.103 473.652 455.51 476.651 457.831C479.657 460.159 483.409 461.25 487.75 461.25V457.25ZM474.159 446.653C470.037 433.463 466.807 417.669 464.484 399.25L460.516 399.75C462.859 418.331 466.13 434.37 470.341 447.847L474.159 446.653ZM464.485 399.252C462.162 380.668 461 361.918 461 343H457C457 362.082 458.172 380.998 460.515 399.748L464.485 399.252ZM461 343C461 332.037 461.332 322.511 461.993 314.413L458.007 314.087C457.334 322.323 457 331.963 457 343H461ZM460 312.25H459.5V316.25H460V312.25ZM457.537 313.867C451.041 347.179 445.137 373.2 439.826 391.955L443.674 393.045C449.03 374.133 454.959 347.987 461.463 314.633L457.537 313.867ZM439.822 391.966C434.712 410.432 427.316 425.762 417.678 438.013L420.822 440.487C430.851 427.738 438.455 411.902 443.678 393.034L439.822 391.966ZM417.678 438.013C408.227 450.028 395.891 456 380.5 456V460C397.109 460 410.607 453.472 420.822 440.487L417.678 438.013ZM380.5 456C372.124 456 364.705 454.231 358.196 450.738L356.304 454.262C363.461 458.103 371.543 460 380.5 460V456ZM358.247 450.766C351.869 447.099 346.962 442.261 343.481 436.248L340.019 438.252C343.871 444.905 349.298 450.235 356.253 454.234L358.247 450.766ZM343.481 436.248C339.991 430.22 338.25 423.732 338.25 416.75H334.25C334.25 424.434 336.176 431.614 340.019 438.252L343.481 436.248ZM338.25 416.75C338.25 411.929 339.488 408.367 341.745 405.829L338.755 403.171C335.678 406.633 334.25 411.238 334.25 416.75H338.25ZM341.78 405.788C344.001 403.151 347.147 401.75 351.5 401.75V397.75C346.186 397.75 341.832 399.516 338.72 403.212L341.78 405.788ZM351.5 401.75C354.425 401.75 356.574 402.458 358.134 403.693C359.693 404.928 360.879 406.86 361.554 409.711L365.446 408.789C364.621 405.307 363.057 402.489 360.616 400.557C358.176 398.625 355.075 397.75 351.5 397.75V401.75ZM361.557 409.723C363.114 416.126 365.668 421.246 369.336 424.914L372.164 422.086C369.165 419.087 366.886 414.707 365.443 408.777L361.557 409.723ZM369.408 424.983C373.299 428.503 378.036 430.25 383.5 430.25V426.25C378.964 426.25 375.201 424.83 372.092 422.017L369.408 424.983ZM383.5 430.25C391.06 430.25 397.649 423.834 403.511 412.948L399.989 411.052C394.184 421.833 388.606 426.25 383.5 426.25V430.25ZM403.5 412.969C409.625 401.91 415.842 384.294 422.184 360.26L418.316 359.24C411.992 383.206 405.875 400.424 400 411.031L403.5 412.969ZM422.18 360.273C428.7 336.202 435.711 304.312 443.215 264.622L439.285 263.878C431.789 303.521 424.8 335.298 418.32 359.227L422.18 360.273ZM443.218 264.608C444.5 257.555 447.079 252.958 450.669 250.373L448.331 247.127C443.588 250.542 440.667 256.279 439.282 263.892L443.218 264.608ZM450.71 250.342C454.382 247.552 460.041 246 468 246V242C459.626 242 452.951 243.615 448.29 247.158L450.71 250.342ZM468 246C474.506 246 478.845 247.721 481.494 250.753C484.167 253.814 485.487 258.626 485.005 265.612L488.995 265.888C489.513 258.374 488.166 252.311 484.506 248.122C480.822 243.904 475.161 242 468 242V246ZM485.003 265.633C484.168 279.83 483.75 292.703 483.75 304.25H487.75C487.75 292.797 488.165 280.004 488.997 265.867L485.003 265.633ZM483.75 304.25C483.75 331.343 485.757 363.086 489.762 399.469L493.738 399.031C489.743 362.747 487.75 331.156 487.75 304.25H483.75ZM491.75 401.25H492.25V397.25H491.75V401.25ZM494.197 399.706C498.506 381.311 505.228 359.726 514.376 334.943L510.624 333.557C501.439 358.44 494.661 380.189 490.303 398.794L494.197 399.706ZM514.376 334.943C523.525 310.158 533.253 286.794 543.56 264.85L539.94 263.15C529.58 285.206 519.808 308.675 510.624 333.557L514.376 334.943ZM543.569 264.832C546.22 259.032 548.482 254.941 550.35 252.45L547.15 250.05C545.018 252.893 542.613 257.301 539.931 263.168L543.569 264.832ZM550.35 252.45C552.182 250.007 554.156 248.442 556.243 247.607L554.757 243.893C551.844 245.058 549.318 247.159 547.15 250.05L550.35 252.45ZM556.346 247.562C558.465 246.573 561.63 246 566 246V242C561.37 242 557.535 242.593 554.654 243.938L556.346 247.562ZM566 246C572.684 246 577.447 247.669 580.619 250.697L583.381 247.803C579.22 243.831 573.316 242 566 242V246ZM580.688 250.759C583.903 253.555 585.379 257.672 584.761 263.541L588.739 263.959C589.455 257.162 587.763 251.611 583.312 247.741L580.688 250.759ZM584.76 263.553C580.591 305.575 578.5 338.402 578.5 362H582.5C582.5 338.598 584.576 305.925 588.74 263.947L584.76 263.553ZM578.5 362C578.5 382.573 580.086 398.859 583.32 410.774L587.18 409.726C584.081 398.308 582.5 382.427 582.5 362H578.5ZM583.322 410.781C584.948 416.688 587.164 421.337 590.086 424.536C593.063 427.797 596.733 429.5 601 429.5V425.5C597.933 425.5 595.312 424.328 593.039 421.839C590.711 419.288 588.718 415.312 587.178 409.719L583.322 410.781ZM601 429.5C606.931 429.5 612.563 427.695 617.859 424.164L615.641 420.836C610.937 423.971 606.069 425.5 601 425.5V429.5ZM617.872 424.156C623.275 420.496 629.752 414.072 637.286 405.03L634.214 402.47C626.748 411.428 620.559 417.504 615.628 420.844L617.872 424.156ZM637.323 404.986C638.826 403.073 640.522 402.25 642.5 402.25V398.25C639.145 398.25 636.341 399.761 634.177 402.514L637.323 404.986ZM635.203 446L636.748 444.73L636.748 444.73L635.203 446ZM635.203 378.75L636.977 379.674L636.982 379.664L635.203 378.75ZM659.703 350L660.855 351.635L660.861 351.631L659.703 350ZM699.703 341.25L698.124 342.478L698.201 342.576L698.289 342.664L699.703 341.25ZM702.953 348.75L701.003 349.193L701.431 351.076L703.327 350.715L702.953 348.75ZM722.453 381.5L724.414 381.892L724.416 381.883L724.418 381.873L722.453 381.5ZM718.453 427.5L716.874 428.728L716.915 428.78L716.958 428.829L718.453 427.5ZM734.953 423.75L736.282 425.245L736.297 425.231L736.312 425.218L734.953 423.75ZM753.203 403.75L751.685 402.448L751.677 402.458L751.669 402.467L753.203 403.75ZM764.953 403.25L763.226 404.258L763.256 404.31L763.289 404.359L764.953 403.25ZM762.203 427L760.689 425.693L760.666 425.719L760.644 425.747L762.203 427ZM740.453 448.5L741.664 450.092L741.664 450.092L740.453 448.5ZM702.953 451.75L701.656 453.272L701.686 453.298L701.717 453.323L702.953 451.75ZM692.703 436.25L694.586 435.574L693.185 431.672L691.003 435.197L692.703 436.25ZM679.453 425.5L677.868 424.281L677.868 424.281L679.453 425.5ZM686.703 408.25L688.661 408.66L688.662 408.652L688.664 408.644L686.703 408.25ZM695.953 362.25L697.914 362.644L698.407 360.191L695.906 360.251L695.953 362.25ZM676.453 370.25L677.755 371.769L677.758 371.766L676.453 370.25ZM662.453 390.25L664.297 391.024L664.297 391.024L662.453 390.25ZM660.203 428.25L658.641 429.499L658.666 429.53L658.692 429.56L660.203 428.25ZM659.953 455.25C650.174 455.25 642.508 451.735 636.748 444.73L633.658 447.27C640.232 455.265 649.066 459.25 659.953 459.25V455.25ZM636.748 444.73C630.944 437.671 627.953 428.324 627.953 416.5H623.953C623.953 429.01 627.129 439.329 633.658 447.27L636.748 444.73ZM627.953 416.5C627.953 403.489 630.959 391.222 636.977 379.674L633.43 377.826C627.114 389.944 623.953 402.845 623.953 416.5H627.953ZM636.982 379.664C643.014 367.927 650.975 358.6 660.855 351.635L658.551 348.365C648.098 355.734 639.726 365.573 633.424 377.836L636.982 379.664ZM660.861 351.631C670.892 344.512 681.41 341 692.453 341V337C680.496 337 669.181 340.821 658.546 348.369L660.861 351.631ZM692.453 341C696.03 341 697.572 341.768 698.124 342.478L701.282 340.022C699.501 337.732 696.21 337 692.453 337V341ZM698.289 342.664C699.199 343.575 700.185 345.593 701.003 349.193L704.903 348.307C704.055 344.573 702.874 341.592 701.117 339.836L698.289 342.664ZM703.327 350.715C706.695 350.073 710.236 349.75 713.953 349.75V345.75C710.004 345.75 706.211 346.093 702.579 346.785L703.327 350.715ZM713.953 349.75C717.859 349.75 720.429 350.458 721.978 351.565C723.403 352.583 724.203 354.109 724.203 356.5H728.203C728.203 353.058 726.961 350.209 724.303 348.31C721.769 346.5 718.214 345.75 713.953 345.75V349.75ZM724.203 356.5C724.203 359.771 723 367.896 720.488 381.127L724.418 381.873C726.906 368.771 728.203 360.229 728.203 356.5H724.203ZM720.492 381.108C716.661 400.262 714.703 413.777 714.703 421.5H718.703C718.703 414.223 720.578 401.071 724.414 381.892L720.492 381.108ZM714.703 421.5C714.703 424.304 715.359 426.78 716.874 428.728L720.032 426.272C719.214 425.22 718.703 423.696 718.703 421.5H714.703ZM716.958 428.829C718.67 430.754 720.88 431.75 723.453 431.75V427.75C722.027 427.75 720.903 427.246 719.948 426.171L716.958 428.829ZM723.453 431.75C727.392 431.75 731.705 429.314 736.282 425.245L733.624 422.255C729.202 426.186 725.847 427.75 723.453 427.75V431.75ZM736.312 425.218C740.908 420.962 747.057 414.216 754.737 405.033L751.669 402.467C744.016 411.617 737.998 418.205 733.594 422.282L736.312 425.218ZM754.722 405.052C756.437 403.051 758.169 402.25 759.953 402.25V398.25C756.738 398.25 753.97 399.783 751.685 402.448L754.722 405.052ZM759.953 402.25C761.351 402.25 762.387 402.821 763.226 404.258L766.681 402.242C765.186 399.679 762.889 398.25 759.953 398.25V402.25ZM763.289 404.359C764.325 405.913 764.953 408.224 764.953 411.5H768.953C768.953 407.776 768.248 404.587 766.617 402.141L763.289 404.359ZM764.953 411.5C764.953 417.867 763.442 422.506 760.689 425.693L763.717 428.307C767.298 424.161 768.953 418.466 768.953 411.5H764.953ZM760.644 425.747C753.9 434.137 746.764 441.185 739.242 446.908L741.664 450.092C749.476 444.148 756.84 436.863 763.762 428.253L760.644 425.747ZM739.242 446.908C731.805 452.567 724.803 455.25 718.203 455.25V459.25C725.936 459.25 733.768 456.099 741.664 450.092L739.242 446.908ZM718.203 455.25C713.188 455.25 708.533 453.591 704.189 450.177L701.717 453.323C706.707 457.243 712.219 459.25 718.203 459.25V455.25ZM704.25 450.228C700.057 446.656 696.821 441.802 694.586 435.574L690.821 436.926C693.252 443.698 696.849 449.177 701.656 453.272L704.25 450.228ZM691.003 435.197C682.596 448.778 672.249 455.25 659.953 455.25V459.25C673.991 459.25 685.477 451.722 694.404 437.303L691.003 435.197ZM668.953 434C673.5 434 677.519 431.295 681.038 426.719L677.868 424.281C674.721 428.372 671.74 430 668.953 430V434ZM681.038 426.719C684.606 422.081 687.119 416.026 688.661 408.66L684.746 407.84C683.287 414.808 680.967 420.252 677.868 424.281L681.038 426.719ZM688.664 408.644L697.914 362.644L693.992 361.856L684.742 407.856L688.664 408.644ZM695.906 360.251C688.383 360.43 681.45 363.308 675.148 368.734L677.758 371.766C683.456 366.859 689.523 364.404 696.001 364.249L695.906 360.251ZM675.152 368.731C669.044 373.967 664.208 380.906 660.609 389.476L664.297 391.024C667.698 382.928 672.196 376.533 677.755 371.769L675.152 368.731ZM660.609 389.476C657.003 398.062 655.203 407.16 655.203 416.75H659.203C659.203 407.674 660.903 399.105 664.297 391.024L660.609 389.476ZM655.203 416.75C655.203 422.112 656.23 426.485 658.641 429.499L661.765 427.001C660.177 425.015 659.203 421.722 659.203 416.75H655.203ZM658.692 429.56C661.282 432.549 664.777 434 668.953 434V430C665.796 430 663.457 428.951 661.715 426.94L658.692 429.56ZM885.135 403.25L883.407 404.258L883.437 404.31L883.471 404.359L885.135 403.25ZM882.385 427L880.871 425.693L880.851 425.716L880.832 425.74L882.385 427ZM859.135 448.75L858.01 447.096L858.002 447.101L857.995 447.107L859.135 448.75ZM809.635 447.75L811.145 446.439L810.005 445.126L808.546 446.072L809.635 447.75ZM779.885 457.25L779.853 455.25L778.013 455.28L777.889 457.116L779.885 457.25ZM765.135 537.75L763.251 537.078L763.249 537.083L765.135 537.75ZM716.135 476.25L714.245 475.596L714.243 475.6L716.135 476.25ZM750.885 404.5L752.601 405.527L752.885 405.053V404.5H750.885ZM750.385 353.75L748.386 353.819L748.386 353.82L750.385 353.75ZM756.135 342.25L757.291 343.882L757.291 343.882L756.135 342.25ZM778.635 340.25L777.221 341.664L777.299 341.743L777.385 341.812L778.635 340.25ZM781.385 348.5H783.385V348.46L783.383 348.42L781.385 348.5ZM781.635 357.75L779.642 357.916L780.059 362.922L783.197 358.999L781.635 357.75ZM797.385 343.5L798.346 345.254L798.368 345.242L798.389 345.23L797.385 343.5ZM836.635 350.25L835.056 351.478L835.064 351.489L835.073 351.499L836.635 350.25ZM841.385 405.5L839.491 404.856L839.491 404.856L841.385 405.5ZM829.635 428.25L828.021 427.069L826.326 429.385L829.085 430.173L829.635 428.25ZM873.385 403.75L871.866 402.448L871.859 402.456L871.853 402.464L873.385 403.75ZM781.135 433.25L779.136 433.17L779.033 435.766L781.569 435.202L781.135 433.25ZM797.635 423.5L796.198 422.108L796.198 422.109L797.635 423.5ZM809.885 404L811.747 404.729L811.75 404.722L811.752 404.715L809.885 404ZM811.385 368.25L809.785 369.45L809.804 369.475L809.823 369.499L811.385 368.25ZM781.635 383.25L779.974 382.136L779.649 382.621L779.635 383.205L781.635 383.25ZM744.635 516.25L742.658 515.946L742.658 515.948L744.635 516.25ZM750.385 443.25L752.384 443.307L748.547 442.46L750.385 443.25ZM733.385 491L731.456 490.47L731.456 490.47L733.385 491ZM729.135 541.5L730.984 540.739L730.965 540.693L730.944 540.648L729.135 541.5ZM880.135 402.25C881.532 402.25 882.569 402.821 883.407 404.258L886.862 402.242C885.367 399.679 883.07 398.25 880.135 398.25V402.25ZM883.471 404.359C884.506 405.913 885.135 408.224 885.135 411.5H889.135C889.135 407.776 888.43 404.587 886.799 402.141L883.471 404.359ZM885.135 411.5C885.135 417.867 883.623 422.506 880.871 425.693L883.898 428.307C887.479 424.161 889.135 418.466 889.135 411.5H885.135ZM880.832 425.74C873.772 434.441 866.163 441.552 858.01 447.096L860.259 450.404C868.773 444.614 876.664 437.226 883.938 428.26L880.832 425.74ZM857.995 447.107C850.182 452.528 841.252 455.25 831.135 455.25V459.25C842.018 459.25 851.754 456.306 860.275 450.393L857.995 447.107ZM831.135 455.25C822.846 455.25 816.243 452.309 811.145 446.439L808.125 449.061C814.027 455.858 821.757 459.25 831.135 459.25V455.25ZM808.546 446.072C799.33 452.055 789.775 455.09 779.853 455.25L779.917 459.25C790.661 459.076 800.94 455.778 810.724 449.428L808.546 446.072ZM777.889 457.116C775.73 489.168 770.836 515.806 763.251 537.078L767.019 538.422C774.767 516.694 779.706 489.665 781.88 457.384L777.889 457.116ZM763.249 537.083C755.684 558.464 744.932 568.25 731.385 568.25V572.25C747.505 572.25 759.253 560.369 767.02 538.417L763.249 537.083ZM731.385 568.25C722.935 568.25 716.95 565.242 713.049 559.391L709.721 561.609C714.486 568.758 721.834 572.25 731.385 572.25V568.25ZM713.049 559.391C709.015 553.34 706.885 544.781 706.885 533.5H702.885C702.885 545.219 705.088 554.66 709.721 561.609L713.049 559.391ZM706.885 533.5C706.885 517.458 710.571 498.603 718.026 476.9L714.243 475.6C706.699 497.563 702.885 516.875 702.885 533.5H706.885ZM718.025 476.904C725.468 455.402 736.983 431.612 752.601 405.527L749.169 403.473C733.453 429.721 721.802 453.765 714.245 475.596L718.025 476.904ZM752.885 404.5C752.885 380.168 752.718 363.219 752.384 353.68L748.386 353.82C748.718 363.281 748.885 380.165 748.885 404.5H752.885ZM752.384 353.681C752.24 349.531 753.831 346.333 757.291 343.882L754.979 340.618C750.438 343.834 748.196 348.302 748.386 353.819L752.384 353.681ZM757.291 343.882C760.883 341.337 765.455 340 771.135 340V336C764.815 336 759.386 337.496 754.979 340.618L757.291 343.882ZM771.135 340C774.432 340 776.277 340.72 777.221 341.664L780.049 338.836C777.993 336.78 774.838 336 771.135 336V340ZM777.385 341.812C778.319 342.559 779.223 344.497 779.386 348.58L783.383 348.42C783.213 344.17 782.283 340.608 779.884 338.688L777.385 341.812ZM779.385 348.5C779.385 352.676 779.468 355.829 779.642 357.916L783.628 357.584C783.468 355.671 783.385 352.657 783.385 348.5H779.385ZM783.197 358.999C788.433 352.454 793.49 347.917 798.346 345.254L796.423 341.746C790.946 344.75 785.503 349.713 780.073 356.501L783.197 358.999ZM798.389 345.23C803.258 342.402 808.413 341 813.885 341V337C807.69 337 801.844 338.598 796.38 341.77L798.389 345.23ZM813.885 341C822.588 341 829.594 344.455 835.056 351.478L838.213 349.022C832.009 341.045 823.848 337 813.885 337V341ZM835.073 351.499C840.721 358.559 843.635 367.914 843.635 379.75H847.635C847.635 367.253 844.549 356.941 838.197 349.001L835.073 351.499ZM843.635 379.75C843.635 388.365 842.254 396.731 839.491 404.856L843.278 406.144C846.182 397.602 847.635 388.802 847.635 379.75H843.635ZM839.491 404.856C836.721 413.005 832.896 420.406 828.021 427.069L831.249 429.431C836.373 422.427 840.382 414.662 843.278 406.144L839.491 404.856ZM829.085 430.173C832.676 431.199 835.792 431.75 838.385 431.75V427.75C836.311 427.75 833.593 427.301 830.184 426.327L829.085 430.173ZM838.385 431.75C844.411 431.75 850.09 429.547 855.384 425.312L852.885 422.188C848.179 425.953 843.358 427.75 838.385 427.75V431.75ZM855.384 425.312C860.542 421.186 867.06 414.397 874.917 405.036L871.853 402.464C864.043 411.77 857.728 418.314 852.885 422.188L855.384 425.312ZM874.903 405.052C876.618 403.051 878.35 402.25 880.135 402.25V398.25C876.919 398.25 874.151 399.783 871.866 402.448L874.903 405.052ZM781.569 435.202C788.012 433.77 793.847 430.29 799.072 424.891L796.198 422.109C791.423 427.043 786.257 430.063 780.701 431.298L781.569 435.202ZM799.071 424.892C804.442 419.348 808.661 412.616 811.747 404.729L808.022 403.271C805.108 410.718 801.161 416.985 796.198 422.108L799.071 424.892ZM811.752 404.715C814.841 396.651 816.385 388.241 816.385 379.5H812.385C812.385 387.759 810.928 395.683 808.017 403.285L811.752 404.715ZM816.385 379.5C816.385 374.286 815.351 370.006 812.947 367.001L809.823 369.499C811.419 371.494 812.385 374.714 812.385 379.5H816.385ZM812.985 367.05C810.607 363.88 807.348 362.25 803.385 362.25V366.25C806.089 366.25 808.162 367.287 809.785 369.45L812.985 367.05ZM803.385 362.25C799.682 362.25 795.913 364.19 792.131 367.494C788.321 370.822 784.272 375.731 779.974 382.136L783.295 384.364C787.498 378.102 791.323 373.511 794.763 370.506C798.231 367.476 801.087 366.25 803.385 366.25V362.25ZM779.635 383.205C779.468 390.561 779.385 401.329 779.385 415.5H783.385C783.385 401.337 783.468 390.606 783.634 383.295L779.635 383.205ZM779.385 415.5C779.385 423.158 779.301 429.043 779.136 433.17L783.133 433.33C783.301 429.123 783.385 423.175 783.385 415.5H779.385ZM733.385 547.75C735.32 547.75 736.908 546.674 738.151 545.192C739.388 543.717 740.468 541.639 741.441 539.088C743.393 533.968 745.106 526.425 746.612 516.552L742.658 515.948C741.164 525.742 739.501 532.948 737.704 537.662C736.801 540.028 735.913 541.637 735.087 542.621C734.268 543.597 733.699 543.75 733.385 543.75V547.75ZM746.612 516.554C749.628 496.944 751.549 472.521 752.384 443.307L748.386 443.193C747.554 472.312 745.641 496.556 742.658 515.946L746.612 516.554ZM748.547 442.46C741.35 459.199 735.651 475.203 731.456 490.47L735.313 491.53C739.452 476.464 745.086 460.635 752.222 444.04L748.547 442.46ZM731.456 490.47C727.264 505.73 725.135 518.67 725.135 529.25H729.135C729.135 519.163 731.172 506.604 735.313 491.53L731.456 490.47ZM725.135 529.25C725.135 534.699 725.808 539.127 727.325 542.352L730.944 540.648C729.795 538.206 729.135 534.468 729.135 529.25H725.135ZM727.285 542.262C728.489 545.184 730.376 547.75 733.385 547.75V543.75C733.06 543.75 732.114 543.483 730.984 540.739L727.285 542.262ZM871.246 447.25L869.373 447.952L869.381 447.973L869.389 447.993L871.246 447.25ZM876.746 353.5L878.653 354.103L878.656 354.093L876.746 353.5ZM883.996 343L885.086 344.677L885.096 344.671L885.105 344.664L883.996 343ZM903.746 363.5L901.814 362.983L901.81 362.999L901.806 363.015L903.746 363.5ZM899.746 381L901.705 381.405L901.707 381.392L899.746 381ZM897.246 399.25L895.254 399.069L899.136 399.904L897.246 399.25ZM913.246 366.25L911.61 365.099L911.603 365.109L911.596 365.12L913.246 366.25ZM932.496 346.25L933.606 347.914L933.615 347.908L932.496 346.25ZM963.496 343.5L961.991 344.817L962.014 344.843L962.037 344.868L963.496 343.5ZM962.496 384.75L960.545 384.309L960.544 384.316L962.496 384.75ZM959.746 398.25L957.773 397.921L961.599 399.003L959.746 398.25ZM987.496 353.5L986.144 352.027L986.144 352.027L987.496 353.5ZM1026.75 391L1028.7 391.427L1028.7 391.422L1026.75 391ZM1041 423.75L1042.32 425.245L1042.33 425.242L1041 423.75ZM1059.5 403.75L1057.98 402.448L1057.97 402.458L1057.96 402.467L1059.5 403.75ZM1071.25 403.25L1069.52 404.258L1069.55 404.31L1069.58 404.359L1071.25 403.25ZM1068.5 427L1066.98 425.693L1066.96 425.716L1066.94 425.74L1068.5 427ZM1045.25 448.75L1044.12 447.096L1044.11 447.101L1044.11 447.107L1045.25 448.75ZM997.996 450L996.485 451.31L996.496 451.323L996.507 451.335L997.996 450ZM994.996 403.5L993.037 403.096L993.035 403.107L993.033 403.118L994.996 403.5ZM986.246 386.25L987.864 387.426L987.872 387.415L987.88 387.403L986.246 386.25ZM974.246 408.25L972.413 407.45L972.413 407.45L974.246 408.25ZM964.496 437.25L962.554 436.772L962.55 436.788L962.547 436.803L964.496 437.25ZM957.996 453.25L956.537 451.882L956.514 451.907L956.491 451.933L957.996 453.25ZM933.996 449.5L932.207 450.394L932.224 450.428L932.242 450.462L933.996 449.5ZM932.496 402.75L934.477 403.025L934.479 403.012L934.481 402.998L932.496 402.75ZM922.246 386.75L923.931 387.827L923.931 387.827L922.246 386.75ZM910.996 409.75L909.135 409.019L909.129 409.033L909.123 409.048L910.996 409.75ZM902.496 437.25L900.552 436.782L900.549 436.794L902.496 437.25ZM895.996 453.25L894.496 451.927L894.491 451.933L895.996 453.25ZM884.746 455.25C881.949 455.25 879.673 454.522 877.812 453.143C875.933 451.751 874.337 449.592 873.103 446.507L869.389 447.993C870.822 451.575 872.809 454.415 875.431 456.357C878.069 458.312 881.209 459.25 884.746 459.25V455.25ZM873.119 446.548C870.752 440.237 869.496 429.876 869.496 415.25H865.496C865.496 429.957 866.74 440.929 869.373 447.952L873.119 446.548ZM869.496 415.25C869.496 393.776 872.552 373.397 878.653 354.103L874.839 352.897C868.607 372.603 865.496 393.391 865.496 415.25H869.496ZM878.656 354.093C880.056 349.581 882.241 346.526 885.086 344.677L882.906 341.323C879.084 343.807 876.436 347.752 874.836 352.907L878.656 354.093ZM885.105 344.664C888.157 342.63 892.55 341.5 898.496 341.5V337.5C892.109 337.5 886.835 338.704 882.887 341.336L885.105 344.664ZM898.496 341.5C901.79 341.5 903.618 341.935 904.436 342.446L906.556 339.054C904.707 337.898 901.869 337.5 898.496 337.5V341.5ZM904.436 342.446C904.934 342.757 905.496 343.497 905.496 345.5H909.496C909.496 342.836 908.725 340.409 906.556 339.054L904.436 342.446ZM905.496 345.5C905.496 346.609 905.224 348.599 904.601 351.592C903.986 354.541 903.059 358.334 901.814 362.983L905.678 364.017C906.933 359.333 907.881 355.459 908.517 352.408C909.143 349.401 909.496 347.058 909.496 345.5H905.496ZM901.806 363.015C900.134 369.703 898.793 375.568 897.785 380.608L901.707 381.392C902.699 376.432 904.025 370.631 905.686 363.985L901.806 363.015ZM897.788 380.595C896.767 385.529 895.925 391.693 895.254 399.069L899.238 399.431C899.901 392.14 900.725 386.138 901.705 381.405L897.788 380.595ZM899.136 399.904C903.592 387.031 908.852 376.201 914.896 367.38L911.596 365.12C905.306 374.299 899.9 385.469 895.356 398.596L899.136 399.904ZM914.882 367.401C921.127 358.527 927.377 352.067 933.605 347.914L931.387 344.586C924.616 349.1 918.032 355.973 911.61 365.099L914.882 367.401ZM933.615 347.908C940.073 343.549 945.936 341.5 951.246 341.5V337.5C944.889 337.5 938.253 339.951 931.377 344.592L933.615 347.908ZM951.246 341.5C956.865 341.5 960.224 342.798 961.991 344.817L965.001 342.183C962.102 338.869 957.294 337.5 951.246 337.5V341.5ZM962.037 344.868C964.049 347.014 965.246 350.507 965.246 355.75H969.246C969.246 349.993 967.943 345.319 964.955 342.132L962.037 344.868ZM965.246 355.75C965.246 360.829 963.716 370.289 960.545 384.309L964.447 385.191C967.609 371.211 969.246 361.338 969.246 355.75H965.246ZM960.544 384.316C959.209 390.323 958.282 394.866 957.773 397.921L961.719 398.579C962.21 395.634 963.117 391.177 964.448 385.184L960.544 384.316ZM961.599 399.003C969.881 378.63 978.993 364.022 988.849 354.973L986.144 352.027C975.666 361.645 966.278 376.87 957.893 397.497L961.599 399.003ZM988.849 354.973C998.846 345.796 1007.88 341.5 1016 341.5V337.5C1006.44 337.5 996.48 342.537 986.144 352.027L988.849 354.973ZM1016 341.5C1021.1 341.5 1024.57 342.776 1026.77 344.977C1028.97 347.178 1030.25 350.642 1030.25 355.75H1034.25C1034.25 350.025 1032.81 345.364 1029.6 342.148C1026.38 338.933 1021.72 337.5 1016 337.5V341.5ZM1030.25 355.75C1030.25 362.008 1028.46 373.561 1024.79 390.578L1028.7 391.422C1032.36 374.439 1034.25 362.492 1034.25 355.75H1030.25ZM1024.79 390.573C1021.64 405.028 1020 414.828 1020 419.75H1024C1024 415.338 1025.52 405.972 1028.7 391.427L1024.79 390.573ZM1020 419.75C1020 423.265 1020.62 426.263 1022.19 428.424C1023.84 430.704 1026.32 431.75 1029.25 431.75V427.75C1027.34 427.75 1026.19 427.129 1025.43 426.076C1024.58 424.904 1024 422.901 1024 419.75H1020ZM1029.25 431.75C1033.33 431.75 1037.72 429.335 1042.32 425.245L1039.67 422.255C1035.27 426.165 1031.82 427.75 1029.25 427.75V431.75ZM1042.33 425.242C1047.11 420.976 1053.35 414.22 1061.03 405.033L1057.96 402.467C1050.31 411.613 1044.22 418.19 1039.66 422.258L1042.33 425.242ZM1061.01 405.052C1062.73 403.051 1064.46 402.25 1066.25 402.25V398.25C1063.03 398.25 1060.26 399.783 1057.98 402.448L1061.01 405.052ZM1066.25 402.25C1067.64 402.25 1068.68 402.821 1069.52 404.258L1072.97 402.242C1071.48 399.679 1069.18 398.25 1066.25 398.25V402.25ZM1069.58 404.359C1070.62 405.913 1071.25 408.224 1071.25 411.5H1075.25C1075.25 407.776 1074.54 404.587 1072.91 402.141L1069.58 404.359ZM1071.25 411.5C1071.25 417.867 1069.73 422.506 1066.98 425.693L1070.01 428.307C1073.59 424.161 1075.25 418.466 1075.25 411.5H1071.25ZM1066.94 425.74C1059.88 434.441 1052.27 441.552 1044.12 447.096L1046.37 450.404C1054.88 444.614 1062.78 437.226 1070.05 428.26L1066.94 425.74ZM1044.11 447.107C1036.29 452.528 1027.36 455.25 1017.25 455.25V459.25C1028.13 459.25 1037.87 456.306 1046.39 450.393L1044.11 447.107ZM1017.25 455.25C1009.13 455.25 1003.33 452.954 999.485 448.665L996.507 451.335C1001.33 456.713 1008.36 459.25 1017.25 459.25V455.25ZM999.507 448.69C995.597 444.179 993.496 437.548 993.496 428.5H989.496C989.496 438.119 991.728 445.821 996.485 451.31L999.507 448.69ZM993.496 428.5C993.496 424.051 994.624 415.895 996.959 403.882L993.033 403.118C990.702 415.105 989.496 423.616 989.496 428.5H993.496ZM996.955 403.904C999.118 393.421 1000.25 385.982 1000.25 381.75H996.246C996.246 385.518 995.208 392.579 993.037 403.096L996.955 403.904ZM1000.25 381.75C1000.25 380.25 999.999 378.77 999.207 377.617C998.321 376.329 996.969 375.75 995.496 375.75V379.75C995.712 379.75 995.804 379.789 995.827 379.8C995.84 379.806 995.866 379.818 995.911 379.883C996.034 380.063 996.246 380.584 996.246 381.75H1000.25ZM995.496 375.75C993.615 375.75 991.816 376.922 990.205 378.402C988.513 379.957 986.648 382.212 984.612 385.097L987.88 387.403C989.844 384.621 991.521 382.626 992.912 381.348C994.385 379.994 995.21 379.75 995.496 379.75V375.75ZM984.629 385.074C980.514 390.732 976.447 398.206 972.413 407.45L976.079 409.05C980.046 399.96 983.979 392.768 987.864 387.426L984.629 385.074ZM972.413 407.45C968.366 416.726 965.08 426.501 962.554 436.772L966.438 437.728C968.912 427.666 972.127 418.108 976.079 409.05L972.413 407.45ZM962.547 436.803C960.717 444.789 958.637 449.642 956.537 451.882L959.455 454.618C962.355 451.525 964.609 445.711 966.446 437.697L962.547 436.803ZM956.491 451.933C954.695 453.985 951.546 455.25 946.496 455.25V459.25C952.112 459.25 956.63 457.848 959.501 454.567L956.491 451.933ZM946.496 455.25C944.072 455.25 942.029 454.685 940.3 453.613C938.564 452.536 937.034 450.88 935.75 448.538L932.242 450.462C933.791 453.286 935.762 455.506 938.192 457.012C940.629 458.523 943.42 459.25 946.496 459.25V455.25ZM935.785 448.606C933.288 443.612 931.996 437.518 931.996 430.25H927.996C927.996 437.982 929.371 444.721 932.207 450.394L935.785 448.606ZM931.996 430.25C931.996 424.058 932.814 415 934.477 403.025L930.515 402.475C928.845 414.5 927.996 423.776 927.996 430.25H931.996ZM934.481 402.998C935.811 392.359 936.496 385.231 936.496 381.75H932.496C932.496 384.936 931.848 391.808 930.512 402.502L934.481 402.998ZM936.496 381.75C936.496 380.25 936.249 378.77 935.457 377.617C934.571 376.329 933.219 375.75 931.746 375.75V379.75C931.962 379.75 932.054 379.789 932.077 379.8C932.09 379.806 932.116 379.818 932.161 379.883C932.284 380.063 932.496 380.584 932.496 381.75H936.496ZM931.746 375.75C929.718 375.75 927.821 376.937 926.121 378.548C924.369 380.208 922.517 382.611 920.561 385.673L923.931 387.827C925.808 384.889 927.457 382.792 928.872 381.452C930.338 380.063 931.275 379.75 931.746 379.75V375.75ZM920.561 385.673C916.636 391.817 912.831 399.609 909.135 409.019L912.858 410.481C916.494 401.224 920.19 393.683 923.931 387.827L920.561 385.673ZM909.123 409.048C905.597 418.452 902.739 427.697 900.552 436.782L904.441 437.718C906.587 428.803 909.395 419.715 912.869 410.452L909.123 409.048ZM900.549 436.794C898.724 444.592 896.643 449.494 894.496 451.927L897.496 454.573C900.349 451.339 902.602 445.575 904.443 437.706L900.549 436.794ZM894.491 451.933C892.685 453.997 889.606 455.25 884.746 455.25V459.25C890.22 459.25 894.641 457.836 897.501 454.567L894.491 451.933ZM1059.03 446L1060.58 444.73L1060.58 444.73L1059.03 446ZM1059.03 378.75L1060.8 379.674L1060.81 379.664L1059.03 378.75ZM1083.53 350L1084.68 351.635L1084.69 351.631L1083.53 350ZM1123.53 341.25L1121.95 342.478L1122.03 342.576L1122.12 342.664L1123.53 341.25ZM1126.78 348.75L1124.83 349.193L1125.26 351.076L1127.16 350.715L1126.78 348.75ZM1146.28 381.5L1148.24 381.892L1148.24 381.883L1148.25 381.873L1146.28 381.5ZM1142.28 427.5L1140.7 428.728L1140.74 428.78L1140.79 428.829L1142.28 427.5ZM1158.78 423.75L1160.11 425.245L1160.13 425.231L1160.14 425.218L1158.78 423.75ZM1177.03 403.75L1175.51 402.448L1175.5 402.458L1175.5 402.467L1177.03 403.75ZM1188.78 403.25L1187.05 404.258L1187.08 404.31L1187.12 404.359L1188.78 403.25ZM1186.03 427L1184.52 425.693L1184.49 425.719L1184.47 425.747L1186.03 427ZM1164.28 448.5L1165.49 450.092L1165.49 450.092L1164.28 448.5ZM1126.78 451.75L1125.48 453.272L1125.51 453.298L1125.55 453.323L1126.78 451.75ZM1116.53 436.25L1118.41 435.574L1117.01 431.672L1114.83 435.197L1116.53 436.25ZM1103.28 425.5L1101.7 424.281L1101.7 424.281L1103.28 425.5ZM1110.53 408.25L1112.49 408.66L1112.49 408.652L1112.49 408.644L1110.53 408.25ZM1119.78 362.25L1121.74 362.644L1122.24 360.191L1119.73 360.251L1119.78 362.25ZM1100.28 370.25L1101.58 371.769L1101.59 371.766L1100.28 370.25ZM1086.28 390.25L1088.13 391.024L1088.13 391.024L1086.28 390.25ZM1084.03 428.25L1082.47 429.499L1082.49 429.53L1082.52 429.56L1084.03 428.25ZM1083.78 455.25C1074 455.25 1066.34 451.735 1060.58 444.73L1057.49 447.27C1064.06 455.265 1072.89 459.25 1083.78 459.25V455.25ZM1060.58 444.73C1054.77 437.671 1051.78 428.324 1051.78 416.5H1047.78C1047.78 429.01 1050.96 439.329 1057.49 447.27L1060.58 444.73ZM1051.78 416.5C1051.78 403.489 1054.79 391.222 1060.8 379.674L1057.26 377.826C1050.94 389.944 1047.78 402.845 1047.78 416.5H1051.78ZM1060.81 379.664C1066.84 367.927 1074.8 358.6 1084.68 351.635L1082.38 348.365C1071.93 355.734 1063.55 365.573 1057.25 377.836L1060.81 379.664ZM1084.69 351.631C1094.72 344.512 1105.24 341 1116.28 341V337C1104.32 337 1093.01 340.821 1082.37 348.369L1084.69 351.631ZM1116.28 341C1119.86 341 1121.4 341.768 1121.95 342.478L1125.11 340.022C1123.33 337.732 1120.04 337 1116.28 337V341ZM1122.12 342.664C1123.03 343.575 1124.01 345.593 1124.83 349.193L1128.73 348.307C1127.88 344.573 1126.7 341.592 1124.95 339.836L1122.12 342.664ZM1127.16 350.715C1130.52 350.073 1134.06 349.75 1137.78 349.75V345.75C1133.83 345.75 1130.04 346.093 1126.41 346.785L1127.16 350.715ZM1137.78 349.75C1141.69 349.75 1144.26 350.458 1145.81 351.565C1147.23 352.583 1148.03 354.109 1148.03 356.5H1152.03C1152.03 353.058 1150.79 350.209 1148.13 348.31C1145.6 346.5 1142.04 345.75 1137.78 345.75V349.75ZM1148.03 356.5C1148.03 359.771 1146.83 367.896 1144.32 381.127L1148.25 381.873C1150.73 368.771 1152.03 360.229 1152.03 356.5H1148.03ZM1144.32 381.108C1140.49 400.262 1138.53 413.777 1138.53 421.5H1142.53C1142.53 414.223 1144.41 401.071 1148.24 381.892L1144.32 381.108ZM1138.53 421.5C1138.53 424.304 1139.19 426.78 1140.7 428.728L1143.86 426.272C1143.04 425.22 1142.53 423.696 1142.53 421.5H1138.53ZM1140.79 428.829C1142.5 430.754 1144.71 431.75 1147.28 431.75V427.75C1145.85 427.75 1144.73 427.246 1143.78 426.171L1140.79 428.829ZM1147.28 431.75C1151.22 431.75 1155.53 429.314 1160.11 425.245L1157.45 422.255C1153.03 426.186 1149.68 427.75 1147.28 427.75V431.75ZM1160.14 425.218C1164.74 420.962 1170.89 414.216 1178.57 405.033L1175.5 402.467C1167.84 411.617 1161.83 418.205 1157.42 422.282L1160.14 425.218ZM1178.55 405.052C1180.26 403.051 1182 402.25 1183.78 402.25V398.25C1180.57 398.25 1177.8 399.783 1175.51 402.448L1178.55 405.052ZM1183.78 402.25C1185.18 402.25 1186.22 402.821 1187.05 404.258L1190.51 402.242C1189.01 399.679 1186.72 398.25 1183.78 398.25V402.25ZM1187.12 404.359C1188.15 405.913 1188.78 408.224 1188.78 411.5H1192.78C1192.78 407.776 1192.08 404.587 1190.45 402.141L1187.12 404.359ZM1188.78 411.5C1188.78 417.867 1187.27 422.506 1184.52 425.693L1187.54 428.307C1191.13 424.161 1192.78 418.466 1192.78 411.5H1188.78ZM1184.47 425.747C1177.73 434.137 1170.59 441.185 1163.07 446.908L1165.49 450.092C1173.3 444.148 1180.67 436.863 1187.59 428.253L1184.47 425.747ZM1163.07 446.908C1155.63 452.567 1148.63 455.25 1142.03 455.25V459.25C1149.76 459.25 1157.6 456.099 1165.49 450.092L1163.07 446.908ZM1142.03 455.25C1137.02 455.25 1132.36 453.591 1128.02 450.177L1125.55 453.323C1130.53 457.243 1136.05 459.25 1142.03 459.25V455.25ZM1128.08 450.228C1123.89 446.656 1120.65 441.802 1118.41 435.574L1114.65 436.926C1117.08 443.698 1120.68 449.177 1125.48 453.272L1128.08 450.228ZM1114.83 435.197C1106.42 448.778 1096.08 455.25 1083.78 455.25V459.25C1097.82 459.25 1109.31 451.722 1118.23 437.303L1114.83 435.197ZM1092.78 434C1097.33 434 1101.35 431.295 1104.87 426.719L1101.7 424.281C1098.55 428.372 1095.57 430 1092.78 430V434ZM1104.87 426.719C1108.43 422.081 1110.95 416.026 1112.49 408.66L1108.57 407.84C1107.12 414.808 1104.79 420.252 1101.7 424.281L1104.87 426.719ZM1112.49 408.644L1121.74 362.644L1117.82 361.856L1108.57 407.856L1112.49 408.644ZM1119.73 360.251C1112.21 360.43 1105.28 363.308 1098.98 368.734L1101.59 371.766C1107.28 366.859 1113.35 364.404 1119.83 364.249L1119.73 360.251ZM1098.98 368.731C1092.87 373.967 1088.04 380.906 1084.44 389.476L1088.13 391.024C1091.53 382.928 1096.02 376.533 1101.58 371.769L1098.98 368.731ZM1084.44 389.476C1080.83 398.062 1079.03 407.16 1079.03 416.75H1083.03C1083.03 407.674 1084.73 399.105 1088.13 391.024L1084.44 389.476ZM1079.03 416.75C1079.03 422.112 1080.06 426.485 1082.47 429.499L1085.59 427.001C1084 425.015 1083.03 421.722 1083.03 416.75H1079.03ZM1082.52 429.56C1085.11 432.549 1088.61 434 1092.78 434V430C1089.62 430 1087.29 428.951 1085.54 426.94L1082.52 429.56Z" fill="#B65E5E" mask="url(#path-5-outside-2_64_10)"/>
</g>
<defs>
<filter id="filter0_d_64_10" x="340.96" y="57.688" width="671.35" height="132.584" filterUnits="userSpaceOnUse" color-interpolation-filters="sRGB">
<feFlood flood-opacity="0" result="BackgroundImageFix"/>
<feColorMatrix in="SourceAlpha" type="matrix" values="0 0 0 0 0 0 0 0 0 0 0 0 0 0 0 0 0 0 127 0" result="hardAlpha"/>
<feOffset dx="2" dy="4"/>
<feGaussianBlur stdDeviation="1.7"/>
<feComposite in2="hardAlpha" operator="out"/>
<feColorMatrix type="matrix" values="0 0 0 0 0.992157 0 0 0 0 0.8 0 0 0 0 0.878431 0 0 0 1 0"/>
<feBlend mode="normal" in2="BackgroundImageFix" result="effect1_dropShadow_64_10"/>
<feBlend mode="normal" in="SourceGraphic" in2="effect1_dropShadow_64_10" result="shape"/>
</filter>
<filter id="filter1_d_64_10" x="99.5" y="162.5" width="237" height="307.5" filterUnits="userSpaceOnUse" color-interpolation-filters="sRGB">
<feFlood flood-opacity="0" result="BackgroundImageFix"/>
<feColorMatrix in="SourceAlpha" type="matrix" values="0 0 0 0 0 0 0 0 0 0 0 0 0 0 0 0 0 0 127 0" result="hardAlpha"/>
<feOffset dx="3" dy="5"/>
<feGaussianBlur stdDeviation="3.25"/>
<feComposite in2="hardAlpha" operator="out"/>
<feColorMatrix type="matrix" values="0 0 0 0 0.713726 0 0 0 0 0.368627 0 0 0 0 0.368627 0 0 0 0.5 0"/>
<feBlend mode="normal" in2="BackgroundImageFix" result="effect1_dropShadow_64_10"/>
<feBlend mode="normal" in="SourceGraphic" in2="effect1_dropShadow_64_10" result="shape"/>
</filter>
<filter id="filter2_d_64_10" x="332.75" y="242.5" width="867.531" height="339.25" filterUnits="userSpaceOnUse" color-interpolation-filters="sRGB">
<feFlood flood-opacity="0" result="BackgroundImageFix"/>
<feColorMatrix in="SourceAlpha" type="matrix" values="0 0 0 0 0 0 0 0 0 0 0 0 0 0 0 0 0 0 127 0" result="hardAlpha"/>
<feOffset dx="3" dy="5"/>
<feGaussianBlur stdDeviation="3.25"/>
<feComposite in2="hardAlpha" operator="out"/>
<feColorMatrix type="matrix" values="0 0 0 0 0.713726 0 0 0 0 0.368627 0 0 0 0 0.368627 0 0 0 0.5 0"/>
<feBlend mode="normal" in2="BackgroundImageFix" result="effect1_dropShadow_64_10"/>
<feBlend mode="normal" in="SourceGraphic" in2="effect1_dropShadow_64_10" result="shape"/>
</filter>
</defs>
</svg>
