<svg width="430" height="695" viewBox="0 0 430 695" fill="none" xmlns="http://www.w3.org/2000/svg">
<path d="M157.405 4.30072C158.033 3.55188 158.537 2.94699 158.908 2.49999L284.666 2.49999C284.949 2.92686 285.31 3.4689 285.745 4.11718C286.931 5.88338 288.664 8.43858 290.863 11.6024C295.261 17.929 301.522 26.6941 308.982 36.4528C323.872 55.9321 343.645 79.5167 362.956 95.523C374.661 105.226 391.137 116.238 404.618 124.789C411.373 129.074 417.401 132.756 421.74 135.367C423.91 136.673 425.659 137.712 426.866 138.425C427.098 138.561 427.309 138.686 427.5 138.798L427.5 556.202C427.309 556.314 427.098 556.439 426.866 556.575C425.659 557.288 423.91 558.327 421.74 559.633C417.4 562.244 411.373 565.926 404.618 570.211C391.137 578.762 374.661 589.774 362.956 599.477C343.645 615.483 323.872 639.068 308.982 658.547C301.522 668.306 295.261 677.071 290.863 683.398C288.664 686.561 286.931 689.117 285.745 690.883C285.31 691.531 284.949 692.073 284.666 692.5L158.908 692.5C158.758 692.319 158.585 692.111 158.391 691.879C158.108 691.539 157.778 691.144 157.405 690.699C155.942 688.955 153.808 686.428 151.117 683.297C145.736 677.034 138.127 668.347 129.213 658.645C111.409 639.268 88.3054 615.741 67.3102 599.428C55.2253 590.038 38.7009 579.045 25.2441 570.426C18.5061 566.11 12.5198 562.378 8.21763 559.725C6.06632 558.398 4.33561 557.341 3.14197 556.615C2.90687 556.472 2.69257 556.342 2.50001 556.225L2.50002 138.775C2.69259 138.658 2.90688 138.528 3.14199 138.385C4.33563 137.659 6.06634 136.601 8.21765 135.275C12.5199 132.622 18.5062 128.89 25.2441 124.574C38.7009 115.955 55.2254 104.962 67.3102 95.5724C88.3054 79.2587 111.409 55.7324 129.213 36.3551C138.127 26.6532 145.736 17.9658 151.117 11.7032C153.808 8.57151 155.942 6.04532 157.405 4.30072Z" fill="#FFFDF4" stroke="#B65E5E" stroke-width="5"/>
<g filter="url(#filter0_d_68_25)">
<mask id="path-2-outside-1_68_25" maskUnits="userSpaceOnUse" x="127" y="189" width="184" height="240" fill="black">
<rect fill="white" x="127" y="189" width="184" height="240"/>
<path d="M264.2 306.2C290.333 319.533 303.4 337.4 303.4 359.8C303.4 373.133 299.533 384.867 291.8 395C284.333 405.133 273.667 413 259.8 418.6C245.933 424.2 229.8 427 211.4 427C185.533 427 165.267 421.933 150.6 411.8C136.2 401.667 129 387.533 129 369.4C129 357.933 132.467 347.4 139.4 337.8C146.333 328.2 157.533 319.267 173 311C163.4 304.6 156.067 297 151 288.2C146.2 279.133 143.8 269.667 143.8 259.8C143.8 238.467 151.8 221.8 167.8 209.8C183.8 197.533 205.533 191.4 233 191.4C255.667 191.4 273.8 196.333 287.4 206.2C301.267 216.067 308.2 229.4 308.2 246.2C308.2 258.467 304.733 269.533 297.8 279.4C290.867 289 279.667 297.933 264.2 306.2ZM229.8 230.2C218.6 230.2 209.667 232.6 203 237.4C196.333 241.933 193 248.6 193 257.4C193 269.4 203.133 280.067 223.4 289.4C237 282.733 246.467 276.467 251.8 270.6C257.4 264.733 260.2 258.6 260.2 252.2C260.2 237.533 250.067 230.2 229.8 230.2ZM213.4 388.2C225.933 388.2 235.8 386.067 243 381.8C250.2 377.533 253.8 371.667 253.8 364.2C253.8 358.333 250.6 352.733 244.2 347.4C238.067 342.067 226.6 335.667 209.8 328.2C197.533 333.8 189 339.533 184.2 345.4C179.4 351.267 177 357.667 177 364.6C177 372.067 180.2 377.933 186.6 382.2C193.267 386.2 202.2 388.2 213.4 388.2Z"/>
</mask>
<path d="M264.2 306.2C290.333 319.533 303.4 337.4 303.4 359.8C303.4 373.133 299.533 384.867 291.8 395C284.333 405.133 273.667 413 259.8 418.6C245.933 424.2 229.8 427 211.4 427C185.533 427 165.267 421.933 150.6 411.8C136.2 401.667 129 387.533 129 369.4C129 357.933 132.467 347.4 139.4 337.8C146.333 328.2 157.533 319.267 173 311C163.4 304.6 156.067 297 151 288.2C146.2 279.133 143.8 269.667 143.8 259.8C143.8 238.467 151.8 221.8 167.8 209.8C183.8 197.533 205.533 191.4 233 191.4C255.667 191.4 273.8 196.333 287.4 206.2C301.267 216.067 308.2 229.4 308.2 246.2C308.2 258.467 304.733 269.533 297.8 279.4C290.867 289 279.667 297.933 264.2 306.2ZM229.8 230.2C218.6 230.2 209.667 232.6 203 237.4C196.333 241.933 193 248.6 193 257.4C193 269.4 203.133 280.067 223.4 289.4C237 282.733 246.467 276.467 251.8 270.6C257.4 264.733 260.2 258.6 260.2 252.2C260.2 237.533 250.067 230.2 229.8 230.2ZM213.4 388.2C225.933 388.2 235.8 386.067 243 381.8C250.2 377.533 253.8 371.667 253.8 364.2C253.8 358.333 250.6 352.733 244.2 347.4C238.067 342.067 226.6 335.667 209.8 328.2C197.533 333.8 189 339.533 184.2 345.4C179.4 351.267 177 357.667 177 364.6C177 372.067 180.2 377.933 186.6 382.2C193.267 386.2 202.2 388.2 213.4 388.2Z" fill="#FFFDF4"/>
<path d="M264.2 306.2L263.257 304.436L259.88 306.241L263.291 307.982L264.2 306.2ZM291.8 395L290.21 393.787L290.2 393.8L290.19 393.814L291.8 395ZM259.8 418.6L259.051 416.746L259.051 416.746L259.8 418.6ZM150.6 411.8L149.449 413.436L149.456 413.441L149.463 413.445L150.6 411.8ZM139.4 337.8L137.779 336.629L137.779 336.629L139.4 337.8ZM173 311L173.943 312.764L176.889 311.189L174.109 309.336L173 311ZM151 288.2L149.232 289.136L149.249 289.167L149.267 289.198L151 288.2ZM167.8 209.8L169 211.4L169.008 211.394L169.017 211.387L167.8 209.8ZM287.4 206.2L286.226 207.819L286.233 207.824L286.24 207.83L287.4 206.2ZM297.8 279.4L299.421 280.571L299.429 280.56L299.436 280.55L297.8 279.4ZM203 237.4L204.125 239.054L204.147 239.039L204.169 239.023L203 237.4ZM223.4 289.4L222.563 291.217L223.427 291.614L224.28 291.196L223.4 289.4ZM251.8 270.6L250.353 269.219L250.336 269.237L250.32 269.255L251.8 270.6ZM243 381.8L244.02 383.521L244.02 383.521L243 381.8ZM244.2 347.4L242.888 348.909L242.903 348.923L242.92 348.936L244.2 347.4ZM209.8 328.2L210.612 326.372L209.789 326.006L208.969 326.381L209.8 328.2ZM184.2 345.4L182.652 344.134L182.652 344.134L184.2 345.4ZM186.6 382.2L185.491 383.864L185.53 383.89L185.571 383.915L186.6 382.2ZM263.291 307.982C288.998 321.097 301.4 338.39 301.4 359.8H305.4C305.4 336.409 291.669 317.969 265.109 304.418L263.291 307.982ZM301.4 359.8C301.4 372.716 297.665 384.019 290.21 393.787L293.39 396.213C301.402 385.715 305.4 373.55 305.4 359.8H301.4ZM290.19 393.814C282.981 403.597 272.64 411.258 259.051 416.746L260.549 420.454C274.694 414.742 285.685 406.67 293.41 396.186L290.19 393.814ZM259.051 416.746C245.47 422.23 229.601 425 211.4 425V429C229.999 429 246.396 426.17 260.549 420.454L259.051 416.746ZM211.4 425C185.765 425 165.95 419.974 151.737 410.155L149.463 413.445C164.584 423.892 185.302 429 211.4 429V425ZM151.751 410.164C137.902 400.419 131 386.906 131 369.4H127C127 388.161 134.498 402.915 149.449 413.436L151.751 410.164ZM131 369.4C131 358.368 134.326 348.242 141.021 338.971L137.779 336.629C130.608 346.558 127 357.498 127 369.4H131ZM141.021 338.971C147.712 329.707 158.626 320.95 173.943 312.764L172.057 309.236C156.441 317.583 144.955 326.693 137.779 336.629L141.021 338.971ZM174.109 309.336C164.731 303.083 157.626 295.701 152.733 287.202L149.267 289.198C154.507 298.299 162.069 306.116 171.891 312.664L174.109 309.336ZM152.768 287.264C148.114 278.474 145.8 269.327 145.8 259.8H141.8C141.8 270.006 144.286 279.793 149.232 289.136L152.768 287.264ZM145.8 259.8C145.8 239.047 153.541 222.994 169 211.4L166.6 208.2C150.059 220.606 141.8 237.886 141.8 259.8H145.8ZM169.017 211.387C184.56 199.47 205.816 193.4 233 193.4V189.4C205.251 189.4 183.04 195.596 166.583 208.213L169.017 211.387ZM233 193.4C255.39 193.4 273.068 198.273 286.226 207.819L288.574 204.581C274.532 194.393 255.943 189.4 233 189.4V193.4ZM286.24 207.83C299.588 217.327 306.2 230.057 306.2 246.2H310.2C310.2 228.743 302.945 214.806 288.56 204.57L286.24 207.83ZM306.2 246.2C306.2 258.063 302.856 268.726 296.164 278.25L299.436 280.55C306.611 270.34 310.2 258.871 310.2 246.2H306.2ZM296.179 278.229C289.488 287.493 278.574 296.25 263.257 304.436L265.143 307.964C280.759 299.617 292.245 290.507 299.421 280.571L296.179 278.229ZM229.8 228.2C218.33 228.2 208.942 230.657 201.831 235.777L204.169 239.023C210.391 234.543 218.87 232.2 229.8 232.2V228.2ZM201.875 235.746C194.605 240.69 191 248.009 191 257.4H195C195 249.191 198.062 243.176 204.125 239.054L201.875 235.746ZM191 257.4C191 270.69 202.212 281.844 222.563 291.217L224.237 287.583C204.054 278.289 195 268.11 195 257.4H191ZM224.28 291.196C237.939 284.5 247.685 278.1 253.28 271.945L250.32 269.255C245.248 274.834 236.061 280.966 222.52 287.604L224.28 291.196ZM253.247 271.981C259.103 265.846 262.2 259.242 262.2 252.2H258.2C258.2 257.958 255.697 263.621 250.353 269.219L253.247 271.981ZM262.2 252.2C262.2 244.351 259.453 238.191 253.773 234.08C248.212 230.055 240.115 228.2 229.8 228.2V232.2C239.752 232.2 246.855 234.011 251.427 237.32C255.88 240.542 258.2 245.382 258.2 252.2H262.2ZM213.4 390.2C226.126 390.2 236.394 388.039 244.02 383.521L241.98 380.079C235.206 384.094 225.74 386.2 213.4 386.2V390.2ZM244.02 383.521C251.739 378.946 255.8 372.47 255.8 364.2H251.8C251.8 370.863 248.661 376.121 241.98 380.079L244.02 383.521ZM255.8 364.2C255.8 357.522 252.137 351.411 245.48 345.864L242.92 348.936C249.063 354.056 251.8 359.145 251.8 364.2H255.8ZM245.512 345.891C239.134 340.344 227.424 333.844 210.612 326.372L208.988 330.028C225.776 337.489 236.999 343.789 242.888 348.909L245.512 345.891ZM208.969 326.381C196.609 332.023 187.743 337.912 182.652 344.134L185.748 346.666C190.257 341.155 198.458 335.577 210.631 330.019L208.969 326.381ZM182.652 344.134C177.589 350.322 175 357.161 175 364.6H179C179 358.172 181.211 352.211 185.748 346.666L182.652 344.134ZM175 364.6C175 372.759 178.554 379.24 185.491 383.864L187.709 380.536C181.846 376.627 179 371.374 179 364.6H175ZM185.571 383.915C192.656 388.166 201.988 390.2 213.4 390.2V386.2C202.412 386.2 193.877 384.234 187.629 380.485L185.571 383.915Z" fill="#B65E5E" mask="url(#path-2-outside-1_68_25)"/>
</g>
<g filter="url(#filter1_d_68_25)">
<mask id="path-4-outside-2_68_25" maskUnits="userSpaceOnUse" x="55" y="430" width="334" height="130" fill="black">
<rect fill="white" x="55" y="430" width="334" height="130"/>
<path d="M175.464 492.592C176.296 492.592 176.936 492.976 177.384 493.744C177.896 494.512 178.152 495.568 178.152 496.912C178.152 499.408 177.544 501.392 176.328 502.864C173 506.96 169.736 509.936 166.536 511.792C163.336 513.584 159.88 514.48 156.168 514.48C150.536 514.48 146.248 511.696 143.304 506.128C140.424 500.496 138.984 492.368 138.984 481.744C138.984 474.448 139.72 465.744 141.192 455.632H141C134.6 473.232 128.456 491.344 122.568 509.968C121.928 511.952 121.128 513.328 120.168 514.096C119.208 514.864 117.832 515.248 116.04 515.248C112.968 515.248 110.984 513.712 110.088 510.64C108.488 505.52 107.24 499.408 106.344 492.304C105.448 485.136 105 477.904 105 470.608C105 466.384 105.128 462.704 105.384 459.568H105.192C102.696 472.368 100.424 482.384 98.376 489.616C96.392 496.784 93.512 502.768 89.736 507.568C85.96 512.368 81 514.768 74.856 514.768C71.528 514.768 68.552 514.064 65.928 512.656C63.368 511.184 61.384 509.232 59.976 506.8C58.568 504.368 57.864 501.744 57.864 498.928C57.864 496.944 58.376 495.376 59.4 494.224C60.424 493.008 61.864 492.4 63.72 492.4C66.216 492.4 67.752 493.616 68.328 496.048C68.904 498.416 69.832 500.24 71.112 501.52C72.456 502.736 74.088 503.344 76.008 503.344C78.44 503.344 80.776 501.264 83.016 497.104C85.32 492.944 87.688 486.256 90.12 477.04C92.616 467.824 95.304 455.6 98.184 440.368C98.696 437.552 99.752 435.568 101.352 434.416C102.952 433.2 105.32 432.592 108.456 432.592C113.704 432.592 116.136 435.376 115.752 440.944C115.432 446.384 115.272 451.312 115.272 455.728C115.272 466.096 116.04 478.256 117.576 492.208H117.768C119.432 485.104 122.024 476.784 125.544 467.248C129.064 457.712 132.808 448.72 136.776 440.272C137.8 438.032 138.696 436.4 139.464 435.376C140.232 434.352 141.096 433.648 142.056 433.264C143.016 432.816 144.36 432.592 146.088 432.592C148.776 432.592 150.824 433.264 152.232 434.608C153.704 435.888 154.312 437.744 154.056 440.176C152.456 456.304 151.656 468.88 151.656 477.904C151.656 485.776 152.264 491.952 153.48 496.432C154.696 500.848 156.712 503.056 159.528 503.056C161.64 503.056 163.656 502.416 165.576 501.136C167.56 499.792 169.992 497.392 172.872 493.936C173.576 493.04 174.44 492.592 175.464 492.592ZM182.166 514.48C178.198 514.48 175.03 513.04 172.662 510.16C170.294 507.28 169.11 503.504 169.11 498.832C169.11 493.712 170.294 488.88 172.662 484.336C175.03 479.728 178.166 476.048 182.07 473.296C186.038 470.48 190.23 469.072 194.646 469.072C196.054 469.072 196.982 469.36 197.43 469.936C197.942 470.448 198.358 471.408 198.678 472.816C200.022 472.56 201.43 472.432 202.902 472.432C206.038 472.432 207.606 473.552 207.606 475.792C207.606 477.136 207.126 480.336 206.166 485.392C204.694 492.752 203.958 497.872 203.958 500.752C203.958 501.712 204.182 502.48 204.63 503.056C205.142 503.632 205.782 503.92 206.55 503.92C207.766 503.92 209.238 503.152 210.966 501.616C212.694 500.016 215.03 497.456 217.974 493.936C218.742 493.04 219.606 492.592 220.566 492.592C221.398 492.592 222.038 492.976 222.486 493.744C222.998 494.512 223.254 495.568 223.254 496.912C223.254 499.472 222.646 501.456 221.43 502.864C218.806 506.128 216.022 508.88 213.078 511.12C210.134 513.36 207.286 514.48 204.534 514.48C202.422 514.48 200.47 513.776 198.678 512.368C196.95 510.896 195.638 508.912 194.742 506.416C191.414 511.792 187.222 514.48 182.166 514.48ZM185.622 504.784C187.03 504.784 188.374 503.952 189.654 502.288C190.934 500.624 191.862 498.416 192.438 495.664L195.99 478C193.302 478.064 190.806 479.088 188.502 481.072C186.262 482.992 184.47 485.552 183.126 488.752C181.782 491.952 181.11 495.344 181.11 498.928C181.11 500.912 181.494 502.384 182.262 503.344C183.094 504.304 184.214 504.784 185.622 504.784ZM266.716 492.592C267.548 492.592 268.188 492.976 268.636 493.744C269.148 494.512 269.404 495.568 269.404 496.912C269.404 499.472 268.796 501.456 267.58 502.864C264.828 506.256 261.852 509.04 258.652 511.216C255.516 513.392 251.932 514.48 247.9 514.48C244.508 514.48 241.756 513.264 239.644 510.832C235.996 513.2 232.188 514.416 228.22 514.48C227.388 526.832 225.5 537.136 222.556 545.392C219.612 553.712 215.292 557.872 209.596 557.872C206.14 557.872 203.58 556.624 201.916 554.128C200.252 551.632 199.42 548.176 199.42 543.76C199.42 537.488 200.86 530.16 203.74 521.776C206.62 513.456 211.068 504.272 217.084 494.224C217.084 484.88 217.02 478.384 216.892 474.736C216.828 472.88 217.564 471.408 219.1 470.32C220.636 469.232 222.556 468.688 224.86 468.688C226.204 468.688 227.164 468.976 227.74 469.552C228.38 470.064 228.732 471.12 228.796 472.72C228.796 474.32 228.828 475.504 228.892 476.272C230.94 473.712 232.956 471.888 234.94 470.8C236.924 469.648 239.036 469.072 241.276 469.072C244.86 469.072 247.772 470.512 250.012 473.392C252.316 476.272 253.468 480.048 253.468 484.72C253.468 488.112 252.924 491.408 251.836 494.608C250.748 497.808 249.244 500.72 247.324 503.344C248.668 503.728 249.788 503.92 250.684 503.92C252.796 503.92 254.812 503.152 256.732 501.616C258.652 500.08 261.116 497.52 264.124 493.936C264.892 493.04 265.756 492.592 266.716 492.592ZM228.7 505.264C231.004 504.752 233.116 503.504 235.036 501.52C237.02 499.472 238.588 496.976 239.74 494.032C240.892 491.024 241.468 487.888 241.468 484.624C241.468 482.704 241.084 481.264 240.316 480.304C239.548 479.28 238.524 478.768 237.244 478.768C234.94 478.768 232.156 481.2 228.892 486.064C228.828 488.88 228.796 493.008 228.796 498.448C228.796 501.392 228.764 503.664 228.7 505.264ZM210.364 548.464C212.092 548.464 213.532 544.688 214.684 537.136C215.836 529.648 216.572 520.304 216.892 509.104C214.14 515.504 211.964 521.616 210.364 527.44C208.764 533.264 207.964 538.16 207.964 542.128C207.964 544.176 208.22 545.744 208.732 546.832C209.18 547.92 209.724 548.464 210.364 548.464ZM268.487 514.48C266.055 514.48 264.327 513.2 263.303 510.64C262.343 508.08 261.863 503.984 261.863 498.352C261.863 490.032 263.047 482.128 265.415 474.64C265.991 472.784 266.919 471.44 268.199 470.608C269.543 469.712 271.399 469.264 273.767 469.264C275.047 469.264 275.943 469.424 276.455 469.744C276.967 470.064 277.223 470.672 277.223 471.568C277.223 472.592 276.743 474.896 275.783 478.48C275.143 481.04 274.631 483.28 274.247 485.2C273.863 487.056 273.543 489.392 273.287 492.208C275.015 487.216 277.063 482.992 279.431 479.536C281.863 476.08 284.327 473.52 286.823 471.856C289.383 470.128 291.783 469.264 294.023 469.264C296.263 469.264 297.831 469.776 298.727 470.8C299.687 471.824 300.167 473.392 300.167 475.504C300.167 477.552 299.559 481.264 298.343 486.64C297.831 488.944 297.479 490.672 297.287 491.824C300.487 483.952 304.039 478.224 307.943 474.64C311.847 471.056 315.495 469.264 318.887 469.264C323.047 469.264 325.127 471.344 325.127 475.504C325.127 478 324.423 482.512 323.015 489.04C321.799 494.608 321.191 498.288 321.191 500.08C321.191 502.64 322.119 503.92 323.975 503.92C325.255 503.92 326.759 503.152 328.487 501.616C330.279 500.016 332.647 497.456 335.591 493.936C336.359 493.04 337.223 492.592 338.183 492.592C339.015 492.592 339.655 492.976 340.103 493.744C340.615 494.512 340.871 495.568 340.871 496.912C340.871 499.472 340.263 501.456 339.047 502.864C336.295 506.256 333.319 509.04 330.119 511.216C326.983 513.392 323.399 514.48 319.367 514.48C316.103 514.48 313.639 513.552 311.975 511.696C310.311 509.776 309.479 507.024 309.479 503.44C309.479 501.648 309.927 498.448 310.823 493.84C311.655 489.808 312.071 487.024 312.071 485.488C312.071 484.464 311.719 483.952 311.015 483.952C310.183 483.952 308.999 485.04 307.463 487.216C305.927 489.328 304.391 492.144 302.855 495.664C301.319 499.184 300.071 502.896 299.111 506.8C298.407 509.872 297.575 511.92 296.615 512.944C295.719 513.968 294.247 514.48 292.199 514.48C290.087 514.48 288.487 513.488 287.399 511.504C286.375 509.456 285.863 506.992 285.863 504.112C285.863 501.68 286.183 498.16 286.823 493.552C287.335 489.456 287.591 486.768 287.591 485.488C287.591 484.464 287.239 483.952 286.535 483.952C285.575 483.952 284.359 485.104 282.887 487.408C281.415 489.712 279.975 492.656 278.567 496.24C277.223 499.824 276.135 503.344 275.303 506.8C274.599 509.808 273.767 511.856 272.807 512.944C271.911 513.968 270.471 514.48 268.487 514.48ZM344.916 514.48C340.948 514.48 337.78 513.04 335.412 510.16C333.044 507.28 331.86 503.504 331.86 498.832C331.86 493.712 333.044 488.88 335.412 484.336C337.78 479.728 340.916 476.048 344.82 473.296C348.788 470.48 352.98 469.072 357.396 469.072C358.804 469.072 359.732 469.36 360.18 469.936C360.692 470.448 361.108 471.408 361.428 472.816C362.772 472.56 364.18 472.432 365.652 472.432C368.788 472.432 370.356 473.552 370.356 475.792C370.356 477.136 369.876 480.336 368.916 485.392C367.444 492.752 366.708 497.872 366.708 500.752C366.708 501.712 366.932 502.48 367.38 503.056C367.892 503.632 368.532 503.92 369.3 503.92C370.516 503.92 371.988 503.152 373.716 501.616C375.444 500.016 377.78 497.456 380.724 493.936C381.492 493.04 382.356 492.592 383.316 492.592C384.148 492.592 384.788 492.976 385.236 493.744C385.748 494.512 386.004 495.568 386.004 496.912C386.004 499.472 385.396 501.456 384.18 502.864C381.556 506.128 378.772 508.88 375.828 511.12C372.884 513.36 370.036 514.48 367.284 514.48C365.172 514.48 363.22 513.776 361.428 512.368C359.7 510.896 358.388 508.912 357.492 506.416C354.164 511.792 349.972 514.48 344.916 514.48ZM348.372 504.784C349.78 504.784 351.124 503.952 352.404 502.288C353.684 500.624 354.612 498.416 355.188 495.664L358.74 478C356.052 478.064 353.556 479.088 351.252 481.072C349.012 482.992 347.22 485.552 345.876 488.752C344.532 491.952 343.86 495.344 343.86 498.928C343.86 500.912 344.244 502.384 345.012 503.344C345.844 504.304 346.964 504.784 348.372 504.784Z"/>
</mask>
<path d="M175.464 492.592C176.296 492.592 176.936 492.976 177.384 493.744C177.896 494.512 178.152 495.568 178.152 496.912C178.152 499.408 177.544 501.392 176.328 502.864C173 506.96 169.736 509.936 166.536 511.792C163.336 513.584 159.88 514.48 156.168 514.48C150.536 514.48 146.248 511.696 143.304 506.128C140.424 500.496 138.984 492.368 138.984 481.744C138.984 474.448 139.72 465.744 141.192 455.632H141C134.6 473.232 128.456 491.344 122.568 509.968C121.928 511.952 121.128 513.328 120.168 514.096C119.208 514.864 117.832 515.248 116.04 515.248C112.968 515.248 110.984 513.712 110.088 510.64C108.488 505.52 107.24 499.408 106.344 492.304C105.448 485.136 105 477.904 105 470.608C105 466.384 105.128 462.704 105.384 459.568H105.192C102.696 472.368 100.424 482.384 98.376 489.616C96.392 496.784 93.512 502.768 89.736 507.568C85.96 512.368 81 514.768 74.856 514.768C71.528 514.768 68.552 514.064 65.928 512.656C63.368 511.184 61.384 509.232 59.976 506.8C58.568 504.368 57.864 501.744 57.864 498.928C57.864 496.944 58.376 495.376 59.4 494.224C60.424 493.008 61.864 492.4 63.72 492.4C66.216 492.4 67.752 493.616 68.328 496.048C68.904 498.416 69.832 500.24 71.112 501.52C72.456 502.736 74.088 503.344 76.008 503.344C78.44 503.344 80.776 501.264 83.016 497.104C85.32 492.944 87.688 486.256 90.12 477.04C92.616 467.824 95.304 455.6 98.184 440.368C98.696 437.552 99.752 435.568 101.352 434.416C102.952 433.2 105.32 432.592 108.456 432.592C113.704 432.592 116.136 435.376 115.752 440.944C115.432 446.384 115.272 451.312 115.272 455.728C115.272 466.096 116.04 478.256 117.576 492.208H117.768C119.432 485.104 122.024 476.784 125.544 467.248C129.064 457.712 132.808 448.72 136.776 440.272C137.8 438.032 138.696 436.4 139.464 435.376C140.232 434.352 141.096 433.648 142.056 433.264C143.016 432.816 144.36 432.592 146.088 432.592C148.776 432.592 150.824 433.264 152.232 434.608C153.704 435.888 154.312 437.744 154.056 440.176C152.456 456.304 151.656 468.88 151.656 477.904C151.656 485.776 152.264 491.952 153.48 496.432C154.696 500.848 156.712 503.056 159.528 503.056C161.64 503.056 163.656 502.416 165.576 501.136C167.56 499.792 169.992 497.392 172.872 493.936C173.576 493.04 174.44 492.592 175.464 492.592ZM182.166 514.48C178.198 514.48 175.03 513.04 172.662 510.16C170.294 507.28 169.11 503.504 169.11 498.832C169.11 493.712 170.294 488.88 172.662 484.336C175.03 479.728 178.166 476.048 182.07 473.296C186.038 470.48 190.23 469.072 194.646 469.072C196.054 469.072 196.982 469.36 197.43 469.936C197.942 470.448 198.358 471.408 198.678 472.816C200.022 472.56 201.43 472.432 202.902 472.432C206.038 472.432 207.606 473.552 207.606 475.792C207.606 477.136 207.126 480.336 206.166 485.392C204.694 492.752 203.958 497.872 203.958 500.752C203.958 501.712 204.182 502.48 204.63 503.056C205.142 503.632 205.782 503.92 206.55 503.92C207.766 503.92 209.238 503.152 210.966 501.616C212.694 500.016 215.03 497.456 217.974 493.936C218.742 493.04 219.606 492.592 220.566 492.592C221.398 492.592 222.038 492.976 222.486 493.744C222.998 494.512 223.254 495.568 223.254 496.912C223.254 499.472 222.646 501.456 221.43 502.864C218.806 506.128 216.022 508.88 213.078 511.12C210.134 513.36 207.286 514.48 204.534 514.48C202.422 514.48 200.47 513.776 198.678 512.368C196.95 510.896 195.638 508.912 194.742 506.416C191.414 511.792 187.222 514.48 182.166 514.48ZM185.622 504.784C187.03 504.784 188.374 503.952 189.654 502.288C190.934 500.624 191.862 498.416 192.438 495.664L195.99 478C193.302 478.064 190.806 479.088 188.502 481.072C186.262 482.992 184.47 485.552 183.126 488.752C181.782 491.952 181.11 495.344 181.11 498.928C181.11 500.912 181.494 502.384 182.262 503.344C183.094 504.304 184.214 504.784 185.622 504.784ZM266.716 492.592C267.548 492.592 268.188 492.976 268.636 493.744C269.148 494.512 269.404 495.568 269.404 496.912C269.404 499.472 268.796 501.456 267.58 502.864C264.828 506.256 261.852 509.04 258.652 511.216C255.516 513.392 251.932 514.48 247.9 514.48C244.508 514.48 241.756 513.264 239.644 510.832C235.996 513.2 232.188 514.416 228.22 514.48C227.388 526.832 225.5 537.136 222.556 545.392C219.612 553.712 215.292 557.872 209.596 557.872C206.14 557.872 203.58 556.624 201.916 554.128C200.252 551.632 199.42 548.176 199.42 543.76C199.42 537.488 200.86 530.16 203.74 521.776C206.62 513.456 211.068 504.272 217.084 494.224C217.084 484.88 217.02 478.384 216.892 474.736C216.828 472.88 217.564 471.408 219.1 470.32C220.636 469.232 222.556 468.688 224.86 468.688C226.204 468.688 227.164 468.976 227.74 469.552C228.38 470.064 228.732 471.12 228.796 472.72C228.796 474.32 228.828 475.504 228.892 476.272C230.94 473.712 232.956 471.888 234.94 470.8C236.924 469.648 239.036 469.072 241.276 469.072C244.86 469.072 247.772 470.512 250.012 473.392C252.316 476.272 253.468 480.048 253.468 484.72C253.468 488.112 252.924 491.408 251.836 494.608C250.748 497.808 249.244 500.72 247.324 503.344C248.668 503.728 249.788 503.92 250.684 503.92C252.796 503.92 254.812 503.152 256.732 501.616C258.652 500.08 261.116 497.52 264.124 493.936C264.892 493.04 265.756 492.592 266.716 492.592ZM228.7 505.264C231.004 504.752 233.116 503.504 235.036 501.52C237.02 499.472 238.588 496.976 239.74 494.032C240.892 491.024 241.468 487.888 241.468 484.624C241.468 482.704 241.084 481.264 240.316 480.304C239.548 479.28 238.524 478.768 237.244 478.768C234.94 478.768 232.156 481.2 228.892 486.064C228.828 488.88 228.796 493.008 228.796 498.448C228.796 501.392 228.764 503.664 228.7 505.264ZM210.364 548.464C212.092 548.464 213.532 544.688 214.684 537.136C215.836 529.648 216.572 520.304 216.892 509.104C214.14 515.504 211.964 521.616 210.364 527.44C208.764 533.264 207.964 538.16 207.964 542.128C207.964 544.176 208.22 545.744 208.732 546.832C209.18 547.92 209.724 548.464 210.364 548.464ZM268.487 514.48C266.055 514.48 264.327 513.2 263.303 510.64C262.343 508.08 261.863 503.984 261.863 498.352C261.863 490.032 263.047 482.128 265.415 474.64C265.991 472.784 266.919 471.44 268.199 470.608C269.543 469.712 271.399 469.264 273.767 469.264C275.047 469.264 275.943 469.424 276.455 469.744C276.967 470.064 277.223 470.672 277.223 471.568C277.223 472.592 276.743 474.896 275.783 478.48C275.143 481.04 274.631 483.28 274.247 485.2C273.863 487.056 273.543 489.392 273.287 492.208C275.015 487.216 277.063 482.992 279.431 479.536C281.863 476.08 284.327 473.52 286.823 471.856C289.383 470.128 291.783 469.264 294.023 469.264C296.263 469.264 297.831 469.776 298.727 470.8C299.687 471.824 300.167 473.392 300.167 475.504C300.167 477.552 299.559 481.264 298.343 486.64C297.831 488.944 297.479 490.672 297.287 491.824C300.487 483.952 304.039 478.224 307.943 474.64C311.847 471.056 315.495 469.264 318.887 469.264C323.047 469.264 325.127 471.344 325.127 475.504C325.127 478 324.423 482.512 323.015 489.04C321.799 494.608 321.191 498.288 321.191 500.08C321.191 502.64 322.119 503.92 323.975 503.92C325.255 503.92 326.759 503.152 328.487 501.616C330.279 500.016 332.647 497.456 335.591 493.936C336.359 493.04 337.223 492.592 338.183 492.592C339.015 492.592 339.655 492.976 340.103 493.744C340.615 494.512 340.871 495.568 340.871 496.912C340.871 499.472 340.263 501.456 339.047 502.864C336.295 506.256 333.319 509.04 330.119 511.216C326.983 513.392 323.399 514.48 319.367 514.48C316.103 514.48 313.639 513.552 311.975 511.696C310.311 509.776 309.479 507.024 309.479 503.44C309.479 501.648 309.927 498.448 310.823 493.84C311.655 489.808 312.071 487.024 312.071 485.488C312.071 484.464 311.719 483.952 311.015 483.952C310.183 483.952 308.999 485.04 307.463 487.216C305.927 489.328 304.391 492.144 302.855 495.664C301.319 499.184 300.071 502.896 299.111 506.8C298.407 509.872 297.575 511.92 296.615 512.944C295.719 513.968 294.247 514.48 292.199 514.48C290.087 514.48 288.487 513.488 287.399 511.504C286.375 509.456 285.863 506.992 285.863 504.112C285.863 501.68 286.183 498.16 286.823 493.552C287.335 489.456 287.591 486.768 287.591 485.488C287.591 484.464 287.239 483.952 286.535 483.952C285.575 483.952 284.359 485.104 282.887 487.408C281.415 489.712 279.975 492.656 278.567 496.24C277.223 499.824 276.135 503.344 275.303 506.8C274.599 509.808 273.767 511.856 272.807 512.944C271.911 513.968 270.471 514.48 268.487 514.48ZM344.916 514.48C340.948 514.48 337.78 513.04 335.412 510.16C333.044 507.28 331.86 503.504 331.86 498.832C331.86 493.712 333.044 488.88 335.412 484.336C337.78 479.728 340.916 476.048 344.82 473.296C348.788 470.48 352.98 469.072 357.396 469.072C358.804 469.072 359.732 469.36 360.18 469.936C360.692 470.448 361.108 471.408 361.428 472.816C362.772 472.56 364.18 472.432 365.652 472.432C368.788 472.432 370.356 473.552 370.356 475.792C370.356 477.136 369.876 480.336 368.916 485.392C367.444 492.752 366.708 497.872 366.708 500.752C366.708 501.712 366.932 502.48 367.38 503.056C367.892 503.632 368.532 503.92 369.3 503.92C370.516 503.92 371.988 503.152 373.716 501.616C375.444 500.016 377.78 497.456 380.724 493.936C381.492 493.04 382.356 492.592 383.316 492.592C384.148 492.592 384.788 492.976 385.236 493.744C385.748 494.512 386.004 495.568 386.004 496.912C386.004 499.472 385.396 501.456 384.18 502.864C381.556 506.128 378.772 508.88 375.828 511.12C372.884 513.36 370.036 514.48 367.284 514.48C365.172 514.48 363.22 513.776 361.428 512.368C359.7 510.896 358.388 508.912 357.492 506.416C354.164 511.792 349.972 514.48 344.916 514.48ZM348.372 504.784C349.78 504.784 351.124 503.952 352.404 502.288C353.684 500.624 354.612 498.416 355.188 495.664L358.74 478C356.052 478.064 353.556 479.088 351.252 481.072C349.012 482.992 347.22 485.552 345.876 488.752C344.532 491.952 343.86 495.344 343.86 498.928C343.86 500.912 344.244 502.384 345.012 503.344C345.844 504.304 346.964 504.784 348.372 504.784Z" fill="#FFFDF4"/>
<path d="M177.384 493.744L175.656 494.752L175.687 494.804L175.72 494.853L177.384 493.744ZM176.328 502.864L174.786 501.59L174.781 501.597L174.776 501.603L176.328 502.864ZM166.536 511.792L167.513 513.537L167.526 513.53L167.539 513.522L166.536 511.792ZM143.304 506.128L141.523 507.039L141.53 507.051L141.536 507.063L143.304 506.128ZM141.192 455.632L143.171 455.92L143.504 453.632H141.192V455.632ZM141 455.632V453.632H139.599L139.12 454.949L141 455.632ZM122.568 509.968L124.471 510.582L124.475 510.571L122.568 509.968ZM120.168 514.096L121.417 515.658L121.417 515.658L120.168 514.096ZM110.088 510.64L112.008 510.08L112.003 510.062L111.997 510.043L110.088 510.64ZM106.344 492.304L104.359 492.552L104.36 492.554L106.344 492.304ZM105.384 459.568L107.377 459.731L107.554 457.568H105.384V459.568ZM105.192 459.568V457.568H103.544L103.229 459.185L105.192 459.568ZM98.376 489.616L96.4516 489.071L96.4485 489.082L98.376 489.616ZM89.736 507.568L91.3079 508.805L91.3079 508.805L89.736 507.568ZM65.928 512.656L64.9311 514.39L64.9565 514.404L64.9824 514.418L65.928 512.656ZM59.976 506.8L58.2451 507.802L59.976 506.8ZM59.4 494.224L60.8948 495.553L60.9126 495.533L60.9298 495.512L59.4 494.224ZM68.328 496.048L66.3818 496.509L66.3847 496.521L68.328 496.048ZM71.112 501.52L69.6978 502.934L69.7331 502.97L69.7702 503.003L71.112 501.52ZM83.016 497.104L81.2664 496.135L81.2607 496.145L81.2551 496.156L83.016 497.104ZM90.12 477.04L88.1895 476.517L88.1862 476.53L90.12 477.04ZM98.184 440.368L100.149 440.74L100.152 440.726L98.184 440.368ZM101.352 434.416L102.521 436.039L102.542 436.024L102.562 436.008L101.352 434.416ZM115.752 440.944L113.757 440.806L113.756 440.816L113.755 440.827L115.752 440.944ZM117.576 492.208L115.588 492.427L115.784 494.208H117.576V492.208ZM117.768 492.208V494.208H119.354L119.715 492.664L117.768 492.208ZM125.544 467.248L127.42 467.941L127.42 467.941L125.544 467.248ZM136.776 440.272L138.586 441.122L138.591 441.113L138.595 441.104L136.776 440.272ZM139.464 435.376L137.864 434.176L137.864 434.176L139.464 435.376ZM142.056 433.264L142.799 435.121L142.851 435.1L142.902 435.076L142.056 433.264ZM152.232 434.608L150.851 436.055L150.885 436.087L150.92 436.117L152.232 434.608ZM154.056 440.176L152.067 439.967L152.066 439.979L154.056 440.176ZM153.48 496.432L151.55 496.956L151.552 496.963L153.48 496.432ZM165.576 501.136L166.685 502.8L166.692 502.796L166.698 502.792L165.576 501.136ZM172.872 493.936L174.408 495.216L174.427 495.194L174.445 495.172L172.872 493.936ZM175.464 494.592C175.517 494.592 175.543 494.598 175.547 494.599C175.55 494.6 175.545 494.599 175.539 494.595C175.52 494.583 175.57 494.603 175.656 494.752L179.112 492.736C178.335 491.405 177.065 490.592 175.464 490.592V494.592ZM175.72 494.853C175.934 495.175 176.152 495.792 176.152 496.912H180.152C180.152 495.344 179.858 493.849 179.048 492.635L175.72 494.853ZM176.152 496.912C176.152 499.088 175.625 500.574 174.786 501.59L177.87 504.138C179.463 502.21 180.152 499.728 180.152 496.912H176.152ZM174.776 501.603C171.541 505.584 168.454 508.368 165.533 510.062L167.539 513.522C171.018 511.504 174.459 508.336 177.88 504.125L174.776 501.603ZM165.559 510.047C162.661 511.67 159.542 512.48 156.168 512.48V516.48C160.218 516.48 164.011 515.498 167.513 513.537L165.559 510.047ZM156.168 512.48C153.698 512.48 151.604 511.875 149.817 510.715C148.018 509.547 146.421 507.745 145.072 505.193L141.536 507.063C143.131 510.079 145.15 512.453 147.639 514.069C150.14 515.693 153.006 516.48 156.168 516.48V512.48ZM145.085 505.217C142.415 499.997 140.984 492.24 140.984 481.744H136.984C136.984 492.496 138.433 500.995 141.523 507.039L145.085 505.217ZM140.984 481.744C140.984 474.574 141.708 465.971 143.171 455.92L139.213 455.344C137.732 465.517 136.984 474.322 136.984 481.744H140.984ZM141.192 453.632H141V457.632H141.192V453.632ZM139.12 454.949C132.71 472.576 126.557 490.715 120.661 509.365L124.475 510.571C130.355 491.973 136.49 473.888 142.88 456.315L139.12 454.949ZM120.665 509.354C120.07 511.196 119.426 512.128 118.919 512.534L121.417 515.658C122.83 514.528 123.786 512.708 124.471 510.582L120.665 509.354ZM118.919 512.534C118.444 512.914 117.579 513.248 116.04 513.248V517.248C118.085 517.248 119.972 516.814 121.417 515.658L118.919 512.534ZM116.04 513.248C114.845 513.248 114.041 512.955 113.472 512.515C112.896 512.068 112.37 511.323 112.008 510.08L108.168 511.2C108.702 513.029 109.616 514.588 111.024 515.677C112.439 516.773 114.163 517.248 116.04 517.248V513.248ZM111.997 510.043C110.442 505.067 109.214 499.077 108.328 492.054L104.36 492.554C105.266 499.739 106.534 505.973 108.179 511.237L111.997 510.043ZM108.329 492.056C107.443 484.971 107 477.822 107 470.608H103C103 477.986 103.453 485.301 104.359 492.552L108.329 492.056ZM107 470.608C107 466.421 107.127 462.798 107.377 459.731L103.391 459.405C103.129 462.61 103 466.347 103 470.608H107ZM105.384 457.568H105.192V461.568H105.384V457.568ZM103.229 459.185C100.737 471.964 98.4775 481.917 96.4517 489.071L100.3 490.161C102.371 482.851 104.655 472.772 107.155 459.951L103.229 459.185ZM96.4485 489.082C94.5202 496.049 91.7446 501.78 88.1641 506.331L91.3079 508.805C95.2794 503.756 98.2638 497.519 100.304 490.15L96.4485 489.082ZM88.1641 506.331C84.77 510.646 80.391 512.768 74.856 512.768V516.768C81.609 516.768 87.15 514.09 91.3079 508.805L88.1641 506.331ZM74.856 512.768C71.8186 512.768 69.174 512.128 66.8736 510.894L64.9824 514.418C67.93 516 71.2374 516.768 74.856 516.768V512.768ZM66.9249 510.922C64.6535 509.616 62.9297 507.91 61.7069 505.798L58.2451 507.802C59.8383 510.554 62.0825 512.752 64.9311 514.39L66.9249 510.922ZM61.7069 505.798C60.4755 503.671 59.864 501.393 59.864 498.928H55.864C55.864 502.095 56.6605 505.065 58.2451 507.802L61.7069 505.798ZM59.864 498.928C59.864 497.289 60.281 496.243 60.8948 495.553L57.9052 492.895C56.471 494.509 55.864 496.599 55.864 498.928H59.864ZM60.9298 495.512C61.5084 494.825 62.3442 494.4 63.72 494.4V490.4C61.3838 490.4 59.3396 491.191 57.8702 492.936L60.9298 495.512ZM63.72 494.4C64.6428 494.4 65.1751 494.621 65.5026 494.88C65.8304 495.14 66.1685 495.608 66.3818 496.509L70.2742 495.587C69.9115 494.056 69.1936 492.7 67.9854 491.744C66.7769 490.787 65.2932 490.4 63.72 490.4V494.4ZM66.3847 496.521C67.0183 499.126 68.0834 501.32 69.6978 502.934L72.5262 500.106C71.5806 499.16 70.7897 497.706 70.2713 495.575L66.3847 496.521ZM69.7702 503.003C71.5051 504.573 73.6243 505.344 76.008 505.344V501.344C74.5517 501.344 73.4069 500.899 72.4538 500.037L69.7702 503.003ZM76.008 505.344C79.6669 505.344 82.5088 502.264 84.7769 498.052L81.2551 496.156C79.0432 500.264 77.2131 501.344 76.008 501.344V505.344ZM84.7656 498.073C87.1948 493.687 89.6129 486.8 92.0538 477.55L88.1862 476.53C85.7631 485.712 83.4452 492.201 81.2664 496.135L84.7656 498.073ZM92.0505 477.563C94.5657 468.276 97.2647 455.995 100.149 440.74L96.2188 439.996C93.3433 455.205 90.6663 467.372 88.1895 476.517L92.0505 477.563ZM100.152 440.726C100.613 438.19 101.498 436.776 102.521 436.039L100.183 432.793C98.0062 434.36 96.7792 436.914 96.2163 440.01L100.152 440.726ZM102.562 436.008C103.667 435.168 105.528 434.592 108.456 434.592V430.592C105.112 430.592 102.237 431.232 100.142 432.824L102.562 436.008ZM108.456 434.592C110.753 434.592 112.012 435.197 112.71 435.996C113.433 436.823 113.931 438.286 113.757 440.806L117.747 441.082C117.957 438.034 117.431 435.321 115.722 433.364C113.988 431.379 111.407 430.592 108.456 430.592V434.592ZM113.755 440.827C113.434 446.297 113.272 451.265 113.272 455.728H117.272C117.272 451.359 117.43 446.471 117.749 441.061L113.755 440.827ZM113.272 455.728C113.272 466.189 114.047 478.426 115.588 492.427L119.564 491.989C118.033 478.086 117.272 466.003 117.272 455.728H113.272ZM117.576 494.208H117.768V490.208H117.576V494.208ZM119.715 492.664C121.355 485.665 123.919 477.427 127.42 467.941L123.668 466.555C120.129 476.141 117.509 484.543 115.821 491.752L119.715 492.664ZM127.42 467.941C130.922 458.453 134.645 449.514 138.586 441.122L134.966 439.422C130.971 447.926 127.206 456.971 123.668 466.555L127.42 467.941ZM138.595 441.104C139.603 438.898 140.428 437.424 141.064 436.576L137.864 434.176C136.964 435.376 135.997 437.166 134.957 439.44L138.595 441.104ZM141.064 436.576C141.664 435.776 142.252 435.34 142.799 435.121L141.313 431.407C139.94 431.956 138.8 432.928 137.864 434.176L141.064 436.576ZM142.902 435.076C143.481 434.806 144.49 434.592 146.088 434.592V430.592C144.23 430.592 142.551 430.826 141.21 431.452L142.902 435.076ZM146.088 434.592C148.46 434.592 149.937 435.183 150.851 436.055L153.613 433.161C151.711 431.345 149.092 430.592 146.088 430.592V434.592ZM150.92 436.117C151.774 436.86 152.274 437.999 152.067 439.967L156.045 440.385C156.35 437.489 155.634 434.916 153.544 433.099L150.92 436.117ZM152.066 439.979C150.464 456.129 149.656 468.782 149.656 477.904H153.656C153.656 468.978 154.449 456.479 156.046 440.373L152.066 439.979ZM149.656 477.904C149.656 485.849 150.266 492.227 151.55 496.956L155.41 495.908C154.262 491.677 153.656 485.703 153.656 477.904H149.656ZM151.552 496.963C152.203 499.328 153.123 501.32 154.427 502.749C155.788 504.239 157.52 505.056 159.528 505.056V501.056C158.72 501.056 158.036 500.769 157.381 500.051C156.669 499.272 155.973 497.952 155.408 495.901L151.552 496.963ZM159.528 505.056C162.071 505.056 164.469 504.278 166.685 502.8L164.467 499.472C162.843 500.554 161.209 501.056 159.528 501.056V505.056ZM166.698 502.792C168.918 501.288 171.494 498.714 174.408 495.216L171.336 492.656C168.49 496.07 166.202 498.296 164.454 499.48L166.698 502.792ZM174.445 495.172C174.818 494.696 175.129 494.592 175.464 494.592V490.592C173.751 490.592 172.334 491.384 171.299 492.7L174.445 495.172ZM172.662 510.16L174.207 508.89L174.207 508.89L172.662 510.16ZM172.662 484.336L174.436 485.26L174.441 485.25L172.662 484.336ZM182.07 473.296L183.222 474.931L183.227 474.927L182.07 473.296ZM197.43 469.936L195.851 471.164L195.928 471.262L196.016 471.35L197.43 469.936ZM198.678 472.816L196.728 473.259L197.156 475.142L199.052 474.781L198.678 472.816ZM206.166 485.392L208.127 485.784L208.129 485.775L208.131 485.765L206.166 485.392ZM204.63 503.056L203.051 504.284L203.092 504.336L203.135 504.385L204.63 503.056ZM210.966 501.616L212.295 503.111L212.31 503.097L212.325 503.084L210.966 501.616ZM217.974 493.936L216.455 492.634L216.448 492.644L216.44 492.653L217.974 493.936ZM222.486 493.744L220.758 494.752L220.789 494.804L220.822 494.853L222.486 493.744ZM221.43 502.864L219.916 501.557L219.893 501.583L219.871 501.611L221.43 502.864ZM213.078 511.12L214.289 512.712L214.289 512.712L213.078 511.12ZM198.678 512.368L197.381 513.89L197.411 513.916L197.442 513.941L198.678 512.368ZM194.742 506.416L196.624 505.74L195.224 501.838L193.041 505.363L194.742 506.416ZM189.654 502.288L188.069 501.069L188.069 501.069L189.654 502.288ZM192.438 495.664L194.396 496.074L194.397 496.066L194.399 496.058L192.438 495.664ZM195.99 478L197.951 478.394L198.444 475.941L195.942 476.001L195.99 478ZM188.502 481.072L189.804 482.591L189.807 482.588L188.502 481.072ZM183.126 488.752L184.97 489.526L184.97 489.526L183.126 488.752ZM182.262 503.344L180.7 504.593L180.725 504.624L180.751 504.654L182.262 503.344ZM182.166 512.48C178.752 512.48 176.168 511.275 174.207 508.89L171.117 511.43C173.892 514.805 177.644 516.48 182.166 516.48V512.48ZM174.207 508.89C172.201 506.451 171.11 503.161 171.11 498.832H167.11C167.11 503.847 168.387 508.109 171.117 511.43L174.207 508.89ZM171.11 498.832C171.11 494.034 172.216 489.519 174.436 485.26L170.888 483.412C168.372 488.241 167.11 493.39 167.11 498.832H171.11ZM174.441 485.25C176.674 480.905 179.604 477.481 183.222 474.931L180.918 471.661C176.728 474.615 173.386 478.551 170.883 483.422L174.441 485.25ZM183.227 474.927C186.893 472.325 190.687 471.072 194.646 471.072V467.072C189.773 467.072 185.183 468.635 180.913 471.665L183.227 474.927ZM194.646 471.072C195.231 471.072 195.598 471.134 195.805 471.198C196.006 471.26 195.95 471.29 195.851 471.164L199.009 468.708C197.946 467.342 196.144 467.072 194.646 467.072V471.072ZM196.016 471.35C196.105 471.439 196.423 471.918 196.728 473.259L200.628 472.373C200.293 470.898 199.779 469.457 198.844 468.522L196.016 471.35ZM199.052 474.781C200.264 474.55 201.546 474.432 202.902 474.432V470.432C201.314 470.432 199.78 470.57 198.304 470.851L199.052 474.781ZM202.902 474.432C204.292 474.432 204.976 474.691 205.268 474.899C205.435 475.019 205.606 475.198 205.606 475.792H209.606C209.606 474.146 208.993 472.645 207.592 471.645C206.316 470.733 204.648 470.432 202.902 470.432V474.432ZM205.606 475.792C205.606 476.907 205.173 479.899 204.201 485.019L208.131 485.765C209.079 480.773 209.606 477.365 209.606 475.792H205.606ZM204.205 485C202.735 492.347 201.958 497.649 201.958 500.752H205.958C205.958 498.095 206.653 493.157 208.127 485.784L204.205 485ZM201.958 500.752C201.958 502.016 202.255 503.26 203.051 504.284L206.209 501.828C206.109 501.7 205.958 501.408 205.958 500.752H201.958ZM203.135 504.385C204.025 505.386 205.208 505.92 206.55 505.92V501.92C206.356 501.92 206.259 501.878 206.125 501.727L203.135 504.385ZM206.55 505.92C208.539 505.92 210.489 504.716 212.295 503.111L209.637 500.121C207.987 501.588 206.993 501.92 206.55 501.92V505.92ZM212.325 503.084C214.149 501.395 216.55 498.755 219.508 495.219L216.44 492.653C213.51 496.157 211.239 498.637 209.607 500.148L212.325 503.084ZM219.493 495.238C219.975 494.674 220.321 494.592 220.566 494.592V490.592C218.891 490.592 217.509 491.406 216.455 492.634L219.493 495.238ZM220.566 494.592C220.619 494.592 220.645 494.598 220.649 494.599C220.652 494.6 220.647 494.599 220.641 494.595C220.622 494.583 220.672 494.603 220.758 494.752L224.214 492.736C223.437 491.405 222.167 490.592 220.566 490.592V494.592ZM220.822 494.853C221.036 495.175 221.254 495.792 221.254 496.912H225.254C225.254 495.344 224.96 493.849 224.15 492.635L220.822 494.853ZM221.254 496.912C221.254 499.172 220.718 500.629 219.916 501.557L222.944 504.171C224.574 502.283 225.254 499.772 225.254 496.912H221.254ZM219.871 501.611C217.336 504.765 214.666 507.399 211.867 509.528L214.289 512.712C217.378 510.361 220.276 507.491 222.989 504.117L219.871 501.611ZM211.867 509.528C209.152 511.594 206.72 512.48 204.534 512.48V516.48C207.852 516.48 211.116 515.126 214.289 512.712L211.867 509.528ZM204.534 512.48C202.907 512.48 201.383 511.95 199.914 510.795L197.442 513.941C199.557 515.602 201.937 516.48 204.534 516.48V512.48ZM199.975 510.846C198.554 509.635 197.422 507.964 196.624 505.74L192.86 507.092C193.854 509.86 195.346 512.157 197.381 513.89L199.975 510.846ZM193.041 505.363C189.973 510.32 186.351 512.48 182.166 512.48V516.48C188.093 516.48 192.855 513.264 196.443 507.469L193.041 505.363ZM185.622 506.784C187.91 506.784 189.773 505.414 191.239 503.507L188.069 501.069C186.975 502.49 186.15 502.784 185.622 502.784V506.784ZM191.239 503.507C192.754 501.538 193.778 499.025 194.396 496.074L190.48 495.254C189.946 497.807 189.114 499.71 188.069 501.069L191.239 503.507ZM194.399 496.058L197.951 478.394L194.029 477.606L190.477 495.27L194.399 496.058ZM195.942 476.001C192.732 476.077 189.803 477.312 187.197 479.556L189.807 482.588C191.809 480.864 193.872 480.051 196.038 479.999L195.942 476.001ZM187.2 479.553C184.686 481.709 182.725 484.541 181.282 487.978L184.97 489.526C186.215 486.563 187.838 484.275 189.804 482.591L187.2 479.553ZM181.282 487.978C179.832 491.431 179.11 495.087 179.11 498.928H183.11C183.11 495.601 183.732 492.473 184.97 489.526L181.282 487.978ZM179.11 498.928C179.11 501.107 179.521 503.119 180.7 504.593L183.824 502.095C183.467 501.649 183.11 500.717 183.11 498.928H179.11ZM180.751 504.654C182.006 506.103 183.705 506.784 185.622 506.784V502.784C184.723 502.784 184.182 502.505 183.773 502.034L180.751 504.654ZM268.636 493.744L266.908 494.752L266.938 494.804L266.972 494.853L268.636 493.744ZM267.58 502.864L266.066 501.557L266.046 501.58L266.027 501.604L267.58 502.864ZM258.652 511.216L257.527 509.562L257.519 509.567L257.512 509.573L258.652 511.216ZM239.644 510.832L241.154 509.521L240.014 508.208L238.555 509.154L239.644 510.832ZM228.22 514.48L228.187 512.48L226.348 512.51L226.224 514.346L228.22 514.48ZM222.556 545.392L220.672 544.72L220.67 544.725L222.556 545.392ZM203.74 521.776L201.85 521.122L201.848 521.126L203.74 521.776ZM217.084 494.224L218.8 495.251L219.084 494.777V494.224H217.084ZM216.892 474.736L214.893 474.805L214.893 474.806L216.892 474.736ZM219.1 470.32L220.256 471.952L220.256 471.952L219.1 470.32ZM227.74 469.552L226.326 470.966L226.404 471.045L226.49 471.114L227.74 469.552ZM228.796 472.72H230.796V472.68L230.794 472.64L228.796 472.72ZM228.892 476.272L226.899 476.438L227.316 481.444L230.453 477.521L228.892 476.272ZM234.94 470.8L235.901 472.554L235.923 472.542L235.944 472.53L234.94 470.8ZM250.012 473.392L248.433 474.62L248.441 474.631L248.45 474.641L250.012 473.392ZM251.836 494.608L249.942 493.964L249.942 493.964L251.836 494.608ZM247.324 503.344L245.71 502.163L244.015 504.479L246.774 505.267L247.324 503.344ZM264.124 493.936L262.605 492.634L262.598 492.642L262.592 492.65L264.124 493.936ZM228.7 505.264L226.701 505.184L226.598 507.78L229.134 507.216L228.7 505.264ZM235.036 501.52L233.599 500.128L233.599 500.129L235.036 501.52ZM239.74 494.032L241.602 494.761L241.605 494.754L241.607 494.747L239.74 494.032ZM240.316 480.304L238.716 481.504L238.734 481.529L238.754 481.553L240.316 480.304ZM228.892 486.064L227.231 484.95L226.906 485.435L226.892 486.019L228.892 486.064ZM214.684 537.136L212.707 536.832L212.707 536.834L214.684 537.136ZM216.892 509.104L218.891 509.161L215.054 508.314L216.892 509.104ZM210.364 527.44L208.435 526.91L208.435 526.91L210.364 527.44ZM208.732 546.832L210.581 546.071L210.562 546.025L210.541 545.98L208.732 546.832ZM266.716 494.592C266.769 494.592 266.794 494.598 266.799 494.599C266.802 494.6 266.797 494.599 266.791 494.595C266.772 494.583 266.821 494.603 266.908 494.752L270.363 492.736C269.587 491.405 268.317 490.592 266.716 490.592V494.592ZM266.972 494.853C267.186 495.175 267.404 495.792 267.404 496.912H271.404C271.404 495.344 271.11 493.849 270.3 492.635L266.972 494.853ZM267.404 496.912C267.404 499.172 266.868 500.629 266.066 501.557L269.093 504.171C270.724 502.283 271.404 499.772 271.404 496.912H267.404ZM266.027 501.604C263.382 504.864 260.547 507.509 257.527 509.562L259.776 512.87C263.157 510.571 266.274 507.648 269.133 504.124L266.027 501.604ZM257.512 509.573C254.73 511.503 251.549 512.48 247.9 512.48V516.48C252.315 516.48 256.302 515.281 259.792 512.859L257.512 509.573ZM247.9 512.48C245.052 512.48 242.864 511.489 241.154 509.521L238.134 512.143C240.648 515.039 243.963 516.48 247.9 516.48V512.48ZM238.555 509.154C235.191 511.338 231.744 512.423 228.187 512.48L228.252 516.48C232.631 516.409 236.801 515.062 240.733 512.51L238.555 509.154ZM226.224 514.346C225.4 526.583 223.535 536.692 220.672 544.72L224.44 546.064C227.465 537.58 229.376 527.081 230.215 514.614L226.224 514.346ZM220.67 544.725C217.827 552.759 214.005 555.872 209.596 555.872V559.872C216.578 559.872 221.396 554.665 224.441 546.059L220.67 544.725ZM209.596 555.872C206.69 555.872 204.812 554.866 203.58 553.019L200.252 555.237C202.348 558.382 205.589 559.872 209.596 559.872V555.872ZM203.58 553.019C202.216 550.972 201.42 547.957 201.42 543.76H197.42C197.42 548.395 198.288 552.292 200.252 555.237L203.58 553.019ZM201.42 543.76C201.42 537.78 202.796 530.68 205.631 522.426L201.848 521.126C198.924 529.64 197.42 537.196 197.42 543.76H201.42ZM205.63 522.43C208.453 514.275 212.833 505.217 218.8 495.251L215.368 493.197C209.303 503.327 204.787 512.637 201.85 521.122L205.63 522.43ZM219.084 494.224C219.084 484.882 219.02 478.353 218.891 474.666L214.893 474.806C215.02 478.415 215.084 484.878 215.084 494.224H219.084ZM218.891 474.667C218.85 473.495 219.26 472.657 220.256 471.952L217.944 468.688C215.867 470.159 214.805 472.265 214.893 474.805L218.891 474.667ZM220.256 471.952C221.384 471.153 222.876 470.688 224.86 470.688V466.688C222.236 466.688 219.887 467.311 217.944 468.688L220.256 471.952ZM224.86 470.688C226.001 470.688 226.306 470.946 226.326 470.966L229.154 468.138C228.022 467.006 226.407 466.688 224.86 466.688V470.688ZM226.49 471.114C226.419 471.057 226.49 471.071 226.586 471.36C226.683 471.651 226.77 472.113 226.797 472.8L230.794 472.64C230.727 470.956 230.362 469.088 228.989 467.99L226.49 471.114ZM226.796 472.72C226.796 474.33 226.827 475.583 226.899 476.438L230.885 476.106C230.828 475.425 230.796 474.31 230.796 472.72H226.796ZM230.453 477.521C232.405 475.083 234.228 473.471 235.901 472.554L233.978 469.046C231.683 470.305 229.475 472.341 227.33 475.023L230.453 477.521ZM235.944 472.53C237.631 471.55 239.397 471.072 241.276 471.072V467.072C238.674 467.072 236.217 467.746 233.935 469.07L235.944 472.53ZM241.276 471.072C244.23 471.072 246.564 472.217 248.433 474.62L251.59 472.164C248.98 468.807 245.49 467.072 241.276 467.072V471.072ZM248.45 474.641C250.402 477.081 251.468 480.379 251.468 484.72H255.468C255.468 479.717 254.23 475.463 251.573 472.143L248.45 474.641ZM251.468 484.72C251.468 487.894 250.959 490.972 249.942 493.964L253.729 495.252C254.888 491.844 255.468 488.33 255.468 484.72H251.468ZM249.942 493.964C248.917 496.98 247.505 499.709 245.71 502.163L248.938 504.525C250.982 501.731 252.579 498.636 253.729 495.252L249.942 493.964ZM246.774 505.267C248.209 505.677 249.528 505.92 250.684 505.92V501.92C250.047 501.92 249.126 501.779 247.873 501.421L246.774 505.267ZM250.684 505.92C253.322 505.92 255.767 504.949 257.981 503.178L255.482 500.054C253.856 501.355 252.269 501.92 250.684 501.92V505.92ZM257.981 503.178C260.059 501.516 262.624 498.834 265.656 495.222L262.592 492.65C259.607 496.206 257.245 498.644 255.482 500.054L257.981 503.178ZM265.642 495.238C266.125 494.674 266.471 494.592 266.716 494.592V490.592C265.04 490.592 263.658 491.406 262.605 492.634L265.642 495.238ZM229.134 507.216C231.881 506.606 234.328 505.127 236.473 502.911L233.599 500.129C231.904 501.881 230.126 502.898 228.266 503.312L229.134 507.216ZM236.472 502.912C238.66 500.653 240.364 497.925 241.602 494.761L237.877 493.303C236.811 496.027 235.38 498.291 233.599 500.128L236.472 502.912ZM241.607 494.747C242.848 491.508 243.468 488.129 243.468 484.624H239.468C239.468 487.647 238.935 490.54 237.872 493.317L241.607 494.747ZM243.468 484.624C243.468 482.49 243.05 480.52 241.877 479.055L238.754 481.553C239.118 482.008 239.468 482.918 239.468 484.624H243.468ZM241.916 479.104C240.77 477.576 239.153 476.768 237.244 476.768V480.768C237.894 480.768 238.325 480.984 238.716 481.504L241.916 479.104ZM237.244 476.768C235.389 476.768 233.661 477.733 232.112 479.086C230.535 480.463 228.911 482.446 227.231 484.95L230.552 487.178C232.137 484.818 233.537 483.153 234.744 482.098C235.979 481.019 236.794 480.768 237.244 480.768V476.768ZM226.892 486.019C226.828 488.858 226.796 493.004 226.796 498.448H230.796C230.796 493.012 230.828 488.902 230.891 486.109L226.892 486.019ZM226.796 498.448C226.796 501.383 226.764 503.624 226.701 505.184L230.698 505.344C230.764 503.704 230.796 501.401 230.796 498.448H226.796ZM210.364 550.464C211.606 550.464 212.53 549.766 213.138 549.041C213.74 548.324 214.213 547.381 214.608 546.345C215.406 544.254 216.079 541.253 216.661 537.438L212.707 536.834C212.137 540.571 211.514 543.234 210.871 544.919C210.546 545.771 210.264 546.244 210.074 546.471C209.89 546.69 209.985 546.464 210.364 546.464V550.464ZM216.66 537.44C217.829 529.842 218.57 520.409 218.891 509.161L214.893 509.047C214.574 520.199 213.842 529.454 212.707 536.832L216.66 537.44ZM215.054 508.314C212.271 514.786 210.063 520.985 208.435 526.91L212.292 527.97C213.865 522.247 216.008 516.222 218.729 509.894L215.054 508.314ZM208.435 526.91C206.81 532.827 205.964 537.914 205.964 542.128H209.964C209.964 538.406 210.718 533.701 212.292 527.97L208.435 526.91ZM205.964 542.128C205.964 544.291 206.226 546.204 206.922 547.684L210.541 545.98C210.214 545.284 209.964 544.061 209.964 542.128H205.964ZM206.882 547.593C207.367 548.771 208.382 550.464 210.364 550.464V546.464C210.497 546.464 210.628 546.495 210.737 546.545C210.839 546.592 210.888 546.64 210.89 546.642C210.89 546.642 210.855 546.606 210.795 546.507C210.735 546.409 210.662 546.268 210.581 546.071L206.882 547.593ZM263.303 510.64L261.43 511.342L261.437 511.363L261.446 511.383L263.303 510.64ZM265.415 474.64L267.321 475.243L267.325 475.233L265.415 474.64ZM268.199 470.608L269.288 472.285L269.298 472.279L269.308 472.272L268.199 470.608ZM275.783 478.48L273.851 477.963L273.846 477.979L273.842 477.995L275.783 478.48ZM274.247 485.2L276.205 485.605L276.208 485.592L274.247 485.2ZM273.287 492.208L271.295 492.027L275.176 492.862L273.287 492.208ZM279.431 479.536L277.795 478.385L277.788 478.395L277.781 478.406L279.431 479.536ZM286.823 471.856L287.932 473.52L287.941 473.514L286.823 471.856ZM298.727 470.8L297.221 472.117L297.244 472.143L297.267 472.168L298.727 470.8ZM298.343 486.64L296.392 486.199L296.39 486.206L298.343 486.64ZM297.287 491.824L295.314 491.495L299.139 492.577L297.287 491.824ZM307.943 474.64L306.59 473.167L306.59 473.167L307.943 474.64ZM323.015 489.04L324.968 489.467L324.97 489.462L323.015 489.04ZM328.487 501.616L329.815 503.111L329.819 503.108L328.487 501.616ZM335.591 493.936L334.072 492.634L334.064 492.644L334.056 492.653L335.591 493.936ZM340.103 493.744L338.375 494.752L338.405 494.804L338.438 494.853L340.103 493.744ZM339.047 502.864L337.533 501.557L337.513 501.58L337.493 501.604L339.047 502.864ZM330.119 511.216L328.994 509.562L328.986 509.567L328.978 509.573L330.119 511.216ZM311.975 511.696L310.463 513.006L310.474 513.019L310.485 513.031L311.975 511.696ZM310.823 493.84L308.864 493.436L308.861 493.447L308.859 493.458L310.823 493.84ZM307.463 487.216L309.08 488.392L309.088 488.381L309.096 488.369L307.463 487.216ZM302.855 495.664L301.021 494.864L301.021 494.864L302.855 495.664ZM299.111 506.8L297.168 506.322L297.165 506.338L297.161 506.353L299.111 506.8ZM296.615 512.944L295.155 511.576L295.132 511.601L295.109 511.627L296.615 512.944ZM287.399 511.504L285.61 512.398L285.627 512.432L285.645 512.466L287.399 511.504ZM286.823 493.552L288.803 493.827L288.805 493.814L288.807 493.8L286.823 493.552ZM282.887 487.408L284.572 488.485L284.572 488.485L282.887 487.408ZM278.567 496.24L276.705 495.509L276.699 495.523L276.694 495.538L278.567 496.24ZM275.303 506.8L273.358 506.332L273.355 506.344L275.303 506.8ZM272.807 512.944L271.307 511.621L271.301 511.627L272.807 512.944ZM268.487 512.48C267.64 512.48 267.032 512.265 266.557 511.913C266.064 511.548 265.572 510.929 265.159 509.897L261.446 511.383C262.057 512.911 262.941 514.212 264.176 515.127C265.429 516.055 266.901 516.48 268.487 516.48V512.48ZM265.175 509.938C264.349 507.734 263.863 503.943 263.863 498.352H259.863C259.863 504.025 260.336 508.426 261.43 511.342L265.175 509.938ZM263.863 498.352C263.863 490.224 265.019 482.525 267.321 475.243L263.508 474.037C261.074 481.731 259.863 489.84 259.863 498.352H263.863ZM267.325 475.233C267.801 473.698 268.497 472.799 269.288 472.285L267.109 468.931C265.34 470.081 264.18 471.87 263.504 474.047L267.325 475.233ZM269.308 472.272C270.203 471.675 271.619 471.264 273.767 471.264V467.264C271.178 467.264 268.882 467.749 267.089 468.944L269.308 472.272ZM273.767 471.264C274.332 471.264 274.751 471.3 275.047 471.353C275.359 471.409 275.436 471.466 275.395 471.44L277.514 468.048C276.487 467.406 275.086 467.264 273.767 467.264V471.264ZM275.395 471.44C275.341 471.407 275.291 471.363 275.25 471.313C275.21 471.265 275.192 471.227 275.187 471.216C275.183 471.207 275.193 471.226 275.203 471.286C275.213 471.346 275.223 471.438 275.223 471.568H279.223C279.223 470.342 278.862 468.89 277.514 468.048L275.395 471.44ZM275.223 471.568C275.223 471.856 275.143 472.511 274.905 473.656C274.675 474.757 274.326 476.189 273.851 477.963L277.714 478.997C278.199 477.187 278.57 475.675 278.82 474.472C279.062 473.313 279.223 472.304 279.223 471.568H275.223ZM273.842 477.995C273.197 480.576 272.677 482.848 272.285 484.808L276.208 485.592C276.584 483.712 277.088 481.504 277.723 478.965L273.842 477.995ZM272.288 484.795C271.883 486.751 271.555 489.168 271.295 492.027L275.278 492.389C275.53 489.616 275.842 487.361 276.205 485.605L272.288 484.795ZM275.176 492.862C276.861 487.997 278.836 483.943 281.08 480.666L277.781 478.406C275.289 482.041 273.168 486.435 271.397 491.554L275.176 492.862ZM281.066 480.687C283.41 477.357 285.707 475.003 287.932 473.52L285.713 470.192C282.946 472.037 280.315 474.803 277.795 478.385L281.066 480.687ZM287.941 473.514C290.292 471.927 292.306 471.264 294.023 471.264V467.264C291.259 467.264 288.473 468.329 285.704 470.198L287.941 473.514ZM294.023 471.264C296.048 471.264 296.892 471.74 297.221 472.117L300.232 469.483C298.769 467.812 296.477 467.264 294.023 467.264V471.264ZM297.267 472.168C297.74 472.672 298.167 473.649 298.167 475.504H302.167C302.167 473.135 301.633 470.976 300.186 469.432L297.267 472.168ZM298.167 475.504C298.167 477.298 297.612 480.803 296.392 486.199L300.293 487.081C301.505 481.725 302.167 477.806 302.167 475.504H298.167ZM296.39 486.206C295.877 488.517 295.515 490.288 295.314 491.495L299.259 492.153C299.442 491.056 299.784 489.371 300.295 487.074L296.39 486.206ZM299.139 492.577C302.288 484.832 305.702 479.412 309.295 476.113L306.59 473.167C302.375 477.036 298.685 483.072 295.434 491.071L299.139 492.577ZM309.295 476.113C313.029 472.685 316.212 471.264 318.887 471.264V467.264C314.777 467.264 310.664 469.427 306.59 473.167L309.295 476.113ZM318.887 471.264C320.658 471.264 321.62 471.706 322.152 472.238C322.685 472.771 323.127 473.732 323.127 475.504H327.127C327.127 473.116 326.528 470.957 324.981 469.41C323.433 467.862 321.275 467.264 318.887 467.264V471.264ZM323.127 475.504C323.127 477.758 322.471 482.073 321.059 488.618L324.97 489.462C326.374 482.951 327.127 478.242 327.127 475.504H323.127ZM321.061 488.613C319.854 494.136 319.191 498.033 319.191 500.08H323.191C323.191 498.543 323.743 495.08 324.968 489.467L321.061 488.613ZM319.191 500.08C319.191 501.542 319.445 502.999 320.267 504.134C321.176 505.388 322.533 505.92 323.975 505.92V501.92C323.739 501.92 323.629 501.88 323.592 501.863C323.566 501.851 323.543 501.837 323.506 501.786C323.4 501.641 323.191 501.178 323.191 500.08H319.191ZM323.975 505.92C326.01 505.92 327.986 504.737 329.815 503.111L327.158 500.121C325.531 501.567 324.499 501.92 323.975 501.92V505.92ZM329.819 503.108C331.721 501.409 334.164 498.759 337.125 495.219L334.056 492.653C331.129 496.153 328.836 498.623 327.154 500.124L329.819 503.108ZM337.109 495.238C337.592 494.674 337.938 494.592 338.183 494.592V490.592C336.507 490.592 335.125 491.406 334.072 492.634L337.109 495.238ZM338.183 494.592C338.236 494.592 338.261 494.598 338.266 494.599C338.269 494.6 338.264 494.599 338.258 494.595C338.238 494.583 338.288 494.603 338.375 494.752L341.83 492.736C341.054 491.405 339.783 490.592 338.183 490.592V494.592ZM338.438 494.853C338.653 495.175 338.871 495.792 338.871 496.912H342.871C342.871 495.344 342.576 493.849 341.767 492.635L338.438 494.853ZM338.871 496.912C338.871 499.172 338.334 500.629 337.533 501.557L340.56 504.171C342.191 502.283 342.871 499.772 342.871 496.912H338.871ZM337.493 501.604C334.849 504.864 332.013 507.509 328.994 509.562L331.243 512.87C334.624 510.571 337.74 507.648 340.6 504.124L337.493 501.604ZM328.978 509.573C326.197 511.503 323.015 512.48 319.367 512.48V516.48C323.782 516.48 327.768 515.281 331.259 512.859L328.978 509.573ZM319.367 512.48C316.485 512.48 314.64 511.673 313.464 510.361L310.485 513.031C312.637 515.431 315.72 516.48 319.367 516.48V512.48ZM313.486 510.386C312.245 508.955 311.479 506.739 311.479 503.44H307.479C307.479 507.309 308.376 510.597 310.463 513.006L313.486 510.386ZM311.479 503.44C311.479 501.866 311.887 498.843 312.786 494.222L308.859 493.458C307.966 498.053 307.479 501.43 307.479 503.44H311.479ZM312.781 494.244C313.61 490.229 314.071 487.256 314.071 485.488H310.071C310.071 486.792 309.699 489.387 308.864 493.436L312.781 494.244ZM314.071 485.488C314.071 484.809 313.965 483.945 313.455 483.203C312.851 482.325 311.923 481.952 311.015 481.952V485.952C310.948 485.952 310.793 485.939 310.604 485.848C310.406 485.751 310.255 485.609 310.158 485.469C310.071 485.342 310.053 485.253 310.055 485.263C310.057 485.272 310.071 485.34 310.071 485.488H314.071ZM311.015 481.952C309.801 481.952 308.81 482.688 308.149 483.295C307.407 483.977 306.633 484.924 305.829 486.063L309.096 488.369C309.828 487.332 310.414 486.647 310.856 486.241C311.075 486.039 311.214 485.949 311.274 485.916C311.339 485.881 311.239 485.952 311.015 485.952V481.952ZM305.845 486.04C304.194 488.31 302.591 491.267 301.021 494.864L304.688 496.464C306.19 493.021 307.659 490.346 309.08 488.392L305.845 486.04ZM301.021 494.864C299.438 498.493 298.154 502.313 297.168 506.322L301.053 507.278C301.987 503.479 303.199 499.875 304.688 496.464L301.021 494.864ZM297.161 506.353C296.46 509.411 295.716 510.978 295.155 511.576L298.074 514.312C299.433 512.862 300.353 510.333 301.06 507.247L297.161 506.353ZM295.109 511.627C294.751 512.036 293.963 512.48 292.199 512.48V516.48C294.53 516.48 296.686 515.9 298.12 514.261L295.109 511.627ZM292.199 512.48C291.468 512.48 290.914 512.313 290.468 512.036C290.015 511.755 289.564 511.293 289.152 510.542L285.645 512.466C286.321 513.699 287.214 514.725 288.361 515.436C289.515 516.151 290.817 516.48 292.199 516.48V512.48ZM289.187 510.61C288.333 508.902 287.863 506.76 287.863 504.112H283.863C283.863 507.224 284.416 510.01 285.61 512.398L289.187 510.61ZM287.863 504.112C287.863 501.821 288.167 498.41 288.803 493.827L284.842 493.277C284.198 497.91 283.863 501.539 283.863 504.112H287.863ZM288.807 493.8C289.316 489.732 289.591 486.915 289.591 485.488H285.591C285.591 486.621 285.353 489.18 284.838 493.304L288.807 493.8ZM289.591 485.488C289.591 484.809 289.485 483.945 288.975 483.203C288.371 482.325 287.443 481.952 286.535 481.952V485.952C286.468 485.952 286.313 485.939 286.124 485.848C285.926 485.751 285.775 485.609 285.678 485.469C285.591 485.342 285.573 485.253 285.575 485.263C285.577 485.272 285.591 485.34 285.591 485.488H289.591ZM286.535 481.952C285.276 481.952 284.252 482.677 283.527 483.364C282.75 484.1 281.977 485.117 281.201 486.331L284.572 488.485C285.268 487.395 285.839 486.684 286.278 486.268C286.769 485.803 286.833 485.952 286.535 485.952V481.952ZM281.201 486.331C279.638 488.779 278.143 491.849 276.705 495.509L280.428 496.971C281.806 493.463 283.191 490.645 284.572 488.485L281.201 486.331ZM276.694 495.538C275.323 499.192 274.211 502.791 273.358 506.332L277.247 507.268C278.058 503.897 279.122 500.456 280.439 496.942L276.694 495.538ZM273.355 506.344C272.66 509.316 271.913 510.933 271.307 511.621L274.306 514.267C275.62 512.779 276.537 510.3 277.25 507.256L273.355 506.344ZM271.301 511.627C270.933 512.049 270.163 512.48 268.487 512.48V516.48C270.778 516.48 272.888 515.887 274.312 514.261L271.301 511.627ZM335.412 510.16L336.957 508.89L336.957 508.89L335.412 510.16ZM335.412 484.336L337.186 485.26L337.191 485.25L335.412 484.336ZM344.82 473.296L345.972 474.931L345.977 474.927L344.82 473.296ZM360.18 469.936L358.601 471.164L358.678 471.262L358.766 471.35L360.18 469.936ZM361.428 472.816L359.478 473.259L359.906 475.142L361.802 474.781L361.428 472.816ZM368.916 485.392L370.877 485.784L370.879 485.775L370.881 485.765L368.916 485.392ZM367.38 503.056L365.801 504.284L365.842 504.336L365.885 504.385L367.38 503.056ZM373.716 501.616L375.045 503.111L375.06 503.097L375.075 503.084L373.716 501.616ZM380.724 493.936L379.205 492.634L379.198 492.644L379.19 492.653L380.724 493.936ZM385.236 493.744L383.508 494.752L383.539 494.804L383.572 494.853L385.236 493.744ZM384.18 502.864L382.666 501.557L382.643 501.583L382.621 501.611L384.18 502.864ZM375.828 511.12L377.039 512.712L377.039 512.712L375.828 511.12ZM361.428 512.368L360.131 513.89L360.161 513.916L360.192 513.941L361.428 512.368ZM357.492 506.416L359.374 505.74L357.974 501.838L355.791 505.363L357.492 506.416ZM352.404 502.288L350.819 501.069L350.819 501.069L352.404 502.288ZM355.188 495.664L357.146 496.074L357.147 496.066L357.149 496.058L355.188 495.664ZM358.74 478L360.701 478.394L361.194 475.941L358.692 476.001L358.74 478ZM351.252 481.072L352.554 482.591L352.557 482.588L351.252 481.072ZM345.876 488.752L347.72 489.526L347.72 489.526L345.876 488.752ZM345.012 503.344L343.45 504.593L343.475 504.624L343.501 504.654L345.012 503.344ZM344.916 512.48C341.502 512.48 338.918 511.275 336.957 508.89L333.867 511.43C336.642 514.805 340.394 516.48 344.916 516.48V512.48ZM336.957 508.89C334.951 506.451 333.86 503.161 333.86 498.832H329.86C329.86 503.847 331.137 508.109 333.867 511.43L336.957 508.89ZM333.86 498.832C333.86 494.034 334.966 489.519 337.186 485.26L333.638 483.412C331.122 488.241 329.86 493.39 329.86 498.832H333.86ZM337.191 485.25C339.424 480.905 342.354 477.481 345.972 474.931L343.668 471.661C339.478 474.615 336.136 478.551 333.633 483.422L337.191 485.25ZM345.977 474.927C349.643 472.325 353.437 471.072 357.396 471.072V467.072C352.523 467.072 347.933 468.635 343.663 471.665L345.977 474.927ZM357.396 471.072C357.981 471.072 358.348 471.134 358.555 471.198C358.756 471.26 358.7 471.29 358.601 471.164L361.759 468.708C360.696 467.342 358.894 467.072 357.396 467.072V471.072ZM358.766 471.35C358.855 471.439 359.173 471.918 359.478 473.259L363.378 472.373C363.043 470.898 362.529 469.457 361.594 468.522L358.766 471.35ZM361.802 474.781C363.014 474.55 364.296 474.432 365.652 474.432V470.432C364.064 470.432 362.53 470.57 361.054 470.851L361.802 474.781ZM365.652 474.432C367.042 474.432 367.726 474.691 368.018 474.899C368.185 475.019 368.356 475.198 368.356 475.792H372.356C372.356 474.146 371.743 472.645 370.342 471.645C369.066 470.733 367.398 470.432 365.652 470.432V474.432ZM368.356 475.792C368.356 476.907 367.923 479.899 366.951 485.019L370.881 485.765C371.829 480.773 372.356 477.365 372.356 475.792H368.356ZM366.955 485C365.485 492.347 364.708 497.649 364.708 500.752H368.708C368.708 498.095 369.403 493.157 370.877 485.784L366.955 485ZM364.708 500.752C364.708 502.016 365.005 503.26 365.801 504.284L368.959 501.828C368.859 501.7 368.708 501.408 368.708 500.752H364.708ZM365.885 504.385C366.775 505.386 367.958 505.92 369.3 505.92V501.92C369.106 501.92 369.009 501.878 368.875 501.727L365.885 504.385ZM369.3 505.92C371.289 505.92 373.239 504.716 375.045 503.111L372.387 500.121C370.737 501.588 369.743 501.92 369.3 501.92V505.92ZM375.075 503.084C376.899 501.395 379.3 498.755 382.258 495.219L379.19 492.653C376.26 496.157 373.989 498.637 372.357 500.148L375.075 503.084ZM382.243 495.238C382.725 494.674 383.071 494.592 383.316 494.592V490.592C381.641 490.592 380.259 491.406 379.205 492.634L382.243 495.238ZM383.316 494.592C383.369 494.592 383.395 494.598 383.399 494.599C383.402 494.6 383.397 494.599 383.391 494.595C383.372 494.583 383.422 494.603 383.508 494.752L386.964 492.736C386.187 491.405 384.917 490.592 383.316 490.592V494.592ZM383.572 494.853C383.786 495.175 384.004 495.792 384.004 496.912H388.004C388.004 495.344 387.71 493.849 386.9 492.635L383.572 494.853ZM384.004 496.912C384.004 499.172 383.468 500.629 382.666 501.557L385.694 504.171C387.324 502.283 388.004 499.772 388.004 496.912H384.004ZM382.621 501.611C380.086 504.765 377.416 507.399 374.617 509.528L377.039 512.712C380.128 510.361 383.026 507.491 385.739 504.117L382.621 501.611ZM374.617 509.528C371.902 511.594 369.47 512.48 367.284 512.48V516.48C370.602 516.48 373.866 515.126 377.039 512.712L374.617 509.528ZM367.284 512.48C365.657 512.48 364.133 511.95 362.664 510.795L360.192 513.941C362.307 515.602 364.687 516.48 367.284 516.48V512.48ZM362.725 510.846C361.304 509.635 360.172 507.964 359.374 505.74L355.61 507.092C356.604 509.86 358.096 512.157 360.131 513.89L362.725 510.846ZM355.791 505.363C352.723 510.32 349.101 512.48 344.916 512.48V516.48C350.843 516.48 355.605 513.264 359.193 507.469L355.791 505.363ZM348.372 506.784C350.66 506.784 352.523 505.414 353.989 503.507L350.819 501.069C349.725 502.49 348.9 502.784 348.372 502.784V506.784ZM353.989 503.507C355.504 501.538 356.528 499.025 357.146 496.074L353.23 495.254C352.696 497.807 351.864 499.71 350.819 501.069L353.989 503.507ZM357.149 496.058L360.701 478.394L356.779 477.606L353.227 495.27L357.149 496.058ZM358.692 476.001C355.482 476.077 352.553 477.312 349.947 479.556L352.557 482.588C354.559 480.864 356.622 480.051 358.788 479.999L358.692 476.001ZM349.95 479.553C347.436 481.709 345.475 484.541 344.032 487.978L347.72 489.526C348.965 486.563 350.588 484.275 352.554 482.591L349.95 479.553ZM344.032 487.978C342.582 491.431 341.86 495.087 341.86 498.928H345.86C345.86 495.601 346.482 492.473 347.72 489.526L344.032 487.978ZM341.86 498.928C341.86 501.107 342.271 503.119 343.45 504.593L346.574 502.095C346.217 501.649 345.86 500.717 345.86 498.928H341.86ZM343.501 504.654C344.756 506.103 346.455 506.784 348.372 506.784V502.784C347.473 502.784 346.932 502.505 346.523 502.034L343.501 504.654Z" fill="#B65E5E" mask="url(#path-4-outside-2_68_25)"/>
</g>
<g filter="url(#filter2_d_68_25)">
<path d="M98.664 151.296C99.08 151.296 99.4 151.488 99.624 151.872C99.88 152.256 100.008 152.784 100.008 153.456C100.008 154.704 99.704 155.696 99.096 156.432C97.464 158.448 95.832 159.92 94.2 160.848C92.6 161.776 90.888 162.24 89.064 162.24C86.344 162.24 84.232 161.44 82.728 159.84C81.224 158.208 80.472 156.032 80.472 153.312C80.472 151.616 80.856 148.88 81.624 145.104L83.4 136.32C84.296 131.904 84.808 128.88 84.936 127.248C82.824 127.152 80.328 127.104 77.448 127.104C75.72 127.104 74.472 127.12 73.704 127.152C72.552 132.976 71.464 138.88 70.44 144.864C70.088 147.04 69.72 149.568 69.336 152.448C68.952 155.296 68.696 157.6 68.568 159.36C68.504 160.288 68.12 161.008 67.416 161.52C66.712 162 65.864 162.24 64.872 162.24C63.816 162.24 63 161.984 62.424 161.472C61.848 160.96 61.56 160.288 61.56 159.456C61.56 158.688 61.672 157.424 61.896 155.664C62.152 153.872 62.44 152 62.76 150.048C63.112 148.096 63.384 146.4 63.576 144.96C63.992 142.304 64.44 139.712 64.92 137.184C65.4 134.656 65.88 132.224 66.36 129.888L66.84 127.584C63.864 127.936 61.704 128.512 60.36 129.312C59.048 130.112 58.392 131.2 58.392 132.576C58.392 133.696 58.664 134.672 59.208 135.504C59.368 135.728 59.448 136.016 59.448 136.368C59.448 137.008 59.096 137.6 58.392 138.144C57.72 138.656 57 138.912 56.232 138.912C55.688 138.912 55.24 138.752 54.888 138.432C54.248 137.888 53.72 137.12 53.304 136.128C52.888 135.104 52.68 133.952 52.68 132.672C52.68 129.952 53.624 127.776 55.512 126.144C57.4 124.48 60.248 123.264 64.056 122.496C67.896 121.728 72.84 121.344 78.888 121.344C85.16 121.344 91.304 121.824 97.32 122.784C98.312 122.944 99.016 123.28 99.432 123.792C99.88 124.272 100.104 124.832 100.104 125.472C100.104 126.432 99.864 127.168 99.384 127.68C98.904 128.16 98.184 128.4 97.224 128.4C96.872 128.4 96.6 128.384 96.408 128.352L91.56 127.728C91.432 129.968 91.096 132.272 90.552 134.64L87.624 148.368C87.304 149.968 87.144 151.344 87.144 152.496C87.144 153.84 87.448 154.848 88.056 155.52C88.696 156.192 89.576 156.528 90.696 156.528C91.752 156.528 92.776 156.176 93.768 155.472C94.792 154.768 95.992 153.6 97.368 151.968C97.752 151.52 98.184 151.296 98.664 151.296ZM121.733 151.296C122.149 151.296 122.469 151.488 122.693 151.872C122.949 152.256 123.077 152.784 123.077 153.456C123.077 154.736 122.773 155.728 122.165 156.432C120.789 158.128 119.301 159.52 117.701 160.608C116.133 161.696 114.341 162.24 112.325 162.24C110.629 162.24 109.253 161.632 108.197 160.416C106.373 161.6 104.469 162.208 102.485 162.24C102.069 168.416 101.125 173.568 99.6529 177.696C98.1809 181.856 96.0209 183.936 93.1729 183.936C91.4449 183.936 90.1649 183.312 89.3329 182.064C88.5009 180.816 88.0849 179.088 88.0849 176.88C88.0849 173.744 88.8049 170.08 90.2449 165.888C91.6849 161.728 93.9089 157.136 96.9169 152.112C96.9169 147.44 96.8849 144.192 96.8209 142.368C96.7889 141.44 97.1569 140.704 97.9249 140.16C98.6929 139.616 99.6529 139.344 100.805 139.344C101.477 139.344 101.957 139.488 102.245 139.776C102.565 140.032 102.741 140.56 102.773 141.36C102.773 142.16 102.789 142.752 102.821 143.136C103.845 141.856 104.853 140.944 105.845 140.4C106.837 139.824 107.893 139.536 109.013 139.536C110.805 139.536 112.261 140.256 113.381 141.696C114.533 143.136 115.109 145.024 115.109 147.36C115.109 149.056 114.837 150.704 114.293 152.304C113.749 153.904 112.997 155.36 112.037 156.672C112.709 156.864 113.269 156.96 113.717 156.96C114.773 156.96 115.781 156.576 116.741 155.808C117.701 155.04 118.933 153.76 120.437 151.968C120.821 151.52 121.253 151.296 121.733 151.296ZM102.725 157.632C103.877 157.376 104.933 156.752 105.893 155.76C106.885 154.736 107.669 153.488 108.245 152.016C108.821 150.512 109.109 148.944 109.109 147.312C109.109 146.352 108.917 145.632 108.533 145.152C108.149 144.64 107.637 144.384 106.997 144.384C105.845 144.384 104.453 145.6 102.821 148.032C102.789 149.44 102.773 151.504 102.773 154.224C102.773 155.696 102.757 156.832 102.725 157.632ZM93.5569 179.232C94.4209 179.232 95.1409 177.344 95.7169 173.568C96.2929 169.824 96.6609 165.152 96.8209 159.552C95.4449 162.752 94.3569 165.808 93.5569 168.72C92.7569 171.632 92.3569 174.08 92.3569 176.064C92.3569 177.088 92.4849 177.872 92.7409 178.416C92.9649 178.96 93.2369 179.232 93.5569 179.232ZM124.106 162.24C122.666 162.24 121.482 161.584 120.554 160.272C119.658 158.928 119.21 157.264 119.21 155.28C119.21 152.88 119.37 150.688 119.69 148.704C120.01 146.688 120.538 144.56 121.274 142.32C121.594 141.36 122.042 140.672 122.618 140.256C123.194 139.84 124.106 139.632 125.354 139.632C126.058 139.632 126.538 139.744 126.794 139.968C127.082 140.192 127.226 140.528 127.226 140.976C127.226 141.232 127.05 142.096 126.698 143.568C126.378 144.752 126.122 145.824 125.93 146.784C125.29 150.144 124.97 152.384 124.97 153.504C124.97 154.176 125.05 154.656 125.21 154.944C125.37 155.2 125.626 155.328 125.978 155.328C126.458 155.328 127.05 154.848 127.754 153.888C128.49 152.928 129.258 151.472 130.058 149.52C130.89 147.568 131.69 145.168 132.458 142.32C132.714 141.36 133.098 140.672 133.61 140.256C134.154 139.84 134.954 139.632 136.01 139.632C136.746 139.632 137.258 139.728 137.546 139.92C137.834 140.08 137.978 140.4 137.978 140.88C137.978 141.68 137.578 143.872 136.778 147.456C135.882 151.552 135.434 154.08 135.434 155.04C135.434 155.648 135.562 156.128 135.818 156.48C136.074 156.8 136.41 156.96 136.826 156.96C137.466 156.96 138.218 156.576 139.082 155.808C139.978 155.008 141.162 153.728 142.634 151.968C143.018 151.52 143.45 151.296 143.93 151.296C144.346 151.296 144.666 151.488 144.89 151.872C145.146 152.256 145.274 152.784 145.274 153.456C145.274 154.736 144.97 155.728 144.362 156.432C142.986 158.128 141.498 159.52 139.898 160.608C138.33 161.696 136.538 162.24 134.522 162.24C132.986 162.24 131.85 161.648 131.114 160.464C130.41 159.28 130.058 157.616 130.058 155.472C129.514 157.648 128.698 159.328 127.61 160.512C126.522 161.664 125.354 162.24 124.106 162.24ZM148.653 139.2C151.053 139.2 152.861 139.632 154.077 140.496C155.325 141.328 155.949 142.544 155.949 144.144C155.949 145.52 155.661 146.672 155.085 147.6C154.509 148.528 153.821 149.264 153.021 149.808C152.221 150.352 151.181 150.944 149.901 151.584C148.525 152.288 147.517 152.896 146.877 153.408C146.237 153.92 145.917 154.608 145.917 155.472C145.917 156.176 146.173 156.672 146.685 156.96C147.197 157.248 148.093 157.392 149.373 157.392C151.261 157.392 153.133 156.928 154.989 156C156.877 155.04 158.541 153.696 159.981 151.968C160.333 151.52 160.765 151.296 161.277 151.296C161.693 151.296 162.013 151.488 162.237 151.872C162.493 152.256 162.621 152.784 162.621 153.456C162.621 154.64 162.317 155.632 161.709 156.432C160.173 158.48 158.301 160.048 156.093 161.136C153.885 162.192 151.437 162.72 148.749 162.72C145.933 162.72 143.757 162.24 142.221 161.28C140.685 160.288 139.917 158.704 139.917 156.528C139.917 155.152 140.205 153.984 140.781 153.024C141.389 152.032 142.109 151.232 142.941 150.624C143.805 149.984 144.877 149.328 146.157 148.656C147.469 147.952 148.429 147.344 149.037 146.832C149.645 146.288 149.949 145.648 149.949 144.912C149.949 144.496 149.773 144.176 149.421 143.952C149.069 143.696 148.557 143.568 147.885 143.568C147.277 143.568 146.733 143.664 146.253 143.856C145.773 144.016 145.245 144.256 144.669 144.576C144.349 144.736 144.013 144.896 143.661 145.056C143.341 145.184 143.037 145.248 142.749 145.248C142.141 145.248 141.661 145.056 141.309 144.672C140.989 144.256 140.829 143.728 140.829 143.088C140.829 142.224 141.229 141.488 142.029 140.88C142.669 140.4 143.613 140 144.861 139.68C146.109 139.36 147.373 139.2 148.653 139.2ZM186.999 151.296C187.415 151.296 187.735 151.488 187.959 151.872C188.215 152.256 188.343 152.784 188.343 153.456C188.343 154.736 188.039 155.728 187.431 156.432C186.375 157.68 185.447 158.688 184.647 159.456C183.879 160.192 182.919 160.848 181.767 161.424C180.647 161.968 179.367 162.24 177.927 162.24C176.039 162.24 174.695 161.504 173.895 160.032C173.095 158.528 172.695 156.272 172.695 153.264C172.695 151.76 172.759 150.304 172.887 148.896H172.791C171.511 153.152 169.927 156.432 168.039 158.736C166.183 161.04 164.055 162.192 161.655 162.192C160.023 162.192 158.743 161.6 157.815 160.416C156.887 159.232 156.423 157.744 156.423 155.952C156.423 154.352 156.791 153.056 157.527 152.064C158.263 151.072 159.303 150.576 160.647 150.576C161.255 150.576 161.703 150.704 161.991 150.96C162.311 151.216 162.439 151.568 162.375 152.016C162.119 153.552 161.991 154.608 161.991 155.184C161.991 156.336 162.279 156.912 162.855 156.912C163.175 156.912 163.527 156.672 163.911 156.192C164.327 155.712 165.015 154.544 165.975 152.688C166.711 151.28 167.463 149.696 168.231 147.936C169.031 146.176 169.687 144.608 170.199 143.232C170.711 141.888 171.303 140.976 171.975 140.496C172.647 139.984 173.607 139.728 174.855 139.728C176.071 139.728 176.967 139.968 177.543 140.448C178.119 140.928 178.407 141.712 178.407 142.8L178.311 146.352C178.183 149.04 178.119 150.976 178.119 152.16C178.119 155.52 178.807 157.2 180.183 157.2C180.759 157.2 181.319 156.928 181.863 156.384C182.439 155.84 183.319 154.848 184.503 153.408L185.703 151.968C186.087 151.52 186.519 151.296 186.999 151.296ZM190.458 162.24C188.474 162.24 186.89 161.52 185.706 160.08C184.522 158.64 183.93 156.752 183.93 154.416C183.93 151.856 184.522 149.44 185.706 147.168C186.89 144.864 188.458 143.024 190.41 141.648C192.394 140.24 194.49 139.536 196.698 139.536C197.402 139.536 197.866 139.68 198.09 139.968C198.346 140.224 198.554 140.704 198.714 141.408C199.386 141.28 200.09 141.216 200.826 141.216C202.394 141.216 203.178 141.776 203.178 142.896C203.178 143.568 202.938 145.168 202.458 147.696C201.722 151.376 201.354 153.936 201.354 155.376C201.354 155.856 201.466 156.24 201.69 156.528C201.946 156.816 202.266 156.96 202.65 156.96C203.258 156.96 203.994 156.576 204.858 155.808C205.722 155.008 206.89 153.728 208.362 151.968C208.746 151.52 209.178 151.296 209.658 151.296C210.074 151.296 210.394 151.488 210.618 151.872C210.874 152.256 211.002 152.784 211.002 153.456C211.002 154.736 210.698 155.728 210.09 156.432C208.778 158.064 207.386 159.44 205.914 160.56C204.442 161.68 203.018 162.24 201.642 162.24C200.586 162.24 199.61 161.888 198.714 161.184C197.85 160.448 197.194 159.456 196.746 158.208C195.082 160.896 192.986 162.24 190.458 162.24ZM192.186 157.392C192.89 157.392 193.562 156.976 194.202 156.144C194.842 155.312 195.306 154.208 195.594 152.832L197.37 144C196.026 144.032 194.778 144.544 193.626 145.536C192.506 146.496 191.61 147.776 190.938 149.376C190.266 150.976 189.93 152.672 189.93 154.464C189.93 155.456 190.122 156.192 190.506 156.672C190.922 157.152 191.482 157.392 192.186 157.392ZM242.909 151.296C243.325 151.296 243.645 151.488 243.869 151.872C244.125 152.256 244.253 152.784 244.253 153.456C244.253 154.736 243.949 155.728 243.341 156.432C241.869 158.128 240.349 159.52 238.781 160.608C237.245 161.696 235.485 162.24 233.501 162.24C231.965 162.24 230.829 161.648 230.093 160.464C229.357 159.248 229.005 157.584 229.037 155.472C228.493 157.648 227.677 159.328 226.589 160.512C225.501 161.664 224.333 162.24 223.085 162.24C220.173 162.24 218.717 160.512 218.717 157.056C218.717 156.448 218.765 155.808 218.861 155.136C217.901 157.44 216.877 159.2 215.789 160.416C214.701 161.632 213.437 162.24 211.997 162.24C210.557 162.24 209.373 161.584 208.445 160.272C207.549 158.928 207.101 157.264 207.101 155.28C207.101 152.88 207.261 150.688 207.581 148.704C207.901 146.688 208.429 144.56 209.165 142.32C209.485 141.36 209.933 140.672 210.509 140.256C211.085 139.84 211.997 139.632 213.245 139.632C213.949 139.632 214.429 139.744 214.685 139.968C214.973 140.192 215.117 140.528 215.117 140.976C215.117 141.232 214.941 142.096 214.589 143.568C214.269 144.752 214.013 145.824 213.821 146.784C213.181 150.144 212.861 152.384 212.861 153.504C212.861 154.176 212.941 154.656 213.101 154.944C213.261 155.2 213.517 155.328 213.869 155.328C214.925 155.328 215.949 154.144 216.941 151.776C217.965 149.376 219.069 146.224 220.253 142.32C220.541 141.36 220.877 140.72 221.261 140.4C221.645 140.048 222.349 139.872 223.373 139.872C224.205 139.872 224.781 140.016 225.101 140.304C225.421 140.56 225.581 141.024 225.581 141.696C225.581 142.336 225.357 143.888 224.909 146.352C224.269 150.064 223.949 152.448 223.949 153.504C223.949 154.176 224.029 154.656 224.189 154.944C224.349 155.2 224.605 155.328 224.957 155.328C225.437 155.328 226.029 154.848 226.733 153.888C227.469 152.928 228.237 151.472 229.037 149.52C229.869 147.568 230.669 145.168 231.437 142.32C231.693 141.36 232.077 140.672 232.589 140.256C233.133 139.84 233.933 139.632 234.989 139.632C235.725 139.632 236.237 139.728 236.525 139.92C236.813 140.08 236.957 140.4 236.957 140.88C236.957 141.68 236.557 143.872 235.757 147.456C234.861 151.552 234.413 154.08 234.413 155.04C234.413 155.648 234.541 156.128 234.797 156.48C235.053 156.8 235.389 156.96 235.805 156.96C236.445 156.96 237.197 156.576 238.061 155.808C238.957 155.008 240.141 153.728 241.613 151.968C241.997 151.52 242.429 151.296 242.909 151.296ZM261.79 151.296C262.206 151.296 262.526 151.488 262.75 151.872C263.006 152.256 263.134 152.784 263.134 153.456C263.134 154.736 262.83 155.728 262.222 156.432C261.038 157.872 259.358 159.2 257.182 160.416C255.038 161.632 252.734 162.24 250.27 162.24C246.91 162.24 244.302 161.328 242.446 159.504C240.59 157.68 239.662 155.184 239.662 152.016C239.662 149.808 240.126 147.76 241.054 145.872C241.982 143.952 243.262 142.432 244.894 141.312C246.558 140.192 248.43 139.632 250.51 139.632C252.366 139.632 253.854 140.192 254.974 141.312C256.094 142.4 256.654 143.888 256.654 145.776C256.654 147.984 255.854 149.888 254.254 151.488C252.686 153.056 250.014 154.304 246.238 155.232C247.038 156.704 248.558 157.44 250.798 157.44C252.238 157.44 253.87 156.944 255.694 155.952C257.55 154.928 259.15 153.6 260.494 151.968C260.878 151.52 261.31 151.296 261.79 151.296ZM249.694 144.336C248.51 144.336 247.502 145.024 246.67 146.4C245.87 147.776 245.47 149.44 245.47 151.392V151.488C247.358 151.04 248.846 150.368 249.934 149.472C251.022 148.576 251.566 147.536 251.566 146.352C251.566 145.744 251.39 145.264 251.038 144.912C250.718 144.528 250.27 144.336 249.694 144.336ZM284.57 151.296C284.986 151.296 285.306 151.488 285.53 151.872C285.786 152.256 285.914 152.784 285.914 153.456C285.914 154.736 285.61 155.728 285.002 156.432C283.53 158.128 282.01 159.52 280.442 160.608C278.906 161.696 277.146 162.24 275.162 162.24C273.498 162.24 272.33 161.728 271.658 160.704C270.986 159.68 270.65 158.144 270.65 156.096C270.65 155.232 270.73 154.192 270.89 152.976C268.074 152.976 266.122 152.944 265.034 152.88C264.97 153.776 264.938 154.4 264.938 154.752V155.76C264.906 157.744 264.858 159.136 264.794 159.936C264.73 160.736 264.538 161.328 264.218 161.712C263.898 162.064 263.37 162.24 262.634 162.24C261.418 162.24 260.554 161.6 260.042 160.32C259.562 159.04 259.322 156.992 259.322 154.176C259.322 150.016 259.914 146.064 261.098 142.32C261.386 141.392 261.85 140.72 262.49 140.304C263.13 139.856 264.058 139.632 265.274 139.632C265.914 139.632 266.362 139.712 266.618 139.872C266.874 140.032 267.002 140.336 267.002 140.784C267.002 141.296 266.762 142.448 266.282 144.24C266.026 145.296 265.786 146.576 265.562 148.08H271.706C272.026 146.576 272.49 144.656 273.098 142.32C273.354 141.36 273.738 140.672 274.25 140.256C274.794 139.84 275.594 139.632 276.65 139.632C277.386 139.632 277.898 139.728 278.186 139.92C278.474 140.08 278.618 140.4 278.618 140.88C278.618 141.68 278.218 143.872 277.418 147.456C276.522 151.552 276.074 154.08 276.074 155.04C276.074 155.648 276.202 156.128 276.458 156.48C276.714 156.8 277.05 156.96 277.466 156.96C278.106 156.96 278.858 156.576 279.722 155.808C280.618 155.008 281.802 153.728 283.274 151.968C283.658 151.52 284.09 151.296 284.57 151.296ZM286.903 162.24C285.463 162.24 284.279 161.584 283.351 160.272C282.455 158.928 282.007 157.264 282.007 155.28C282.007 152.88 282.167 150.688 282.487 148.704C282.807 146.688 283.335 144.56 284.071 142.32C284.391 141.36 284.839 140.672 285.415 140.256C285.991 139.84 286.903 139.632 288.151 139.632C288.855 139.632 289.335 139.744 289.591 139.968C289.879 140.192 290.023 140.528 290.023 140.976C290.023 141.232 289.847 142.096 289.495 143.568C289.175 144.752 288.919 145.824 288.727 146.784C288.087 150.144 287.767 152.384 287.767 153.504C287.767 154.176 287.847 154.656 288.007 154.944C288.167 155.2 288.423 155.328 288.775 155.328C289.255 155.328 289.847 154.848 290.551 153.888C291.287 152.928 292.055 151.472 292.855 149.52C293.687 147.568 294.487 145.168 295.255 142.32C295.511 141.36 295.895 140.672 296.407 140.256C296.951 139.84 297.751 139.632 298.807 139.632C299.543 139.632 300.055 139.728 300.343 139.92C300.631 140.08 300.775 140.4 300.775 140.88C300.775 141.68 300.375 143.872 299.575 147.456C298.679 151.552 298.231 154.08 298.231 155.04C298.231 155.648 298.359 156.128 298.615 156.48C298.871 156.8 299.207 156.96 299.623 156.96C300.263 156.96 301.015 156.576 301.879 155.808C302.775 155.008 303.959 153.728 305.431 151.968C305.815 151.52 306.247 151.296 306.727 151.296C307.143 151.296 307.463 151.488 307.687 151.872C307.943 152.256 308.071 152.784 308.071 153.456C308.071 154.736 307.767 155.728 307.159 156.432C305.783 158.128 304.295 159.52 302.695 160.608C301.127 161.696 299.335 162.24 297.319 162.24C295.783 162.24 294.647 161.648 293.911 160.464C293.207 159.28 292.855 157.616 292.855 155.472C292.311 157.648 291.495 159.328 290.407 160.512C289.319 161.664 288.151 162.24 286.903 162.24ZM325.587 151.296C326.003 151.296 326.323 151.488 326.547 151.872C326.803 152.256 326.931 152.784 326.931 153.456C326.931 154.736 326.627 155.728 326.019 156.432C324.835 157.872 323.155 159.2 320.979 160.416C318.835 161.632 316.531 162.24 314.067 162.24C310.707 162.24 308.099 161.328 306.243 159.504C304.387 157.68 303.459 155.184 303.459 152.016C303.459 149.808 303.923 147.76 304.851 145.872C305.779 143.952 307.059 142.432 308.691 141.312C310.355 140.192 312.227 139.632 314.307 139.632C316.163 139.632 317.651 140.192 318.771 141.312C319.891 142.4 320.451 143.888 320.451 145.776C320.451 147.984 319.651 149.888 318.051 151.488C316.483 153.056 313.811 154.304 310.035 155.232C310.835 156.704 312.355 157.44 314.595 157.44C316.035 157.44 317.667 156.944 319.491 155.952C321.347 154.928 322.947 153.6 324.291 151.968C324.675 151.52 325.107 151.296 325.587 151.296ZM313.491 144.336C312.307 144.336 311.299 145.024 310.467 146.4C309.667 147.776 309.267 149.44 309.267 151.392V151.488C311.155 151.04 312.643 150.368 313.731 149.472C314.819 148.576 315.363 147.536 315.363 146.352C315.363 145.744 315.187 145.264 314.835 144.912C314.515 144.528 314.067 144.336 313.491 144.336ZM361.07 151.296C361.486 151.296 361.806 151.488 362.03 151.872C362.286 152.256 362.414 152.784 362.414 153.456C362.414 154.736 362.11 155.728 361.502 156.432C360.03 158.128 358.51 159.52 356.942 160.608C355.406 161.696 353.646 162.24 351.662 162.24C349.998 162.24 348.83 161.728 348.158 160.704C347.486 159.68 347.15 158.144 347.15 156.096C347.15 155.232 347.23 154.192 347.39 152.976C344.574 152.976 342.622 152.944 341.534 152.88C341.47 153.776 341.438 154.4 341.438 154.752V155.76C341.406 157.744 341.358 159.136 341.294 159.936C341.23 160.736 341.038 161.328 340.718 161.712C340.398 162.064 339.87 162.24 339.134 162.24C337.918 162.24 337.054 161.6 336.542 160.32C336.062 159.04 335.822 156.992 335.822 154.176C335.822 150.016 336.414 146.064 337.598 142.32C337.886 141.392 338.35 140.72 338.99 140.304C339.63 139.856 340.558 139.632 341.774 139.632C342.414 139.632 342.862 139.712 343.118 139.872C343.374 140.032 343.502 140.336 343.502 140.784C343.502 141.296 343.262 142.448 342.782 144.24C342.526 145.296 342.286 146.576 342.062 148.08H348.206C348.526 146.576 348.99 144.656 349.598 142.32C349.854 141.36 350.238 140.672 350.75 140.256C351.294 139.84 352.094 139.632 353.15 139.632C353.886 139.632 354.398 139.728 354.686 139.92C354.974 140.08 355.118 140.4 355.118 140.88C355.118 141.68 354.718 143.872 353.918 147.456C353.022 151.552 352.574 154.08 352.574 155.04C352.574 155.648 352.702 156.128 352.958 156.48C353.214 156.8 353.55 156.96 353.966 156.96C354.606 156.96 355.358 156.576 356.222 155.808C357.118 155.008 358.302 153.728 359.774 151.968C360.158 151.52 360.59 151.296 361.07 151.296ZM364.411 162.24C362.427 162.24 360.843 161.52 359.659 160.08C358.475 158.64 357.883 156.752 357.883 154.416C357.883 151.856 358.475 149.44 359.659 147.168C360.843 144.864 362.411 143.024 364.363 141.648C366.347 140.24 368.443 139.536 370.651 139.536C371.355 139.536 371.819 139.68 372.043 139.968C372.299 140.224 372.507 140.704 372.667 141.408C373.339 141.28 374.043 141.216 374.779 141.216C376.347 141.216 377.131 141.776 377.131 142.896C377.131 143.568 376.891 145.168 376.411 147.696C375.675 151.376 375.307 153.936 375.307 155.376C375.307 155.856 375.419 156.24 375.643 156.528C375.899 156.816 376.219 156.96 376.603 156.96C377.211 156.96 377.947 156.576 378.811 155.808C379.675 155.008 380.843 153.728 382.315 151.968C382.699 151.52 383.131 151.296 383.611 151.296C384.027 151.296 384.347 151.488 384.571 151.872C384.827 152.256 384.955 152.784 384.955 153.456C384.955 154.736 384.651 155.728 384.043 156.432C382.731 158.064 381.339 159.44 379.867 160.56C378.395 161.68 376.971 162.24 375.595 162.24C374.539 162.24 373.563 161.888 372.667 161.184C371.803 160.448 371.147 159.456 370.699 158.208C369.035 160.896 366.939 162.24 364.411 162.24ZM366.139 157.392C366.843 157.392 367.515 156.976 368.155 156.144C368.795 155.312 369.259 154.208 369.547 152.832L371.323 144C369.979 144.032 368.731 144.544 367.579 145.536C366.459 146.496 365.563 147.776 364.891 149.376C364.219 150.976 363.883 152.672 363.883 154.464C363.883 155.456 364.075 156.192 364.459 156.672C364.875 157.152 365.435 157.392 366.139 157.392Z" fill="#B65E5E"/>
</g>
<defs>
<filter id="filter0_d_68_25" x="125.5" y="189.9" width="192.2" height="248.6" filterUnits="userSpaceOnUse" color-interpolation-filters="sRGB">
<feFlood flood-opacity="0" result="BackgroundImageFix"/>
<feColorMatrix in="SourceAlpha" type="matrix" values="0 0 0 0 0 0 0 0 0 0 0 0 0 0 0 0 0 0 127 0" result="hardAlpha"/>
<feOffset dx="3" dy="5"/>
<feGaussianBlur stdDeviation="3.25"/>
<feComposite in2="hardAlpha" operator="out"/>
<feColorMatrix type="matrix" values="0 0 0 0 0.713726 0 0 0 0 0.368627 0 0 0 0 0.368627 0 0 0 0.5 0"/>
<feBlend mode="normal" in2="BackgroundImageFix" result="effect1_dropShadow_68_25"/>
<feBlend mode="normal" in="SourceGraphic" in2="effect1_dropShadow_68_25" result="shape"/>
</filter>
<filter id="filter1_d_68_25" x="54.364" y="431.092" width="341.14" height="138.28" filterUnits="userSpaceOnUse" color-interpolation-filters="sRGB">
<feFlood flood-opacity="0" result="BackgroundImageFix"/>
<feColorMatrix in="SourceAlpha" type="matrix" values="0 0 0 0 0 0 0 0 0 0 0 0 0 0 0 0 0 0 127 0" result="hardAlpha"/>
<feOffset dx="3" dy="5"/>
<feGaussianBlur stdDeviation="3.25"/>
<feComposite in2="hardAlpha" operator="out"/>
<feColorMatrix type="matrix" values="0 0 0 0 0.713726 0 0 0 0 0.368627 0 0 0 0 0.368627 0 0 0 0.5 0"/>
<feBlend mode="normal" in2="BackgroundImageFix" result="effect1_dropShadow_68_25"/>
<feBlend mode="normal" in="SourceGraphic" in2="effect1_dropShadow_68_25" result="shape"/>
</filter>
<filter id="filter2_d_68_25" x="51.2799" y="121.344" width="339.075" height="69.992" filterUnits="userSpaceOnUse" color-interpolation-filters="sRGB">
<feFlood flood-opacity="0" result="BackgroundImageFix"/>
<feColorMatrix in="SourceAlpha" type="matrix" values="0 0 0 0 0 0 0 0 0 0 0 0 0 0 0 0 0 0 127 0" result="hardAlpha"/>
<feOffset dx="2" dy="4"/>
<feGaussianBlur stdDeviation="1.7"/>
<feComposite in2="hardAlpha" operator="out"/>
<feColorMatrix type="matrix" values="0 0 0 0 0.992157 0 0 0 0 0.8 0 0 0 0 0.878431 0 0 0 1 0"/>
<feBlend mode="normal" in2="BackgroundImageFix" result="effect1_dropShadow_68_25"/>
<feBlend mode="normal" in="SourceGraphic" in2="effect1_dropShadow_68_25" result="shape"/>
</filter>
</defs>
</svg>
